<?xml version="1.0" standalone="no"?>
<!DOCTYPE svg PUBLIC "-//W3C//DTD SVG 1.1//EN" "http://www.w3.org/Graphics/SVG/1.1/DTD/svg11.dtd" >
<svg xmlns="http://www.w3.org/2000/svg" xmlns:xlink="http://www.w3.org/1999/xlink" version="1.1">
<metadata>
Created by FontForge 20170731 at Mon Oct 16 10:26:21 2023
 By Aleksey,,,
Copyright (c) 2008 by Neil Summerour. All rights reserved.
</metadata>
<defs>
<font id="AauxNext-Bold" horiz-adv-x="1026" >
  <font-face 
    font-family="Aaux Next Bold"
    font-weight="400"
    font-stretch="normal"
    units-per-em="2048"
    panose-1="2 0 5 6 0 0 0 2 0 4"
    ascent="1638"
    descent="-410"
    x-height="1008"
    cap-height="1430"
    bbox="-242 -655 2261 2161"
    underline-thickness="102"
    underline-position="-307"
    unicode-range="U+0020-FB04"
  />
<missing-glyph horiz-adv-x="606" 
 />
    <glyph glyph-name="f_f" unicode="ff" horiz-adv-x="1284" 
d="M811 801h-385v-801h-238v801h-86v207h86v116q0 57 11 102t29 76.5t48 54t62 36.5t78 22t88.5 11t99.5 4v-199q-97 -2 -137.5 -37t-40.5 -133v-53h385v116q0 79 21 135t54 88.5t90 51t112 24.5t137 7v-199q-97 -2 -137.5 -37t-40.5 -133v-53h155v-207h-155v-801h-236v801z
" />
    <glyph glyph-name="f_l" unicode="fl" horiz-adv-x="1173" 
d="M1100 207l2 -207q-159 2 -236.5 64t-77.5 215v952h-184q-96 0 -137 -36t-41 -134v-53h156v-207h-156v-801h-238v801h-86v207h86v116q0 79 21 135.5t55 89t90 51t113 24.5t137 6h416v-1147q0 -38 18.5 -56.5t61.5 -19.5z" />
    <glyph glyph-name="f_f_i" unicode="ffi" horiz-adv-x="1806" 
d="M811 801h-385v-801h-238v801h-86v207h86v116q0 57 11 102t29 76.5t48 54t62 36.5t78 22t88.5 11t99.5 4v-199q-97 -2 -137.5 -37t-40.5 -133v-53h385v116q0 79 21 135t54 88.5t90 51t112 24.5t137 7v-199q-97 -2 -137.5 -37t-40.5 -133v-53h616v-1008h-240v801h-376v-801
h-236v801zM1690 1335q0 -60 -43 -102.5t-103 -42.5q-59 0 -101 42.5t-42 102.5t42 102t101 42q60 0 103 -42t43 -102z" />
    <glyph glyph-name="f_f_l" unicode="ffl" horiz-adv-x="1794" 
d="M604 1430v-199q-97 -2 -137.5 -37t-40.5 -133v-53h385v116q0 79 21 135.5t54.5 89t90 51t112.5 24.5t136 6h417v-1147q0 -39 18 -57t60 -19l2 -207q-158 2 -235.5 64t-77.5 215v952h-184q-96 0 -137 -36t-41 -134v-53h155v-207h-155v-801h-236v801h-385v-801h-238v801
h-86v207h86v116q0 57 11 102t29 76.5t48 54t62 36.5t78 22t88.5 11t99.5 4z" />
    <glyph glyph-name="f_b" unicode="fb" horiz-adv-x="1705" 
d="M604 1430h438v-465q69 59 185 59q88 0 157.5 -28t115 -75.5t75.5 -114.5t42.5 -141t12.5 -159q0 -88 -13.5 -163.5t-45 -143.5t-79 -115.5t-120.5 -75.5t-166 -28q-56 0 -113.5 21.5t-86.5 61.5l-11 -63h-198v1231h-193q-96 0 -137 -36t-41 -134v-53h156v-207h-156v-801
h-238v801h-86v207h86v116q0 79 21 135.5t55 89t90 51t113 24.5t137 6zM1386 504q0 45 -2.5 78t-13 75t-28.5 68t-53 44.5t-83 18.5q-73 0 -118.5 -40.5t-45.5 -112.5v-262q0 -73 46 -113.5t118 -40.5q48 0 83 18.5t53 45t28.5 68t13 75t2.5 78.5z" />
    <glyph glyph-name="f_f_b" unicode="ffb" horiz-adv-x="2326" 
d="M2007 504q0 155 -42 219.5t-138 64.5q-28 0 -54 -7t-52 -22.5t-42 -47.5t-16 -76v-262q0 -69 43.5 -111.5t120.5 -42.5q93 0 136.5 65t43.5 220zM1225 1430h438v-465q34 31 74 45t112 14q89 0 159.5 -28.5t115.5 -76t74.5 -115t42 -140.5t12.5 -158t-13 -159.5
t-44.5 -143t-79 -117t-121 -77.5t-166.5 -29q-64 0 -118.5 21.5t-84.5 61.5l-10 -63h-197v1231h-194q-31 0 -52.5 -2.5t-47.5 -12t-41.5 -27t-26 -50t-10.5 -78.5v-53h155v-207h-155v-801h-236v801h-385v-801h-238v801h-86v207h86v116q0 170 92 236.5t324 69.5v-199
q-56 -1 -92.5 -12.5t-54.5 -35.5t-24.5 -52t-6.5 -70v-53h385v116q0 66 11 112.5t38.5 85t74.5 61.5t118.5 35t171.5 12z" />
    <glyph glyph-name="f_h" unicode="fh" horiz-adv-x="1726" 
d="M604 1430h438v-478q63 74 197 74q100 0 176 -35t122.5 -98t69.5 -146.5t23 -185.5v-561h-244v561q0 223 -180 223q-61 0 -112.5 -43.5t-51.5 -109.5v-631h-245v1231h-193q-96 0 -137 -36t-41 -134v-53h156v-207h-156v-801h-238v801h-86v207h86v116q0 79 21 135.5t55 89
t90 51t113 24.5t137 6z" />
    <glyph glyph-name="f_f_h" unicode="ffh" horiz-adv-x="2349" 
d="M426 1008h385v116q0 79 21 135.5t54.5 89t89.5 51t112.5 24.5t136.5 6h438v-478q66 74 199 74q100 0 175.5 -35t122 -98t70 -146.5t23.5 -185.5v-561h-246v561q0 223 -180 223q-60 0 -112 -44t-52 -109v-631h-244v1231h-194q-96 0 -137 -36t-41 -134v-53h155v-207h-155
v-801h-236v801h-385v-801h-238v801h-86v207h86v116q0 57 11 102t29 76.5t48 54t62 36.5t78 22t88.5 11t99.5 4v-199q-97 -2 -137.5 -37t-40.5 -133v-53z" />
    <glyph glyph-name="f_i" unicode="fi" horiz-adv-x="1183" 
d="M1042 1008v-1008h-239v801h-377v-801h-238v801h-86v207h86v116q0 57 11 102t29 76.5t48 54t62 36.5t78 22t88.5 11t99.5 4v-199q-97 -2 -137.5 -37t-40.5 -133v-53h616zM1067 1335q0 -60 -41.5 -102.5t-101.5 -42.5t-102 42.5t-42 102.5t42 102t102 42t101.5 -42
t41.5 -102z" />
    <glyph glyph-name="f_j" unicode="fj" horiz-adv-x="1200" 
d="M1057 1008v-1071q0 -158 -85.5 -255t-244.5 -116l-76 207q168 30 168 186v842h-393v-801h-238v801h-86v207h86v116q0 57 11 102t29 76.5t48 54t62 36.5t78 22t88.5 11t99.5 4v-199q-97 -2 -137.5 -37t-40.5 -133v-53h631zM1085 1335q0 -60 -42.5 -102.5t-102.5 -42.5
t-102.5 42.5t-42.5 102.5t42.5 102t102.5 42t102.5 -42t42.5 -102z" />
    <glyph glyph-name="f_f_j" unicode="ffj" horiz-adv-x="1822" 
d="M1225 1430v-199q-97 -2 -137.5 -37t-40.5 -133v-53h630v-1071q0 -158 -85 -255t-244 -116l-74 207q168 31 168 186v842h-395v-801h-236v801h-385v-801h-238v801h-86v207h86v116q0 57 11 102t29 76.5t48 54t62 36.5t78 22t88.5 11t99.5 4v-199q-97 -2 -137.5 -37
t-40.5 -133v-53h385v116q0 79 21 135t54 88.5t90 51t112 24.5t137 7zM1706 1335q0 -60 -42.5 -102.5t-102.5 -42.5q-59 0 -101.5 42.5t-42.5 102.5t42.5 102t101.5 42q60 0 102.5 -42t42.5 -102z" />
    <glyph glyph-name="f_k" unicode="fk" horiz-adv-x="1640" 
d="M604 1430h420v-1430h-236v1231h-184q-96 0 -137 -36t-41 -134v-53h156v-207h-156v-801h-238v801h-86v207h86v116q0 79 21 135.5t55 89t90 51t113 24.5t137 6zM1282 555l358 -555h-264l-342 553l289 455h254z" />
    <glyph glyph-name="f_f_k" unicode="ffk" horiz-adv-x="2260" 
d="M1225 1430h422v-1430h-238v1231h-184q-96 0 -137 -36t-41 -134v-53h155v-207h-155v-801h-236v801h-385v-801h-238v801h-86v207h86v116q0 57 11 102t29 76.5t48 54t62 36.5t78 22t88.5 11t99.5 4v-199q-97 -2 -137.5 -37t-40.5 -133v-53h385v116q0 79 21 135.5t54.5 89
t90 51t112.5 24.5t136 6zM1905 555l356 -555h-262l-342 553l287 455h256z" />
    <glyph glyph-name=".notdef" horiz-adv-x="606" 
 />
    <glyph glyph-name=".null" horiz-adv-x="0" 
 />
    <glyph glyph-name="nonmarkingreturn" horiz-adv-x="682" 
 />
    <glyph glyph-name="space" unicode=" " horiz-adv-x="606" 
 />
    <glyph glyph-name="exclam" unicode="!" horiz-adv-x="659" 
d="M207 1430h246v-605l-15 -405h-217l-14 405v605zM487 137q0 -65 -46.5 -111t-110.5 -46q-65 0 -111.5 46.5t-46.5 110.5q0 65 47 111.5t111 46.5t110.5 -46.5t46.5 -111.5z" />
    <glyph glyph-name="quotedbl" unicode="&#x22;" horiz-adv-x="841" 
d="M715 1407v-328h-221v328q0 46 31.5 78.5t76.5 32.5q46 0 79.5 -32.5t33.5 -78.5zM348 1407v-328h-221v328q0 46 32.5 78.5t76.5 32.5q46 0 79 -32.5t33 -78.5z" />
    <glyph glyph-name="numbersign" unicode="#" horiz-adv-x="1474" 
d="M1126 1028h244l-45 -203h-244l-47 -221h244l-45 -203h-242l-88 -401h-211l88 401h-223l-86 -401h-211l86 401h-242l46 203h241l47 221h-241l45 203h241l88 402h211l-88 -402h221l89 402h210zM825 604l47 221h-221l-49 -221h223z" />
    <glyph glyph-name="dollar" unicode="$" horiz-adv-x="1134" 
d="M1034 469q0 -149 -101 -249t-253 -124v-96h-195v96q-143 20 -242.5 106.5t-140.5 225.5l205 55q38 -135 178 -172v342q-61 15 -108 31.5t-95.5 44t-80.5 61.5t-52 84.5t-20 112.5q0 73 30 133.5t81 99.5t113 63.5t132 33.5v113h195v-111q90 -13 168.5 -65.5t134.5 -131.5
l-158 -129q-54 78 -145 113v-283q74 -20 132.5 -47t111 -68t81.5 -101.5t29 -137.5zM485 872v232q-56 -9 -95.5 -37t-39.5 -80q0 -20 9 -37t20.5 -28t32.5 -21.5t35 -15.5t38 -13zM813 463q0 93 -133 133v-285q57 14 95 54.5t38 97.5z" />
    <glyph glyph-name="percent" unicode="%" horiz-adv-x="1699" 
d="M1593 387q0 -63 -10 -120.5t-34 -110.5t-59.5 -91.5t-91 -61.5t-124.5 -23q-84 0 -147.5 34.5t-99.5 93.5t-53.5 129t-17.5 150q0 79 17.5 149t53.5 129.5t99.5 94.5t147.5 35q86 0 150 -35t99.5 -94.5t52.5 -129t17 -149.5zM1055 1430h237l-647 -1430h-239zM741 1042
q0 -80 -17 -150t-52.5 -129t-99 -93.5t-148.5 -34.5t-149 34.5t-100 93.5t-53.5 129t-17.5 150q0 63 10.5 120t34.5 110t60 91.5t91 61.5t124 23q85 0 148.5 -34.5t99 -94t52.5 -129t17 -148.5zM1399 387q0 32 -2 58t-9.5 57t-20.5 51.5t-37 34.5t-56 14q-123 0 -123 -215
t123 -215q125 0 125 215zM547 1042q0 215 -123 215t-123 -215q0 -42 4 -74t15.5 -67.5t38 -55.5t65.5 -20q123 0 123 217z" />
    <glyph glyph-name="ampersand" unicode="&#x26;" horiz-adv-x="1437" 
d="M1272 127l-162 -158q-18 18 -66 65.5t-67 65.5q-155 -120 -406 -120q-126 0 -228 48.5t-163 144t-61 222.5q0 134 58.5 228.5t178.5 183.5q-36 48 -52.5 73t-37.5 64t-29 77t-8 83q0 154 100 248t255 94q154 0 256 -95t102 -247q0 -59 -21.5 -112.5t-61.5 -97.5
t-82.5 -78t-98.5 -68q98 -125 278 -308q75 100 72 248h238q-4 -264 -136 -416q72 -72 142 -145zM700 1106q0 48 -33.5 84.5t-82.5 36.5q-52 0 -86.5 -34.5t-34.5 -86.5q0 -77 86 -186q35 22 54.5 36.5t45.5 39t38.5 52t12.5 58.5zM813 272q-173 167 -313 349
q-129 -90 -129 -215q0 -95 69 -148t166 -53q116 0 207 67z" />
    <glyph glyph-name="quotesingle" unicode="'" horiz-adv-x="479" 
d="M350 1407v-328h-221v328q0 46 32.5 78.5t76.5 32.5q46 0 79 -32.5t33 -78.5z" />
    <glyph glyph-name="parenleft" unicode="(" horiz-adv-x="792" 
d="M113 715q0 197 79.5 385t233.5 330h264q-356 -301 -356 -715q0 -190 81 -367t275 -348h-264q-155 134 -234 324t-79 391z" />
    <glyph glyph-name="parenright" unicode=")" horiz-adv-x="792" 
d="M690 715q0 -201 -79 -391t-234 -324h-264q194 171 275 348t81 367q0 414 -356 715h264q154 -142 233.5 -330t79.5 -385z" />
    <glyph glyph-name="asterisk" unicode="*" horiz-adv-x="980" 
d="M823 1294l56 -178l-250 -72l159 -208l-149 -107l-147 215l-148 -215l-151 107l159 208l-250 72l56 178l248 -90l-7 262h185l-9 -262z" />
    <glyph glyph-name="plus" unicode="+" horiz-adv-x="1093" 
d="M993 672v-221h-336v-336h-221v336h-336v221h336v336h221v-336h336z" />
    <glyph glyph-name="comma" unicode="," horiz-adv-x="561" 
d="M455 141v-139l-199 -324h-119v463q0 66 46.5 112t111.5 46q66 0 113 -46t47 -112z" />
    <glyph glyph-name="hyphen" unicode="-" horiz-adv-x="845" 
d="M721 647v-190h-596v190h596z" />
    <glyph glyph-name="period" unicode="." horiz-adv-x="612" 
d="M467 141q0 -67 -47.5 -113t-114.5 -46q-66 0 -113 46t-47 113q0 66 47 113t113 47t114 -47t48 -113z" />
    <glyph glyph-name="slash" unicode="/" horiz-adv-x="911" 
d="M676 1587h227l-667 -1745h-228z" />
    <glyph glyph-name="zero" unicode="0" horiz-adv-x="1243" 
d="M1141 719q0 -86 -11.5 -169.5t-35.5 -167.5t-65.5 -154.5t-96.5 -126t-134 -86.5t-173 -31q-113 0 -204.5 45t-150 117.5t-97.5 170t-55 196.5t-16 202q0 104 16 203.5t55 197t97.5 170t150 117.5t204.5 45q94 0 173 -30.5t134 -85.5t96.5 -124.5t65.5 -153t35.5 -166.5
t11.5 -169zM883 715q0 59 -4.5 115t-21 126.5t-43 121.5t-75.5 86.5t-114 35.5q-56 0 -100.5 -23.5t-72 -65.5t-47 -90t-29 -106.5t-13 -105t-3.5 -94.5t3.5 -94.5t13 -105t29 -106.5t47 -90t72 -66t100.5 -24q66 0 115.5 35.5t75.5 86.5t42 122t20.5 126.5t4.5 115.5z" />
    <glyph glyph-name="one" unicode="1" horiz-adv-x="821" 
d="M606 1430v-1430h-248v1108l-192 -115l-115 193l369 244h186z" />
    <glyph glyph-name="two" unicode="2" horiz-adv-x="1132" 
d="M1028 244v-244h-901v164q6 105 43.5 198.5t93 161t121 127t129.5 107.5t117 91.5t86 90t33 92.5q0 79 -59 124.5t-140 45.5q-72 0 -130 -50t-95 -124l-217 127q76 145 180.5 219t259.5 74q199 0 328 -111.5t129 -306.5q0 -79 -28 -147.5t-74 -119.5t-103 -97.5t-117 -92
t-113 -91.5t-95.5 -107.5t-59.5 -130.5h612z" />
    <glyph glyph-name="three" unicode="3" horiz-adv-x="1116" 
d="M1014 432q0 -198 -132 -323t-331 -125q-353 0 -465 321l231 96q24 -78 84 -125t142 -47q92 0 155.5 56t63.5 147q0 213 -291 209v201q256 -4 256 186q0 74 -61 122t-138 48q-73 0 -124.5 -42t-77.5 -112l-226 99q121 301 439 301q120 0 219.5 -51.5t159 -147.5t59.5 -217
q0 -84 -37.5 -157t-103.5 -121q79 -46 128.5 -134t49.5 -184z" />
    <glyph glyph-name="four" unicode="4" horiz-adv-x="1138" 
d="M1053 553v-236h-111v-317h-237v317h-639v213l552 900h271l-531 -877h347v401l237 -28v-373h111z" />
    <glyph glyph-name="five" unicode="5" horiz-adv-x="1120" 
d="M1034 502q0 -230 -126 -370t-357 -140q-172 0 -285.5 93.5t-167.5 262.5l236 76q63 -186 217 -186q114 0 173.5 76t59.5 188q0 108 -60 180t-171 72q-64 0 -109.5 -21.5t-91.5 -70.5h-215v768h799v-242h-567v-260q77 57 196 57q220 0 344.5 -133.5t124.5 -349.5z" />
    <glyph glyph-name="six" unicode="6" horiz-adv-x="1124" 
d="M1038 463q0 -215 -125 -347t-340 -132q-110 0 -200 43.5t-148.5 117.5t-90.5 169.5t-32 201.5q0 274 113.5 513t327.5 401h305q-83 -67 -144.5 -124t-125 -128.5t-109.5 -153t-74 -170.5q77 80 203 80q199 0 319.5 -134.5t120.5 -336.5zM786 469q0 97 -60.5 163
t-158.5 66q-92 0 -150.5 -68.5t-58.5 -164.5q0 -91 60.5 -157t152.5 -66t153.5 66.5t61.5 160.5z" />
    <glyph glyph-name="seven" unicode="7" horiz-adv-x="1032" 
d="M967 1430v-213q-213 -277 -308 -561.5t-92 -655.5h-266q0 334 100.5 642.5t288.5 549.5h-409v-119h-215v357h901z" />
    <glyph glyph-name="eight" unicode="8" horiz-adv-x="1128" 
d="M1044 438q0 -206 -136.5 -332t-346.5 -126q-207 0 -341 126t-134 332q0 106 55 196.5t152 149.5q-69 37 -112.5 116.5t-43.5 156.5q0 113 59.5 203.5t156 139t208.5 48.5q114 0 211 -48.5t156 -139t59 -203.5q0 -78 -42 -156.5t-111 -116.5q99 -62 154.5 -150t55.5 -196z
M739 1049q0 72 -52.5 120t-125.5 48q-72 0 -125 -48t-53 -120q0 -74 52.5 -123t125.5 -49q74 0 126 49t52 123zM786 449q0 93 -65.5 156t-159.5 63q-93 0 -157 -64t-64 -158q0 -89 67 -152t156 -63q96 0 159.5 61.5t63.5 156.5z" />
    <glyph glyph-name="nine" unicode="9" horiz-adv-x="1116" 
d="M1022 913q0 -276 -104 -513t-316 -400h-328q67 55 113 94.5t104.5 98t98.5 112t77.5 122.5t59.5 142q-67 -69 -195 -69q-197 0 -322.5 130.5t-125.5 327.5q0 213 127.5 351.5t337.5 138.5q110 0 201 -44t149.5 -118.5t90.5 -170.5t32 -202zM754 977q0 92 -60.5 157.5
t-152.5 65.5q-90 0 -150.5 -67t-60.5 -158q0 -95 60.5 -161t154.5 -66t151.5 67.5t57.5 161.5z" />
    <glyph glyph-name="colon" unicode=":" horiz-adv-x="612" 
d="M467 743q0 -66 -48 -112.5t-114 -46.5t-113 46.5t-47 112.5q0 67 47 114.5t113 47.5t114 -47.5t48 -114.5zM467 139q0 -66 -48 -112.5t-114 -46.5t-113 46.5t-47 112.5q0 67 47 113.5t113 46.5q67 0 114.5 -46.5t47.5 -113.5z" />
    <glyph glyph-name="semicolon" unicode=";" horiz-adv-x="593" 
d="M455 743q0 -66 -47 -112.5t-113 -46.5q-65 0 -111.5 46.5t-46.5 112.5q0 67 46.5 114.5t111.5 47.5q66 0 113 -47.5t47 -114.5zM455 139v-139l-199 -324h-119v463q0 65 47 112.5t111 47.5q66 0 113 -47.5t47 -112.5z" />
    <glyph glyph-name="less" unicode="&#x3c;" horiz-adv-x="1095" 
d="M680 1430h307l-573 -715l573 -715h-307l-576 715z" />
    <glyph glyph-name="equal" unicode="=" horiz-adv-x="1118" 
d="M997 856v-213h-876v213h876zM997 453v-215h-876v215h876z" />
    <glyph glyph-name="greater" unicode="&#x3e;" horiz-adv-x="1095" 
d="M416 1430l575 -715l-575 -715h-310l576 715l-576 715h310z" />
    <glyph glyph-name="question" unicode="?" horiz-adv-x="1095" 
d="M979 1053q0 -60 -16 -109t-46.5 -84.5t-59 -58t-66.5 -45.5q-76 -43 -106 -77.5t-34 -92.5l-12 -191h-184l-5 39q-4 39 -8 86.5t-4 69.5q0 58 12.5 105.5t27.5 76.5t46 57t49 40t56 34q7 5 29.5 18.5t31 19t24.5 19.5t22 25t12 29t6 39q0 81 -56 127.5t-149 46.5
q-57 0 -102 -17t-77.5 -63.5t-33.5 -118.5h-221q1 108 38.5 191t100 131t137.5 72t158 24q189 0 309.5 -103t120.5 -290zM700 131q0 -63 -45 -107t-108 -44q-62 0 -107 44t-45 107t45 107.5t107 44.5q63 0 108 -44.5t45 -107.5z" />
    <glyph glyph-name="at" unicode="@" horiz-adv-x="1533" 
d="M1393 840q0 -54 -19.5 -148.5t-21.5 -128.5l-35 -569l-201 10l6 121q-141 -152 -301 -152q-108 0 -186.5 59.5t-115 149.5t-36.5 195q0 82 24 172t71 173.5t109 151t145 108t172 40.5q93 0 170 -70q-11 76 -41 139.5t-89 107.5t-137 44q-100 0 -194.5 -48t-165 -127
t-124 -176.5t-81 -201t-27.5 -196.5q0 -218 129 -353l-104 -151q-109 92 -163 225.5t-54 284.5q0 123 37 255t107.5 253t164 217t216 153.5t253.5 57.5q119 0 215 -50.5t155.5 -135t90.5 -190t31 -220.5zM1139 616q0 47 -11.5 93t-44 84t-79.5 38q-67 0 -128.5 -48
t-101.5 -118.5t-64 -147.5t-24 -138q0 -33 6.5 -67.5t20.5 -68.5t41 -55.5t63 -21.5q67 0 129 48t103 118t65.5 146.5t24.5 137.5z" />
    <glyph glyph-name="A" unicode="A" horiz-adv-x="1341" 
d="M784 1430l553 -1430h-278l-137 373h-504l-135 -373h-279l549 1430h231zM502 598h338l-170 461z" />
    <glyph glyph-name="B" unicode="B" horiz-adv-x="1284" 
d="M1202 428q0 -114 -38.5 -198.5t-108.5 -133.5t-159 -72.5t-200 -23.5h-551v1430h517q84 0 155.5 -14t134 -45.5t106 -79t68.5 -117.5t25 -158q0 -76 -31 -146.5t-92 -119.5q87 -50 130.5 -136t43.5 -186zM899 1014q0 44 -13 75.5t-33 50t-52 29t-63 14t-72 3.5h-263v-348
h265q52 0 89.5 7t72 24.5t52 54t17.5 90.5zM944 426q0 58 -19.5 96t-56.5 56.5t-77 25t-95 6.5h-293v-366h293q56 0 95 6.5t77 24.5t57 55.5t19 95.5z" />
    <glyph glyph-name="C" unicode="C" horiz-adv-x="1249" 
d="M1012 414l182 -174q-62 -73 -109 -117t-105.5 -78.5t-126 -48.5t-157.5 -14q-124 0 -226 39.5t-173 108t-119.5 162t-71 200t-22.5 223.5q0 118 22.5 224.5t71 200t119 161.5t173 107.5t226.5 39.5q160 0 272.5 -57t217.5 -185l-182 -178q-73 83 -142 124.5t-166 41.5
q-78 0 -140 -29t-100.5 -75.5t-64 -110.5t-35.5 -129t-10 -135t10 -135t35.5 -129t64 -110.5t100.5 -75.5t140 -29q100 0 172 44.5t144 133.5z" />
    <glyph glyph-name="D" unicode="D" horiz-adv-x="1323" 
d="M1219 715q0 -138 -11 -236.5t-39.5 -182.5t-75.5 -137t-122.5 -90.5t-178 -53t-243.5 -15.5h-404v1430h404q141 0 243.5 -15.5t178 -52.5t122.5 -90t75.5 -137t39.5 -182.5t11 -237.5zM961 713q0 154 -9.5 235t-36.5 125q-34 57 -106 80t-203 23h-203v-922h203
q132 0 205 23.5t107 82.5q25 44 34 120.5t9 232.5z" />
    <glyph glyph-name="E" unicode="E" horiz-adv-x="1214" 
d="M1112 254v-254h-967v1430h967v-254h-709v-320h619v-242h-619v-360h709z" />
    <glyph glyph-name="F" unicode="F" horiz-adv-x="1175" 
d="M1094 1430v-254h-693v-320h617v-242h-617v-614h-256v1430h949z" />
    <glyph glyph-name="G" unicode="G" horiz-adv-x="1294" 
d="M659 788h527v-788h-217v133q-53 -82 -126.5 -115.5t-174.5 -33.5q-123 0 -223 40.5t-166 108.5t-111 162.5t-64.5 199t-19.5 220.5q0 117 20.5 222t66 199t113 162t168 108t224.5 40q161 0 269.5 -62.5t213.5 -199.5l-180 -164q-45 58 -84.5 93t-95 57t-123.5 22
q-334 0 -334 -477t334 -477q69 0 120 27t80 74.5t42.5 104t13.5 123.5h-273v221z" />
    <glyph glyph-name="H" unicode="H" horiz-adv-x="1372" 
d="M1229 1430v-1430h-258v614h-568v-614h-258v1430h258v-574h568v574h258z" />
    <glyph glyph-name="I" unicode="I" horiz-adv-x="561" 
d="M410 1430v-1430h-258v1430h258z" />
    <glyph glyph-name="J" unicode="J" horiz-adv-x="1148" 
d="M1006 1430v-975q0 -229 -124.5 -349t-357.5 -120q-201 0 -316.5 98.5t-162.5 288.5l246 67q55 -204 231 -204q121 0 174.5 55.5t53.5 171.5v967h256z" />
    <glyph glyph-name="K" unicode="K" horiz-adv-x="1265" 
d="M1190 1430l-479 -707l532 -723h-305l-506 721l473 709h285zM403 0h-258v1430h258v-1430z" />
    <glyph glyph-name="L" unicode="L" horiz-adv-x="1110" 
d="M1028 248v-248h-883v1430h256v-1182h627z" />
    <glyph glyph-name="M" unicode="M" horiz-adv-x="1550" 
d="M1423 1430v-1430h-260v768l-305 -768h-168l-303 766v-766h-260v1430h248l399 -1018l406 1018h243z" />
    <glyph glyph-name="N" unicode="N" horiz-adv-x="1327" 
d="M1182 1430v-1430h-211l-568 895v-895h-258v1430h213l568 -895v895h256z" />
    <glyph glyph-name="O" unicode="O" horiz-adv-x="1351" 
d="M1268 715q0 -117 -20 -221.5t-65 -199t-112.5 -162.5t-168.5 -108t-226 -40t-226 40t-168.5 108t-112.5 162.5t-65 199t-20 221.5t20 221.5t65 199t112.5 162.5t168.5 108t226 40t226 -39.5t168.5 -107.5t112.5 -162.5t65 -199t20 -222.5zM1008 715q0 74 -7 136
t-28.5 127.5t-57 110.5t-96.5 74t-143 29q-334 0 -334 -477t334 -477q332 0 332 477z" />
    <glyph glyph-name="P" unicode="P" horiz-adv-x="1261" 
d="M1182 1001q0 -225 -122.5 -326.5t-352.5 -101.5h-304v-573h-258v1430h553q108 0 194.5 -25t152.5 -75.5t101.5 -134t35.5 -194.5zM924 1001q0 55 -18 92.5t-52 56.5t-73 26.5t-91 7.5h-287v-367h287q53 0 91.5 7t73 26t52 57t17.5 94z" />
    <glyph glyph-name="Q" unicode="Q" horiz-adv-x="1363" 
d="M1268 715q0 -147 -23.5 -262t-91.5 -215l188 -238h-309l-55 68q-131 -84 -301 -84q-122 0 -222.5 41t-168 110t-113.5 163.5t-67 198.5t-21 218q0 119 21 225t67 199.5t114 161t167.5 106.5t222.5 39q126 0 227.5 -41t168.5 -110t112 -164t64.5 -198t19.5 -218zM1010 715
q0 72 -7.5 134.5t-30 127.5t-58 110t-96 74t-140.5 29q-336 0 -336 -471q0 -67 9 -129t32.5 -124.5t59.5 -108.5t94.5 -74.5t132.5 -28.5q53 0 106 29q-54 48 -125 57v201q97 -11 166 -35.5t144 -77.5q49 100 49 287z" />
    <glyph glyph-name="R" unicode="R" horiz-adv-x="1277" 
d="M1151 1004q0 -139 -80.5 -242.5t-220.5 -143.5q32 -23 70 -88l335 -530h-299l-290 485q-36 62 -66 84.5t-94 22.5h-103v-592h-258v1430h517q106 0 193.5 -25.5t154.5 -76t104 -133.5t37 -191zM893 1004q0 52 -17.5 88.5t-50.5 55.5t-71.5 26.5t-89.5 7.5h-261v-363h261
q52 0 91 8t71.5 28t49.5 57.5t17 91.5z" />
    <glyph glyph-name="S" unicode="S" horiz-adv-x="1257" 
d="M1182 430q0 -85 -29.5 -158.5t-80 -126t-118 -90.5t-144.5 -56.5t-157 -18.5q-467 0 -573 421l244 48q60 -224 329 -224q65 0 124.5 20.5t103 69t43.5 115.5q0 47 -27.5 81.5t-73.5 56t-105.5 38.5t-125.5 32.5t-132.5 34.5t-126 49t-105.5 70.5t-73.5 105t-27.5 146.5
q0 79 27 145.5t74 113t109 79.5t131.5 48.5t143.5 15.5q191 0 317.5 -76t209.5 -242l-224 -102q-51 96 -121 138t-182 42q-37 0 -74.5 -8.5t-73 -26.5t-57.5 -51t-22 -76q0 -40 27.5 -69.5t73.5 -48.5t105.5 -35t126 -33t132.5 -37.5t125.5 -53.5t105.5 -76t73.5 -110
t27.5 -151z" />
    <glyph glyph-name="T" unicode="T" horiz-adv-x="1200" 
d="M1141 1430v-254h-412v-1176h-258v1176h-412v254h1082z" />
    <glyph glyph-name="U" unicode="U" horiz-adv-x="1335" 
d="M1208 1430v-836q0 -610 -540 -610q-144 0 -249 43.5t-168.5 125.5t-93.5 191.5t-30 249.5v836h256v-824q0 -65 6 -115.5t24.5 -101t49.5 -83t83 -53t122 -20.5q72 0 124.5 20t83 51.5t48 82.5t23 101t5.5 118v824h256z" />
    <glyph glyph-name="V" unicode="V" horiz-adv-x="1257" 
d="M965 1430h270l-483 -1430h-246l-481 1430h270l334 -1041z" />
    <glyph glyph-name="W" unicode="W" horiz-adv-x="1759" 
d="M1468 1430h265l-334 -1430h-285l-233 932l-236 -932h-285l-333 1430h264l221 -1006l264 1006h209l262 -1006z" />
    <glyph glyph-name="X" unicode="X" horiz-adv-x="1323" 
d="M809 735l485 -735h-307l-325 518l-328 -518h-305l485 735l-461 695h309l300 -478l301 478h305z" />
    <glyph glyph-name="Y" unicode="Y" horiz-adv-x="1259" 
d="M946 1430h287l-473 -959v-471h-258v475l-475 955h288l318 -666z" />
    <glyph glyph-name="Z" unicode="Z" horiz-adv-x="1224" 
d="M1120 254v-254h-1036v190l672 988h-621v252h971v-197l-666 -979h680z" />
    <glyph glyph-name="bracketleft" unicode="[" horiz-adv-x="671" 
d="M569 6v-160h-407v1737h407v-160h-192v-1417h192z" />
    <glyph glyph-name="backslash" unicode="\" horiz-adv-x="911" 
d="M236 1587l667 -1745h-227l-668 1745h228z" />
    <glyph glyph-name="bracketright" unicode="]" horiz-adv-x="671" 
d="M516 1583v-1737h-407v160h192v1417h-192v160h407z" />
    <glyph glyph-name="asciicircum" unicode="^" horiz-adv-x="1142" 
d="M662 1444l393 -604l-189 -99l-295 457l-295 -457l-188 99l395 604h179z" />
    <glyph glyph-name="underscore" unicode="_" horiz-adv-x="1067" 
d="M1024 0v-201h-981v201h981z" />
    <glyph glyph-name="grave" unicode="`" horiz-adv-x="688" 
d="M383 1427l174 -329h-170l-256 329h252z" />
    <glyph glyph-name="a" unicode="a" horiz-adv-x="997" 
d="M879 184l39 -153l-209 -54l-23 76q-102 -80 -242 -80q-155 0 -261.5 87t-106.5 239q0 141 90.5 223.5t269.5 91.5h154q45 3 61 31v43q0 52 -41 83.5t-98 31.5q-144 0 -190 -107l-209 72q43 129 146.5 190.5t252.5 61.5q91 0 174.5 -37t138 -110t54.5 -164v-525zM651 256
v201q-37 -19 -69 -19h-125q-70 -2 -116 -36t-46 -103q0 -57 49 -89t107 -32q110 0 200 78z" />
    <glyph glyph-name="b" unicode="b" horiz-adv-x="1042" 
d="M969 506q0 -88 -13.5 -163.5t-45 -143.5t-79 -115.5t-120.5 -75.5t-166 -28q-58 0 -115.5 21.5t-87.5 61.5l-10 -63h-197v1430h244v-465q71 59 186 59q108 0 188.5 -42t126.5 -116t67.5 -163.5t21.5 -196.5zM723 504q0 46 -2 78.5t-12.5 74.5t-28.5 68t-52.5 44.5
t-82.5 18.5q-74 0 -120 -40.5t-46 -112.5v-262q0 -73 46.5 -113.5t119.5 -40.5q48 0 82.5 18.5t52.5 44.5t28.5 68.5t12.5 75t2 78.5z" />
    <glyph glyph-name="c" unicode="c" horiz-adv-x="997" 
d="M938 827l-176 -161q-51 59 -100.5 92t-112.5 33q-225 0 -225 -289q0 -59 10.5 -107.5t34.5 -91t70 -66.5t110 -24q62 0 110.5 33t102.5 92l176 -162q-98 -103 -182 -148.5t-207 -45.5q-221 0 -347 147.5t-126 372.5q0 147 53.5 264t162.5 187.5t257 70.5q122 0 209 -48
t180 -149z" />
    <glyph glyph-name="d" unicode="d" horiz-adv-x="1052" 
d="M954 35l-213 -64l-22 76q-86 -67 -219 -67q-93 0 -166 28t-120.5 75.5t-79 115.5t-45 143.5t-13.5 163.5q0 87 14 162t45.5 142t79.5 114t121 74.5t164 27.5q99 0 166 -59v463h245v-1242q0 -3 21 -75t22 -78zM666 373v264q0 69 -46.5 110t-117.5 41q-42 0 -73.5 -11.5
t-50.5 -34.5t-31.5 -48t-18 -61t-7.5 -63.5t-2 -65.5t2 -66t7.5 -64t18 -61t31.5 -48t50.5 -34.5t73.5 -11.5q70 0 117 42t47 112z" />
    <glyph glyph-name="e" unicode="e" horiz-adv-x="1009" 
d="M936 530v-84h-608q6 -108 62 -172.5t161 -64.5q125 0 217 96l154 -147q-86 -88 -174.5 -132t-196.5 -44q-150 0 -259 69.5t-162.5 185.5t-53.5 265q0 87 18 165t56 143.5t92.5 113t130 74t166.5 26.5q186 0 291.5 -136.5t105.5 -357.5zM330 602h379q-21 195 -181 195
q-171 0 -198 -195z" />
    <glyph glyph-name="f" unicode="f" horiz-adv-x="661" 
d="M604 1430v-199q-97 -2 -137.5 -37t-40.5 -133v-53h156v-207h-156v-801h-238v801h-86v207h86v116q0 57 11 102t29 76.5t48 54t62 36.5t78 22t88.5 11t99.5 4z" />
    <glyph glyph-name="g" unicode="g" 
d="M874 653q0 -171 -107.5 -265.5t-285.5 -94.5q-55 0 -108 20q-51 -38 -51 -86q0 -37 49 -37q55 0 161 25t160 25q114 0 188 -69t74 -181q0 -90 -41 -165.5t-108.5 -124.5t-150.5 -76t-169 -27q-78 0 -150 16.5t-135 51t-101 96.5t-38 143q0 50 17 94l215 -64
q-2 -10 -2 -26q0 -43 51.5 -67.5t118.5 -24.5q61 0 119.5 17.5t101.5 56.5t43 90q0 30 -22.5 46.5t-53.5 16.5q-44 0 -128.5 -16.5t-127.5 -16.5q-49 0 -94.5 11t-85.5 32.5t-64 61t-24 90.5q0 99 78 184q-99 99 -99 264q0 178 102 274.5t283 96.5q143 0 232 -57
q24 31 24 82h203q-4 -176 -98 -238q24 -85 24 -158zM641 653q0 70 -41 107t-111 37t-111.5 -37t-41.5 -107q0 -145 153 -145q152 0 152 145z" />
    <glyph glyph-name="h" unicode="h" horiz-adv-x="1064" 
d="M969 561v-561h-246v561q0 223 -178 223q-61 0 -113.5 -44t-52.5 -109v-631h-244v1430h244v-478q66 74 199 74q100 0 176 -35t122.5 -98t69.5 -146.5t23 -185.5z" />
    <glyph glyph-name="i" unicode="i" horiz-adv-x="522" 
d="M406 1335q0 -60 -42.5 -102.5t-103.5 -42.5q-59 0 -101 42.5t-42 102.5t42 102t101 42q61 0 103.5 -42t42.5 -102zM379 1008v-1008h-240v1008h240z" />
    <glyph glyph-name="j" unicode="j" horiz-adv-x="538" 
d="M422 1335q0 -60 -43 -102.5t-103 -42.5q-59 0 -101 42.5t-42 102.5t42 102t101 42q60 0 103 -42t43 -102zM393 1008v-1071q0 -158 -85 -255t-245 -116l-73 207q168 31 168 186v1049h235z" />
    <glyph glyph-name="k" unicode="k" horiz-adv-x="976" 
d="M621 555l358 -555h-264l-342 553l286 455h256zM362 1430v-1430h-235v1430h235z" />
    <glyph glyph-name="l" unicode="l" horiz-adv-x="509" 
d="M438 207v-207q-158 2 -234.5 64t-76.5 215v1151h231v-1147q0 -38 18.5 -56.5t61.5 -19.5z" />
    <glyph glyph-name="m" unicode="m" horiz-adv-x="1617" 
d="M1503 567v-567h-246v567q0 50 -5.5 84.5t-22 67.5t-50 50t-85.5 17q-42 0 -72 -17t-45.5 -40.5t-24.5 -62.5t-10.5 -67.5t-1.5 -70.5v-528h-246v567q0 49 -6 84.5t-22.5 68t-50.5 49.5t-85 17q-64 0 -106.5 -43.5t-42.5 -107.5v-635h-246v1008h203l8 -62q82 82 186 82
q97 0 162.5 -27t134.5 -96q58 65 119.5 94t145.5 29q205 0 307 -125t102 -336z" />
    <glyph glyph-name="n" unicode="n" horiz-adv-x="1083" 
d="M969 567v-567h-246v563q0 107 -38 165t-140 58q-71 0 -118.5 -49t-47.5 -116v-621h-244v1008h201l8 -62q37 38 96 60t115 22q414 0 414 -461z" />
    <glyph glyph-name="o" unicode="o" horiz-adv-x="1052" 
d="M977 502q0 -115 -25.5 -208t-78 -164.5t-141 -110.5t-206.5 -39t-206.5 39t-140.5 110.5t-77.5 164.5t-25.5 208t25.5 208t77.5 164.5t140.5 110.5t206.5 39t206.5 -39t141 -110.5t78 -164.5t25.5 -208zM729 502q0 47 -4 84.5t-17.5 76.5t-35 65.5t-59 43t-87.5 16.5
q-51 0 -88.5 -17t-59 -43t-34 -65t-16.5 -76.5t-4 -84.5q0 -48 4 -85t16.5 -76.5t34 -65t59 -42t88.5 -16.5q62 0 104.5 23.5t63 66.5t28 89t7.5 106z" />
    <glyph glyph-name="p" unicode="p" horiz-adv-x="1042" 
d="M969 498q0 -88 -14 -163.5t-45.5 -142t-79.5 -113.5t-121 -74.5t-164 -27.5q-99 0 -166 62v-490h-244v1459h201l8 -62q40 40 94 61t109 21q92 0 164.5 -28.5t120 -77.5t79 -117.5t45 -144t13.5 -162.5zM723 498q0 45 -2 77.5t-12.5 74t-28.5 67.5t-52.5 44.5t-82.5 18.5
q-71 0 -118.5 -43t-47.5 -110v-258q0 -68 46.5 -111t119.5 -43q41 0 71.5 11.5t49.5 34.5t31 48t17.5 61t7 63t1.5 65z" />
    <glyph glyph-name="q" unicode="q" horiz-adv-x="1040" 
d="M735 1022l215 -59l-41 -152v-1262h-243v488q-74 -60 -166 -60q-113 0 -197.5 41.5t-133.5 115.5t-72 165t-23 201q0 86 14 161.5t46 143.5t80.5 117t121.5 77.5t164 28.5q114 0 217 -80zM666 367v260q0 69 -47.5 111t-116.5 42q-42 0 -73.5 -11.5t-50.5 -34t-31.5 -47
t-18 -60.5t-7.5 -63.5t-2 -65.5q0 -33 1 -57t5 -55.5t11.5 -54t21.5 -46.5t32.5 -38.5t47 -24t64.5 -9.5q70 0 117 43.5t47 110.5z" />
    <glyph glyph-name="r" unicode="r" horiz-adv-x="819" 
d="M764 961l-92 -191q-71 29 -121 29q-78 0 -125 -45t-47 -117v-637h-244v1008h199l10 -64q12 24 74.5 56t132.5 32q107 0 213 -71z" />
    <glyph glyph-name="s" unicode="s" horiz-adv-x="954" 
d="M889 303q0 -78 -34.5 -141t-91 -102t-126 -59.5t-143.5 -20.5q-354 0 -416 274l213 55q40 -110 198 -110q35 0 67.5 6.5t61.5 29t29 58.5q0 40 -41.5 68t-103 43t-134 38.5t-134 52.5t-103 88t-41.5 142q0 100 52.5 170t133 100.5t179.5 30.5q140 0 226 -43t157 -154
l-187 -104q-66 88 -174 88q-22 0 -44 -3.5t-45 -12.5t-37.5 -27.5t-14.5 -44.5q0 -30 30.5 -51.5t79.5 -35t107.5 -27.5t117.5 -36t108 -54t79.5 -87.5t30.5 -130.5z" />
    <glyph glyph-name="t" unicode="t" horiz-adv-x="657" 
d="M565 1008v-207h-137v-504q0 -46 23.5 -68t76.5 -22v-207h-94q-119 0 -181.5 77t-62.5 199v525h-120v207h120v274h238v-274h137z" />
    <glyph glyph-name="u" unicode="u" horiz-adv-x="1081" 
d="M948 1008v-1008h-200l-11 59q-92 -77 -205 -77q-209 0 -313 114.5t-104 325.5v586h243v-572q0 -51 7.5 -88t26.5 -67.5t55.5 -46t91.5 -15.5q68 0 115.5 44.5t47.5 113.5v631h246z" />
    <glyph glyph-name="v" unicode="v" horiz-adv-x="1040" 
d="M743 1008h265l-387 -1008h-203l-383 1008h262l217 -662z" />
    <glyph glyph-name="w" unicode="w" horiz-adv-x="1568" 
d="M1272 1008h262l-332 -1008h-207l-213 586l-213 -586h-207l-329 1008h264l174 -635l219 635h182l215 -637z" />
    <glyph glyph-name="x" unicode="x" horiz-adv-x="1040" 
d="M662 514l360 -514h-299l-201 317l-205 -317h-299l363 514l-344 494h297l188 -289l185 289h299z" />
    <glyph glyph-name="y" unicode="y" horiz-adv-x="1050" 
d="M754 1008h262l-461 -1237q-26 -72 -63.5 -118.5t-89 -69.5t-102.5 -30.5t-126 -7.5h-43v209h37q83 0 116 18t54 72l57 154l-360 1010h262l223 -705z" />
    <glyph glyph-name="z" unicode="z" horiz-adv-x="1011" 
d="M901 233v-233h-811v188l475 584h-448v236h784v-185l-477 -590h477z" />
    <glyph glyph-name="braceleft" unicode="{" horiz-adv-x="776" 
d="M102 813q52 -1 82 10.5t48.5 47t25 91.5t6.5 154q0 93 8.5 159t34.5 127.5t70.5 98.5t118.5 59t178 21v-195q-49 0 -82 -11t-60 -40.5t-40 -86.5t-13 -144q0 -161 -31.5 -251t-125.5 -138q94 -48 125.5 -138t31.5 -251q0 -87 13 -144t40 -87t60 -41t82 -11v-195
q-104 -1 -178 21t-118.5 59t-70.5 98.5t-34.5 127.5t-8.5 159q0 98 -6.5 154t-25 91.5t-48.5 47t-82 10.5v197z" />
    <glyph glyph-name="bar" unicode="|" horiz-adv-x="626" 
d="M424 1587v-1745h-221v1745h221z" />
    <glyph glyph-name="braceright" unicode="}" horiz-adv-x="776" 
d="M674 813v-197q-52 1 -81.5 -10.5t-48 -47t-24.5 -91.5t-6 -154q0 -93 -8.5 -159t-34.5 -127.5t-71 -98.5t-119.5 -59t-178.5 -21v195q49 0 82 11t60 41t40 87t13 144q0 159 32 250t126 139q-94 48 -126 139t-32 250q0 87 -13 144t-40 86.5t-60 40.5t-82 11v195
q104 1 178.5 -21t119.5 -59t71 -98.5t34.5 -127.5t8.5 -159q0 -98 6 -154t24.5 -91.5t48 -47t81.5 -10.5z" />
    <glyph glyph-name="asciitilde" unicode="~" horiz-adv-x="1046" 
d="M813 737l148 -119q-70 -87 -129 -129.5t-148 -42.5q-47 0 -90 18.5t-71.5 41t-70 41t-85.5 18.5q-73 0 -140 -96l-141 125q57 84 122 124t159 40q49 0 92.5 -18t70 -39.5t66.5 -39.5t84 -18q77 0 133 94z" />
    <glyph glyph-name="nbspace" unicode="&#xa0;" horiz-adv-x="303" 
 />
    <glyph glyph-name="exclamdown" unicode="&#xa1;" horiz-adv-x="729" 
d="M487 850q0 -65 -46.5 -111.5t-110.5 -46.5t-111 47t-47 111t47 111t111 47t110.5 -46.5t46.5 -111.5zM438 569l15 -407v-604h-248v604l14 407h219z" />
    <glyph glyph-name="cent" unicode="&#xa2;" horiz-adv-x="1110" 
d="M831 338l177 -162q-100 -102 -184.5 -148t-205.5 -46q-9 0 -45 4l-28 -142l-137 27l28 143q-141 57 -216 187.5t-75 300.5q0 110 32 204.5t92 165t154 110t212 38.5l27 137l139 -29l-25 -133q113 -42 232 -168l-177 -161q-50 57 -104 86l-106 -533h38q49 11 87.5 40.5
t84.5 78.5zM483 256l107 532q-197 -22 -197 -286q0 -175 90 -246z" />
    <glyph glyph-name="sterling" unicode="&#xa3;" horiz-adv-x="1148" 
d="M1055 233v-233h-924v178q71 81 108 152.5t37 152.5q0 53 -12 109h-182l49 231h86q-33 109 -33 189q0 190 118 313t314 123q60 0 108 -10t82 -24.5t70.5 -43t61.5 -54.5t65 -70q11 -13 17 -19l-182 -152q-60 73 -89 96q-57 46 -133 46q-92 0 -139 -61.5t-47 -156.5
q0 -67 23 -176h272l-49 -231h-178q14 -82 14 -137q0 -121 -59 -222h602z" />
    <glyph glyph-name="currency" unicode="&#xa4;" horiz-adv-x="1452" 
d="M1157 403l180 -178q-116 -135 -216.5 -189t-266.5 -54q-227 0 -379 130t-207 355h-166l37 178h103q-4 90 -2 129h-138l37 176h127q53 230 203 364t383 134q155 0 265 -54t210 -173l-178 -181q-70 77 -137.5 115.5t-159.5 38.5q-117 0 -194.5 -64.5t-114.5 -179.5h397
l-37 -176h-397q-7 -87 0 -129h434l-37 -178h-360q39 -109 117.5 -170t191.5 -61q96 0 166 42.5t139 124.5z" />
    <glyph glyph-name="yen" unicode="&#xa5;" horiz-adv-x="1183" 
d="M942 1430h236l-310 -623h152l-43 -182h-199l-37 -76h279l-43 -187h-277v-362h-213v362h-321l41 187h242l-37 76h-246l41 182h112l-309 623h238l348 -715z" />
    <glyph glyph-name="brokenbar" unicode="&#xa6;" horiz-adv-x="737" 
d="M465 1581v-803h-180v803h180zM465 653v-803h-180v803h180z" />
    <glyph glyph-name="section" unicode="&#xa7;" horiz-adv-x="1226" 
d="M1110 477q0 -137 -119 -256q80 -89 80 -229q0 -118 -62 -207.5t-161 -134.5t-215 -45q-171 0 -283.5 75t-183.5 234l201 102q46 -94 106.5 -140t159.5 -46q80 0 140.5 43.5t60.5 118.5q0 24 -8 44t-26.5 36t-36 27t-51 23t-55 18.5t-63.5 17.5q-85 22 -131.5 36.5
t-120.5 49.5t-113.5 75t-70.5 108.5t-31 154.5q0 135 119 254q-80 89 -80 229q0 118 62 207.5t161 134.5t215 45q171 0 283.5 -74.5t183.5 -232.5l-201 -105q-46 94 -106.5 140.5t-159.5 46.5q-79 0 -140 -43.5t-61 -118.5q0 -35 17.5 -61.5t55 -45.5t71.5 -30.5t92 -26.5
q176 -46 254 -85q193 -95 214 -287q3 -25 3 -52zM868 477q0 42 -25.5 76.5t-73 59t-93 39.5t-105.5 30q-63 14 -141 39q-61 -52 -61 -139q0 -43 26 -78t74 -59.5t93 -39.5t106 -30q82 -18 141 -39q59 56 59 141z" />
    <glyph glyph-name="dieresis" unicode="&#xa8;" horiz-adv-x="974" 
d="M834 1241q0 -57 -40.5 -97t-97.5 -40q-58 0 -98.5 40t-40.5 97q0 59 40.5 99t98.5 40q57 0 97.5 -40.5t40.5 -98.5zM418 1241q0 -57 -40 -97t-97 -40t-97.5 40t-40.5 97q0 58 40.5 98.5t97.5 40.5t97 -40.5t40 -98.5z" />
    <glyph glyph-name="copyright" unicode="&#xa9;" horiz-adv-x="1648" 
d="M1548 715q0 -196 -97 -363t-263.5 -264.5t-362.5 -97.5t-363 97.5t-264.5 264.5t-97.5 363t97.5 362.5t264.5 263.5t363 97t362.5 -97t263.5 -263.5t97 -362.5zM1368 715q0 148 -72.5 273t-197.5 197t-273 72q-111 0 -211.5 -42.5t-173.5 -115t-116 -173t-43 -211.5
q0 -147 72.5 -272.5t198 -199t273.5 -73.5t273 73.5t197.5 199t72.5 272.5zM997 553l103 -100q-66 -77 -122.5 -108.5t-148.5 -31.5q-111 0 -188.5 57.5t-112 146t-34.5 198.5q0 81 20 152t59.5 127.5t104.5 89t149 32.5q86 0 147 -31t120 -100l-103 -100q-38 44 -75.5 66
t-88.5 22q-42 0 -75 -16t-53.5 -41t-34 -59.5t-18.5 -69.5t-5 -72q0 -48 9 -91t29 -82t58 -62t90 -23q54 0 92 24t78 72z" />
    <glyph glyph-name="ordfeminine" unicode="&#xaa;" horiz-adv-x="882" 
d="M748 770l32 -104l-172 -52l-16 45q-91 -49 -193 -49q-127 0 -213 69t-86 191q0 113 74 179.5t217 72.5q29 2 113 2q51 0 57 6v50q0 42 -32 66t-76 24q-114 0 -154 -86l-170 51q80 213 324 213q114 0 204.5 -70t90.5 -180v-428zM621 535v-152h-351v152h351zM561 850v139
q-31 -8 -61 -8q-74 0 -99 -4q-122 -12 -122 -94q0 -44 38.5 -68t85.5 -24q87 0 158 59z" />
    <glyph glyph-name="guillemotleft" unicode="&#xab;" horiz-adv-x="1110" 
d="M119 446v129l467 443v-258l-271 -248l271 -250v-260zM524 446v129l465 443v-258l-270 -248l270 -250v-260z" />
    <glyph glyph-name="logicalnot" unicode="&#xac;" horiz-adv-x="1120" 
d="M1014 625v-463h-185v276h-725v187h910z" />
    <glyph glyph-name="uni00AD" unicode="&#xad;" horiz-adv-x="845" 
d="M721 647v-190h-596v190h596z" />
    <glyph glyph-name="registered" unicode="&#xae;" horiz-adv-x="1648" 
d="M1548 715q0 -196 -97 -363t-263.5 -264.5t-362.5 -97.5t-363 97.5t-264.5 264.5t-97.5 363t97.5 362.5t264.5 263.5t363 97t362.5 -97t263.5 -263.5t97 -362.5zM1368 715q0 148 -72.5 273t-197.5 197t-273 72q-111 0 -211.5 -42.5t-173.5 -115t-116 -173t-43 -211.5
q0 -147 72.5 -272.5t198 -199t273.5 -73.5t273 73.5t197.5 199t72.5 272.5zM1153 332h-174l-145 256q-18 34 -34.5 45.5t-51.5 11.5h-54v-313h-141v766h278q119 0 192 -57.5t73 -172.5q0 -74 -38.5 -129.5t-111.5 -76.5q2 -2 46 -72.5t99.5 -159.5t61.5 -98zM954 866
q0 95 -120 95h-142v-191h142q56 0 88 21t32 75z" />
    <glyph glyph-name="macron" unicode="&#xaf;" horiz-adv-x="1101" 
d="M883 1327v-164h-662v164h662z" />
    <glyph glyph-name="degree" unicode="&#xb0;" horiz-adv-x="735" 
d="M592 1354q0 -94 -65.5 -160t-159.5 -66q-92 0 -158 66t-66 160q0 92 66 158.5t158 66.5q93 0 159 -66t66 -159zM459 1354q0 37 -27 63.5t-65 26.5q-37 0 -64 -26.5t-27 -63.5q0 -38 27 -65t64 -27q38 0 65 27t27 65z" />
    <glyph glyph-name="plusminus" unicode="&#xb1;" horiz-adv-x="1122" 
d="M999 805v-199h-335v-334h-201v334h-338v199h338v334h201v-334h335zM999 197v-197h-874v197h874z" />
    <glyph glyph-name="twosuperior" unicode="&#xb2;" horiz-adv-x="720" 
d="M653 688v-156h-573v105q4 67 27.5 126t58.5 102t76.5 80.5t82.5 68.5t74.5 58.5t54.5 57t21 58.5q0 50 -38 79t-89 29q-45 0 -81 -32t-60 -78l-137 80q48 92 114.5 139t163.5 47q127 0 209 -70.5t82 -193.5q0 -50 -18 -94t-47 -76.5t-65 -62.5t-74.5 -58.5t-72 -58
t-60.5 -68.5t-38 -82h389z" />
    <glyph glyph-name="threesuperior" unicode="&#xb3;" horiz-adv-x="708" 
d="M643 807q0 -126 -83.5 -205.5t-209.5 -79.5q-224 0 -297 203l148 63q15 -50 53 -80t90 -30q60 0 99.5 35.5t39.5 93.5q0 76 -50 104.5t-134 28.5v127q162 -4 162 119q0 47 -38 77.5t-87 30.5q-47 0 -80 -27t-49 -71l-144 64q78 190 279 190q117 0 198 -74t81 -190
q0 -53 -24.5 -100t-66.5 -78q50 -30 81.5 -85t31.5 -116z" />
    <glyph glyph-name="acute" unicode="&#xb4;" horiz-adv-x="681" 
d="M303 1427h250l-252 -329h-174z" />
    <glyph glyph-name="mu" unicode="&#xb5;" horiz-adv-x="1210" 
d="M1012 1008v-1010h-211v51q-79 -65 -197 -65q-134 0 -211 71v-448h-209v1401h209v-568q0 -127 44 -190.5t167 -63.5q80 0 138.5 48.5t58.5 127.5v646h211z" />
    <glyph glyph-name="mu" unicode="&#x3bc;" horiz-adv-x="1210" 
d="M1012 1008v-1010h-211v51q-79 -65 -197 -65q-134 0 -211 71v-448h-209v1401h209v-568q0 -127 44 -190.5t167 -63.5q80 0 138.5 48.5t58.5 127.5v646h211z" />
    <glyph glyph-name="paragraph" unicode="&#xb6;" horiz-adv-x="1212" 
d="M1016 1430v-1735h-215v1526h-103v-1526h-217v885q-159 22 -264.5 140.5t-105.5 278.5q0 177 126 304t304 127h475z" />
    <glyph glyph-name="periodcentered" unicode="&#xb7;" horiz-adv-x="624" 
d="M479 543q0 -68 -49.5 -117t-118.5 -49q-67 0 -115.5 49t-48.5 117q0 69 48 117.5t116 48.5q69 0 118.5 -48.5t49.5 -117.5z" />
    <glyph glyph-name="periodcentered" unicode="&#x2219;" horiz-adv-x="624" 
d="M479 543q0 -68 -49.5 -117t-118.5 -49q-67 0 -115.5 49t-48.5 117q0 69 48 117.5t116 48.5q69 0 118.5 -48.5t49.5 -117.5z" />
    <glyph glyph-name="cedilla" unicode="&#xb8;" horiz-adv-x="1095" 
d="M631 70l71 -211l-139 -267h-219l197 277l-60 149z" />
    <glyph glyph-name="onesuperior" unicode="&#xb9;" horiz-adv-x="522" 
d="M385 1440v-908h-158v705l-123 -76l-71 125l233 154h119z" />
    <glyph glyph-name="ordmasculine" unicode="&#xba;" horiz-adv-x="925" 
d="M825 1028q0 -93 -20 -168t-62 -132.5t-113 -88.5t-167 -31q-185 0 -274 114t-89 306q0 92 21 166.5t63.5 131.5t113.5 88.5t165 31.5q95 0 166 -31.5t113 -89t62.5 -131.5t20.5 -166zM643 535v-152h-348v152h348zM625 1026q0 48 -6 84.5t-22 71.5t-50 54t-84 19
t-83.5 -19t-50 -54t-22.5 -71.5t-6 -84.5q0 -47 6.5 -83.5t23 -70.5t50 -52.5t82.5 -18.5q51 0 84.5 18.5t49.5 53t22 70t6 83.5z" />
    <glyph glyph-name="guillemotright" unicode="&#xbb;" horiz-adv-x="1110" 
d="M989 575v-129l-467 -444v260l271 250l-271 248v258zM584 575v-129l-465 -444v260l270 250l-270 248v258z" />
    <glyph glyph-name="onequarter" unicode="&#xbc;" horiz-adv-x="1626" 
d="M1507 391v-186h-55v-201h-192v201h-365v141l319 555h224l-289 -512h168l12 176l123 -24v-150h55zM1018 1427h199l-650 -1423h-198zM477 1438v-897h-186v635l-105 -64l-92 162l273 164h110z" />
    <glyph glyph-name="onehalf" unicode="&#xbd;" horiz-adv-x="1703" 
d="M1573 190v-186h-569v131q35 92 69.5 144t128.5 151q104 107 140 154.5t36 70.5q0 30 -22.5 46t-55.5 16q-34 0 -61 -24.5t-68 -100.5l-167 88q61 112 129.5 167.5t166.5 55.5q66 0 126 -26t102.5 -84t42.5 -138q0 -41 -12.5 -78t-44 -79t-62 -74.5t-90.5 -91.5
q-60 -60 -113 -142h324zM1018 1427h201l-650 -1423h-198zM479 1438v-897h-186v635l-107 -64l-92 162l275 164h110z" />
    <glyph glyph-name="threequarters" unicode="&#xbe;" horiz-adv-x="1744" 
d="M1624 391v-186h-55v-201h-191v201h-364v141l317 555h225l-288 -512h168l12 176l121 -24v-150h55zM1135 1427h198l-647 -1423h-201zM682 827q0 -117 -82.5 -198.5t-200.5 -81.5q-100 0 -172 59t-106 164l178 61q32 -98 100 -98q39 0 67 27.5t28 66.5t-28.5 71t-66.5 32
h-67v155h59q42 0 65 30.5t23 66.5q0 29 -25.5 52t-62.5 23q-32 0 -56.5 -24.5t-35.5 -61.5l-180 60q35 105 108 158t164 53q114 0 195.5 -76t81.5 -184q0 -95 -68 -166q82 -79 82 -189z" />
    <glyph glyph-name="questiondown" unicode="&#xbf;" horiz-adv-x="1095" 
d="M115 -63q0 -127 57.5 -218t153 -134t217.5 -42q84 -1 159.5 22.5t138.5 71.5t100.5 131.5t37.5 192.5l-219 -2q-3 -105 -64.5 -153t-150.5 -48q-92 0 -148.5 47.5t-56.5 128.5q0 16 3 30.5t7 25t13.5 21.5t15 17t19.5 15.5t20.5 13.5t23.5 14t23 13q36 21 55.5 34
t49.5 40.5t45.5 56.5t28 76t13.5 104l-16 199h-186l-13 -193q-4 -57 -34 -92.5t-105 -77.5q-39 -23 -67 -45.5t-58.5 -57.5t-46.5 -83.5t-16 -107.5zM698 856q0 -63 -44 -107t-107 -44t-107.5 44t-44.5 107t44.5 107.5t107.5 44.5t107 -44.5t44 -107.5z" />
    <glyph glyph-name="Agrave" unicode="&#xc0;" horiz-adv-x="1341" 
d="M784 1430l553 -1430h-278l-137 373h-504l-135 -373h-279l549 1430h231zM502 598h338l-170 461zM551 1880l174 -330h-172l-254 330h252z" />
    <glyph glyph-name="Aacute" unicode="&#xc1;" horiz-adv-x="1341" 
d="M784 1430l553 -1430h-278l-137 373h-504l-135 -373h-279l549 1430h231zM502 598h338l-170 461zM786 1880h250l-254 -330h-172z" />
    <glyph glyph-name="Acircumflex" unicode="&#xc2;" horiz-adv-x="1341" 
d="M784 1430l553 -1430h-278l-137 373h-504l-135 -373h-279l549 1430h231zM502 598h338l-170 461zM774 1868l252 -312h-233l-123 185l-123 -185h-234l252 312h209z" />
    <glyph glyph-name="Atilde" unicode="&#xc3;" horiz-adv-x="1341" 
d="M784 1430l553 -1430h-278l-137 373h-504l-135 -373h-279l549 1430h231zM502 598h338l-170 461zM909 1800l127 -104q-56 -73 -106 -108.5t-125 -35.5q-40 0 -76 15t-59 33.5t-57 33.5t-72 15q-56 0 -113 -78l-123 104q46 74 100 108t136 34q43 0 79 -15t58 -33.5
t54.5 -33.5t68.5 -15q64 0 108 80z" />
    <glyph glyph-name="Adieresis" unicode="&#xc4;" horiz-adv-x="1341" 
d="M784 1430l553 -1430h-278l-137 373h-504l-135 -373h-279l549 1430h231zM502 598h338l-170 461zM1016 1694q0 -57 -40 -97.5t-97 -40.5t-98.5 40.5t-41.5 97.5q0 58 41.5 98.5t98.5 40.5t97 -40.5t40 -98.5zM602 1694q0 -57 -40 -97.5t-97 -40.5q-58 0 -98.5 40.5
t-40.5 97.5q0 58 40 98.5t99 40.5q57 0 97 -40.5t40 -98.5z" />
    <glyph glyph-name="Aring" unicode="&#xc5;" horiz-adv-x="1341" 
d="M784 1430l553 -1430h-278l-137 373h-504l-135 -373h-279l549 1430h231zM502 598h338l-170 461zM918 1794q0 -103 -72.5 -175.5t-173.5 -72.5q-104 0 -176 72.5t-72 175.5q0 102 72 174t176 72q101 0 173.5 -72.5t72.5 -173.5zM762 1794q0 36 -27 63t-63 27
q-38 0 -65 -26.5t-27 -63.5q0 -38 27 -64t65 -26q36 0 63 26t27 64z" />
    <glyph glyph-name="AE" unicode="&#xc6;" horiz-adv-x="1937" 
d="M1835 254v-254h-936v373h-405l-195 -373h-293l780 1430h1049v-254h-680v-318h592v-244h-592v-360h680zM612 598h287v526h-12z" />
    <glyph glyph-name="Ccedilla" unicode="&#xc7;" horiz-adv-x="1380" 
d="M1079 434l183 -158q-92 -115 -186 -188t-210 -96l52 -137l-142 -269h-235l200 281l-49 119q-142 13 -249 78.5t-169 167.5t-92 223t-30 260q0 119 22.5 226t71 200t118.5 161t171 107t223 39q84 0 155.5 -21t133 -63.5t110 -91t105.5 -119.5l-183 -158q-40 51 -68 81
t-67 60.5t-84.5 44t-101.5 13.5q-81 0 -143.5 -28.5t-100.5 -74t-62 -109.5t-33 -128.5t-9 -138.5q0 -73 9 -137.5t33 -129t62 -110t100.5 -74t143.5 -28.5q56 0 101.5 13.5t84.5 43.5t67.5 60.5t67.5 80.5z" />
    <glyph glyph-name="Egrave" unicode="&#xc8;" horiz-adv-x="1214" 
d="M1112 254v-254h-967v1430h967v-254h-709v-320h619v-242h-619v-360h709zM645 1880l174 -330h-170l-256 330h252z" />
    <glyph glyph-name="Eacute" unicode="&#xc9;" horiz-adv-x="1214" 
d="M1112 254v-254h-967v1430h967v-254h-709v-320h619v-242h-619v-360h709zM569 1880h250l-254 -330h-172z" />
    <glyph glyph-name="Ecircumflex" unicode="&#xca;" horiz-adv-x="1214" 
d="M1112 254v-254h-967v1430h967v-254h-709v-320h619v-242h-619v-360h709zM717 1868l252 -312h-232l-125 185l-120 -185h-234l252 312h207z" />
    <glyph glyph-name="Edieresis" unicode="&#xcb;" horiz-adv-x="1214" 
d="M1112 254v-254h-967v1430h967v-254h-709v-320h619v-242h-619v-360h709zM950 1694q0 -57 -39.5 -97.5t-95.5 -40.5q-58 0 -98.5 40.5t-40.5 97.5q0 58 40 98.5t99 40.5q56 0 95.5 -40.5t39.5 -98.5zM537 1694q0 -57 -40.5 -97.5t-97.5 -40.5t-97 40.5t-40 97.5
q0 58 40 98.5t97 40.5t97.5 -40.5t40.5 -98.5z" />
    <glyph glyph-name="Igrave" unicode="&#xcc;" horiz-adv-x="561" 
d="M410 1430v-1430h-258v1430h258zM150 1880l172 -330h-170l-256 330h254z" />
    <glyph glyph-name="Iacute" unicode="&#xcd;" horiz-adv-x="561" 
d="M410 1430v-1430h-258v1430h258zM326 1880h249l-253 -330h-172z" />
    <glyph glyph-name="Icircumflex" unicode="&#xce;" horiz-adv-x="561" 
d="M410 1430v-1430h-258v1430h258zM385 1868l252 -312h-234l-124 185l-121 -185h-234l252 312h209z" />
    <glyph glyph-name="Idieresis" unicode="&#xcf;" horiz-adv-x="561" 
d="M410 1430v-1430h-258v1430h258zM627 1694q0 -57 -40.5 -97.5t-97.5 -40.5q-58 0 -98.5 40.5t-40.5 97.5q0 58 40 98.5t99 40.5q57 0 97.5 -40.5t40.5 -98.5zM213 1694q0 -57 -40.5 -97.5t-96.5 -40.5q-58 0 -98.5 40.5t-40.5 97.5q0 58 40.5 98.5t98.5 40.5
q56 0 96.5 -40.5t40.5 -98.5z" />
    <glyph glyph-name="Eth" unicode="&#xd0;" horiz-adv-x="1329" 
d="M1219 715q0 -200 -15 -303q-10 -76 -34.5 -137.5t-57.5 -104t-79.5 -74t-93 -49.5t-106 -29t-111.5 -14.5t-116 -3.5h-459v618h-79v187h79v625h459q64 0 116 -3.5t111.5 -14.5t106 -29t93 -49.5t79.5 -74t57.5 -104t34.5 -137.5q15 -103 15 -303zM961 715q0 157 -11 248
q-6 44 -19 77t-28.5 55.5t-42 38t-49.5 24t-61.5 12.5t-67 5t-76.5 1h-203v-371h267v-187h-267v-364h203q71 0 113 3t87.5 15t71 34.5t45 63t27.5 99.5q11 87 11 246z" />
    <glyph glyph-name="Ntilde" unicode="&#xd1;" horiz-adv-x="1327" 
d="M1182 1430v-1430h-211l-568 895v-895h-258v1430h213l568 -895v895h256zM901 1800l127 -104q-56 -73 -106 -108.5t-125 -35.5q-40 0 -76 15t-58.5 33.5t-56.5 33.5t-71 15q-58 0 -115 -78l-123 104q48 74 101 108t134 34q43 0 79 -15t58 -33.5t55 -33.5t69 -15
q64 0 108 80z" />
    <glyph glyph-name="Ograve" unicode="&#xd2;" horiz-adv-x="1351" 
d="M1268 715q0 -117 -20 -221.5t-65 -199t-112.5 -162.5t-168.5 -108t-226 -40t-226 40t-168.5 108t-112.5 162.5t-65 199t-20 221.5t20 221.5t65 199t112.5 162.5t168.5 108t226 40t226 -39.5t168.5 -107.5t112.5 -162.5t65 -199t20 -222.5zM1008 715q0 74 -7 136
t-28.5 127.5t-57 110.5t-96.5 74t-143 29q-334 0 -334 -477t334 -477q332 0 332 477zM715 1880l174 -330h-172l-254 330h252z" />
    <glyph glyph-name="Oacute" unicode="&#xd3;" horiz-adv-x="1351" 
d="M1268 715q0 -117 -20 -221.5t-65 -199t-112.5 -162.5t-168.5 -108t-226 -40t-226 40t-168.5 108t-112.5 162.5t-65 199t-20 221.5t20 221.5t65 199t112.5 162.5t168.5 108t226 40t226 -39.5t168.5 -107.5t112.5 -162.5t65 -199t20 -222.5zM1008 715q0 74 -7 136
t-28.5 127.5t-57 110.5t-96.5 74t-143 29q-334 0 -334 -477t334 -477q332 0 332 477zM639 1880h250l-254 -330h-172z" />
    <glyph glyph-name="Ocircumflex" unicode="&#xd4;" horiz-adv-x="1351" 
d="M1268 715q0 -117 -20 -221.5t-65 -199t-112.5 -162.5t-168.5 -108t-226 -40t-226 40t-168.5 108t-112.5 162.5t-65 199t-20 221.5t20 221.5t65 199t112.5 162.5t168.5 108t226 40t226 -39.5t168.5 -107.5t112.5 -162.5t65 -199t20 -222.5zM1008 715q0 74 -7 136
t-28.5 127.5t-57 110.5t-96.5 74t-143 29q-334 0 -334 -477t334 -477q332 0 332 477zM778 1868l252 -312h-233l-123 185l-123 -185h-232l252 312h207z" />
    <glyph glyph-name="Otilde" unicode="&#xd5;" horiz-adv-x="1351" 
d="M1268 715q0 -117 -20 -221.5t-65 -199t-112.5 -162.5t-168.5 -108t-226 -40t-226 40t-168.5 108t-112.5 162.5t-65 199t-20 221.5t20 221.5t65 199t112.5 162.5t168.5 108t226 40t226 -39.5t168.5 -107.5t112.5 -162.5t65 -199t20 -222.5zM1008 715q0 74 -7 136
t-28.5 127.5t-57 110.5t-96.5 74t-143 29q-334 0 -334 -477t334 -477q332 0 332 477zM915 1800l125 -104q-56 -73 -106 -108.5t-125 -35.5q-40 0 -76 15t-58.5 33.5t-56.5 33.5t-71 15q-58 0 -115 -78l-123 104q48 74 102 108t136 34q42 0 77.5 -15t57.5 -33.5t54.5 -33.5
t68.5 -15q66 0 110 80z" />
    <glyph glyph-name="Odieresis" unicode="&#xd6;" horiz-adv-x="1351" 
d="M1268 715q0 -117 -20 -221.5t-65 -199t-112.5 -162.5t-168.5 -108t-226 -40t-226 40t-168.5 108t-112.5 162.5t-65 199t-20 221.5t20 221.5t65 199t112.5 162.5t168.5 108t226 40t226 -39.5t168.5 -107.5t112.5 -162.5t65 -199t20 -222.5zM1008 715q0 74 -7 136
t-28.5 127.5t-57 110.5t-96.5 74t-143 29q-334 0 -334 -477t334 -477q332 0 332 477zM1020 1694q0 -57 -39.5 -97.5t-95.5 -40.5q-58 0 -99 40.5t-41 97.5q0 58 40.5 98.5t99.5 40.5q56 0 95.5 -40.5t39.5 -98.5zM606 1694q0 -57 -40 -97.5t-97 -40.5t-98 40.5t-41 97.5
q0 58 41 98.5t98 40.5t97 -40.5t40 -98.5z" />
    <glyph glyph-name="multiply" unicode="&#xd7;" horiz-adv-x="1001" 
d="M637 561l246 -248l-135 -135l-248 246l-246 -246l-135 135l246 248l-246 246l135 135l246 -246l248 246l135 -135z" />
    <glyph glyph-name="Oslash" unicode="&#xd8;" horiz-adv-x="1351" 
d="M1268 715q0 -118 -20 -223t-65.5 -199t-113 -162t-168 -107.5t-225.5 -39.5q-138 0 -246 51l-27 -53h-213l82 159q-188 200 -188 574q0 118 20 222.5t65 199t112.5 162.5t168.5 107.5t226 39.5q137 0 246 -49l24 51h213l-82 -158q191 -198 191 -575zM1008 715
q0 205 -62 317l-399 -768q59 -26 129 -26q332 0 332 477zM403 399l400 770q-67 23 -127 23q-334 0 -334 -477q0 -199 61 -316z" />
    <glyph glyph-name="Ugrave" unicode="&#xd9;" horiz-adv-x="1335" 
d="M1208 1430v-836q0 -610 -540 -610q-144 0 -249 43.5t-168.5 125.5t-93.5 191.5t-30 249.5v836h256v-824q0 -65 6 -115.5t24.5 -101t49.5 -83t83 -53t122 -20.5q72 0 124.5 20t83 51.5t48 82.5t23 101t5.5 118v824h256zM707 1880l172 -330h-170l-256 330h254z" />
    <glyph glyph-name="Uacute" unicode="&#xda;" horiz-adv-x="1335" 
d="M1208 1430v-836q0 -610 -540 -610q-144 0 -249 43.5t-168.5 125.5t-93.5 191.5t-30 249.5v836h256v-824q0 -65 6 -115.5t24.5 -101t49.5 -83t83 -53t122 -20.5q72 0 124.5 20t83 51.5t48 82.5t23 101t5.5 118v824h256zM629 1880h250l-252 -330h-174z" />
    <glyph glyph-name="Ucircumflex" unicode="&#xdb;" horiz-adv-x="1335" 
d="M1208 1430v-836q0 -610 -540 -610q-144 0 -249 43.5t-168.5 125.5t-93.5 191.5t-30 249.5v836h256v-824q0 -65 6 -115.5t24.5 -101t49.5 -83t83 -53t122 -20.5q72 0 124.5 20t83 51.5t48 82.5t23 101t5.5 118v824h256zM772 1868l252 -312h-233l-125 185l-121 -185h-234
l252 312h209z" />
    <glyph glyph-name="Udieresis" unicode="&#xdc;" horiz-adv-x="1335" 
d="M1208 1430v-836q0 -610 -540 -610q-144 0 -249 43.5t-168.5 125.5t-93.5 191.5t-30 249.5v836h256v-824q0 -65 6 -115.5t24.5 -101t49.5 -83t83 -53t122 -20.5q72 0 124.5 20t83 51.5t48 82.5t23 101t5.5 118v824h256zM1012 1694q0 -57 -40.5 -97.5t-97.5 -40.5t-98 40.5
t-41 97.5q0 58 41 98.5t98 40.5t97.5 -40.5t40.5 -98.5zM598 1694q0 -57 -40.5 -97.5t-96.5 -40.5q-58 0 -98.5 40.5t-40.5 97.5q0 58 40 98.5t99 40.5q56 0 96.5 -40.5t40.5 -98.5z" />
    <glyph glyph-name="Yacute" unicode="&#xdd;" horiz-adv-x="1259" 
d="M946 1430h287l-473 -959v-471h-258v475l-475 955h288l318 -666zM592 1880h252l-254 -330h-172z" />
    <glyph glyph-name="Thorn" unicode="&#xde;" horiz-adv-x="1290" 
d="M1204 735q0 -113 -38.5 -197t-108.5 -133t-158.5 -72.5t-196.5 -23.5h-292v-309h-258v1430h258v-267h292q237 0 369.5 -105t132.5 -323zM948 735q0 56 -17.5 92t-54 53t-75.5 23t-99 6h-292v-348h292q47 0 80.5 3.5t66.5 14t53.5 29.5t33 51t12.5 76z" />
    <glyph glyph-name="germandbls" unicode="&#xdf;" horiz-adv-x="1370" 
d="M1307 303q0 -78 -35 -141t-92 -102t-127 -59.5t-144 -20.5q-350 0 -415 274l213 55q43 -110 198 -110q26 0 50.5 4t50 13.5t41.5 29t16 47.5q0 40 -41.5 68t-103 43t-134 38.5t-134 52.5t-103 88t-41.5 142q0 105 57 174t152 100q-2 99 -39 155t-133 56q-52 0 -87.5 -17
t-53 -50t-24.5 -69.5t-7 -86.5v-987h-244v1004q0 206 105.5 325t310.5 119q199 0 304 -114t111 -314q98 -9 167 -53t130 -138l-188 -104q-29 41 -75 64.5t-97 23.5q-23 0 -45 -3.5t-45 -12.5t-37 -27.5t-14 -44.5q0 -30 30.5 -51.5t79.5 -35t107.5 -27.5t117.5 -36t108 -54
t79.5 -87.5t30.5 -130.5z" />
    <glyph glyph-name="agrave" unicode="&#xe0;" horiz-adv-x="997" 
d="M879 184l39 -153l-209 -54l-23 76q-102 -80 -242 -80q-155 0 -261.5 87t-106.5 239q0 141 90.5 223.5t269.5 91.5h154q45 3 61 31v43q0 52 -41 83.5t-98 31.5q-144 0 -190 -107l-209 72q43 129 146.5 190.5t252.5 61.5q91 0 174.5 -37t138 -110t54.5 -164v-525zM651 256
v201q-37 -19 -69 -19h-125q-70 -2 -116 -36t-46 -103q0 -57 49 -89t107 -32q110 0 200 78zM537 1427l174 -329h-170l-256 329h252z" />
    <glyph glyph-name="aacute" unicode="&#xe1;" horiz-adv-x="997" 
d="M879 184l39 -153l-209 -54l-23 76q-102 -80 -242 -80q-155 0 -261.5 87t-106.5 239q0 141 90.5 223.5t269.5 91.5h154q45 3 61 31v43q0 52 -41 83.5t-98 31.5q-144 0 -190 -107l-209 72q43 129 146.5 190.5t252.5 61.5q91 0 174.5 -37t138 -110t54.5 -164v-525zM651 256
v201q-37 -19 -69 -19h-125q-70 -2 -116 -36t-46 -103q0 -57 49 -89t107 -32q110 0 200 78zM461 1427h250l-254 -329h-172z" />
    <glyph glyph-name="acircumflex" unicode="&#xe2;" horiz-adv-x="997" 
d="M879 184l39 -153l-209 -54l-23 76q-102 -80 -242 -80q-155 0 -261.5 87t-106.5 239q0 141 90.5 223.5t269.5 91.5h154q45 3 61 31v43q0 52 -41 83.5t-98 31.5q-144 0 -190 -107l-209 72q43 129 146.5 190.5t252.5 61.5q91 0 174.5 -37t138 -110t54.5 -164v-525zM651 256
v201q-37 -19 -69 -19h-125q-70 -2 -116 -36t-46 -103q0 -57 49 -89t107 -32q110 0 200 78zM602 1415l252 -311h-231l-125 184l-121 -184h-234l252 311h207z" />
    <glyph glyph-name="atilde" unicode="&#xe3;" horiz-adv-x="997" 
d="M879 184l39 -153l-209 -54l-23 76q-102 -80 -242 -80q-155 0 -261.5 87t-106.5 239q0 141 90.5 223.5t269.5 91.5h154q45 3 61 31v43q0 52 -41 83.5t-98 31.5q-144 0 -190 -107l-209 72q43 129 146.5 190.5t252.5 61.5q91 0 174.5 -37t138 -110t54.5 -164v-525zM651 256
v201q-37 -19 -69 -19h-125q-70 -2 -116 -36t-46 -103q0 -57 49 -89t107 -32q110 0 200 78zM739 1348l127 -105q-39 -48 -66.5 -75t-71 -47.5t-95.5 -20.5q-40 0 -76 15t-58.5 33t-56.5 33t-71 15q-56 0 -113 -78l-123 105q46 73 100 107t136 34q42 0 78 -15t58 -33t54.5 -33
t67.5 -15q66 0 110 80z" />
    <glyph glyph-name="adieresis" unicode="&#xe4;" horiz-adv-x="997" 
d="M879 184l39 -153l-209 -54l-23 76q-102 -80 -242 -80q-155 0 -261.5 87t-106.5 239q0 141 90.5 223.5t269.5 91.5h154q45 3 61 31v43q0 52 -41 83.5t-98 31.5q-144 0 -190 -107l-209 72q43 129 146.5 190.5t252.5 61.5q91 0 174.5 -37t138 -110t54.5 -164v-525zM651 256
v201q-37 -19 -69 -19h-125q-70 -2 -116 -36t-46 -103q0 -57 49 -89t107 -32q110 0 200 78zM844 1241q0 -57 -40 -97t-97 -40q-58 0 -99 40t-41 97q0 58 40.5 98.5t99.5 40.5q57 0 97 -40.5t40 -98.5zM428 1241q0 -57 -40 -97t-97 -40t-97 40t-40 97q0 58 40 98.5t97 40.5
t97 -40.5t40 -98.5z" />
    <glyph glyph-name="aring" unicode="&#xe5;" horiz-adv-x="997" 
d="M879 184l39 -153l-209 -54l-23 76q-102 -80 -242 -80q-155 0 -261.5 87t-106.5 239q0 141 90.5 223.5t269.5 91.5h154q45 3 61 31v43q0 52 -41 83.5t-98 31.5q-144 0 -190 -107l-209 72q43 129 146.5 190.5t252.5 61.5q91 0 174.5 -37t138 -110t54.5 -164v-525zM651 256
v201q-37 -19 -69 -19h-125q-70 -2 -116 -36t-46 -103q0 -57 49 -89t107 -32q110 0 200 78zM745 1341q0 -103 -71 -175t-174 -72t-175.5 72t-72.5 175q0 101 72.5 173.5t175.5 72.5q102 0 173.5 -72t71.5 -174zM590 1341q0 37 -26.5 64t-63.5 27t-64.5 -27t-27.5 -64
q0 -38 27.5 -64t64.5 -26t63.5 26t26.5 64z" />
    <glyph glyph-name="ae" unicode="&#xe6;" horiz-adv-x="1556" 
d="M74 299q0 149 95.5 230t276.5 81h129q63 0 70 25v53q0 42 -35 77.5t-102 35.5q-139 0 -189 -107l-213 64q43 122 145 192t259 70q81 0 143.5 -25t128.5 -88q115 115 303 115q84 0 152.5 -29.5t113.5 -78.5t75.5 -115.5t43.5 -137t13 -147.5v-68h-606q10 -120 72.5 -176.5
t150.5 -56.5q108 0 200 106l168 -161q-80 -86 -167 -131t-203 -45q-214 0 -312 124q-123 -133 -344 -133q-72 0 -137 20.5t-117 60t-83 103t-31 142.5zM655 279q-10 61 -10 174q-38 -17 -67 -17l-125 -2q-62 0 -111 -28.5t-49 -90.5q0 -48 40.5 -83t112.5 -35q105 0 209 82z
M879 602h376q-4 90 -52.5 141.5t-125.5 51.5q-92 0 -141.5 -55t-56.5 -138z" />
    <glyph glyph-name="ccedilla" unicode="&#xe7;" horiz-adv-x="997" 
d="M762 338l176 -162q-76 -77 -145.5 -124.5t-153.5 -61.5l47 -135l-141 -269h-234l199 281l-49 123q-186 30 -285.5 172.5t-99.5 339.5q0 147 53.5 264t162.5 187.5t257 70.5q84 0 153 -25.5t119.5 -64t116.5 -107.5l-176 -161q-51 59 -100.5 92t-112.5 33t-108.5 -23.5
t-70 -65.5t-35.5 -91t-11 -109q0 -59 11 -108t35 -91t70 -66t109 -24q62 0 110.5 33t102.5 92z" />
    <glyph glyph-name="egrave" unicode="&#xe8;" horiz-adv-x="1009" 
d="M936 530v-84h-608q6 -108 62 -172.5t161 -64.5q125 0 217 96l154 -147q-86 -88 -174.5 -132t-196.5 -44q-150 0 -259 69.5t-162.5 185.5t-53.5 265q0 87 18 165t56 143.5t92.5 113t130 74t166.5 26.5q186 0 291.5 -136.5t105.5 -357.5zM330 602h379q-21 195 -181 195
q-171 0 -198 -195zM545 1427l174 -329h-172l-254 329h252z" />
    <glyph glyph-name="eacute" unicode="&#xe9;" horiz-adv-x="1009" 
d="M936 530v-84h-608q6 -108 62 -172.5t161 -64.5q125 0 217 96l154 -147q-86 -88 -174.5 -132t-196.5 -44q-150 0 -259 69.5t-162.5 185.5t-53.5 265q0 87 18 165t56 143.5t92.5 113t130 74t166.5 26.5q186 0 291.5 -136.5t105.5 -357.5zM330 602h379q-21 195 -181 195
q-171 0 -198 -195zM467 1427h252l-254 -329h-172z" />
    <glyph glyph-name="ecircumflex" unicode="&#xea;" horiz-adv-x="1009" 
d="M936 530v-84h-608q6 -108 62 -172.5t161 -64.5q125 0 217 96l154 -147q-86 -88 -174.5 -132t-196.5 -44q-150 0 -259 69.5t-162.5 185.5t-53.5 265q0 87 18 165t56 143.5t92.5 113t130 74t166.5 26.5q186 0 291.5 -136.5t105.5 -357.5zM330 602h379q-21 195 -181 195
q-171 0 -198 -195zM610 1415l252 -311h-233l-123 184l-123 -184h-233l251 311h209z" />
    <glyph glyph-name="edieresis" unicode="&#xeb;" horiz-adv-x="1009" 
d="M936 530v-84h-608q6 -108 62 -172.5t161 -64.5q125 0 217 96l154 -147q-86 -88 -174.5 -132t-196.5 -44q-150 0 -259 69.5t-162.5 185.5t-53.5 265q0 87 18 165t56 143.5t92.5 113t130 74t166.5 26.5q186 0 291.5 -136.5t105.5 -357.5zM330 602h379q-21 195 -181 195
q-171 0 -198 -195zM850 1241q0 -57 -40 -97t-97 -40t-98.5 40t-41.5 97q0 58 41.5 98.5t98.5 40.5t97 -40.5t40 -98.5zM436 1241q0 -57 -40 -97t-97 -40q-58 0 -98.5 40t-40.5 97q0 59 40 99t99 40q57 0 97 -40.5t40 -98.5z" />
    <glyph glyph-name="igrave" unicode="&#xec;" horiz-adv-x="505" 
d="M375 1008v-1008h-238v1008h238zM135 1427l174 -329h-172l-254 329h252z" />
    <glyph glyph-name="iacute" unicode="&#xed;" horiz-adv-x="501" 
d="M369 1008v-1008h-238v1008h238zM373 1427h250l-254 -329h-172z" />
    <glyph glyph-name="icircumflex" unicode="&#xee;" horiz-adv-x="501" 
d="M377 1008v-1008h-240v1008h240zM354 1415l252 -311h-231l-125 184l-121 -184h-233l251 311h207z" />
    <glyph glyph-name="idieresis" unicode="&#xef;" horiz-adv-x="503" 
d="M377 1008v-1008h-240v1008h240zM598 1241q0 -57 -40.5 -97t-96.5 -40q-58 0 -98.5 40t-40.5 97q0 59 40 99t99 40q56 0 96.5 -40.5t40.5 -98.5zM182 1241q0 -57 -40 -97t-97 -40t-97 40t-40 97q0 58 40 98.5t97 40.5t97 -40.5t40 -98.5z" />
    <glyph glyph-name="eth" unicode="&#xf0;" horiz-adv-x="1173" 
d="M1028 508q0 -157 -44 -272t-144.5 -183.5t-251.5 -68.5q-120 0 -207.5 41.5t-137.5 116t-73 165.5t-23 201q0 117 25 209.5t76 162.5t137 108t201 38q44 0 69 -10l-37 82h-245v194h159l-108 242h223l109 -242h186v-194h-98q3 -6 32 -65.5t57 -116t32 -64.5
q63 -119 63 -344zM815 506q0 57 -5 100.5t-19.5 86t-39.5 69.5t-66.5 44t-98.5 17q-58 0 -100.5 -18.5t-66.5 -47.5t-38.5 -73t-18.5 -84.5t-4 -93.5q0 -70 9.5 -122t33 -97.5t70 -69.5t115.5 -24q59 0 101.5 18.5t67 46.5t38.5 71.5t18 83.5t4 93z" />
    <glyph glyph-name="ntilde" unicode="&#xf1;" horiz-adv-x="1083" 
d="M969 567v-567h-246v563q0 107 -38 165t-140 58q-71 0 -118.5 -49t-47.5 -116v-621h-244v1008h201l8 -62q37 38 96 60t115 22q414 0 414 -461zM780 1348l125 -105q-55 -72 -105.5 -107.5t-125.5 -35.5q-40 0 -76 15t-58.5 33t-56.5 33t-71 15q-58 0 -115 -78l-123 105
q48 74 102 107.5t136 33.5q42 0 77.5 -15t57.5 -33t54.5 -33t68.5 -15q62 0 110 80z" />
    <glyph glyph-name="ograve" unicode="&#xf2;" horiz-adv-x="1052" 
d="M977 502q0 -115 -25.5 -208t-78 -164.5t-141 -110.5t-206.5 -39t-206.5 39t-140.5 110.5t-77.5 164.5t-25.5 208t25.5 208t77.5 164.5t140.5 110.5t206.5 39t206.5 -39t141 -110.5t78 -164.5t25.5 -208zM729 502q0 47 -4 84.5t-17.5 76.5t-35 65.5t-59 43t-87.5 16.5
q-51 0 -88.5 -17t-59 -43t-34 -65t-16.5 -76.5t-4 -84.5q0 -48 4 -85t16.5 -76.5t34 -65t59 -42t88.5 -16.5q62 0 104.5 23.5t63 66.5t28 89t7.5 106zM565 1427l174 -329h-172l-254 329h252z" />
    <glyph glyph-name="oacute" unicode="&#xf3;" horiz-adv-x="1052" 
d="M977 502q0 -115 -25.5 -208t-78 -164.5t-141 -110.5t-206.5 -39t-206.5 39t-140.5 110.5t-77.5 164.5t-25.5 208t25.5 208t77.5 164.5t140.5 110.5t206.5 39t206.5 -39t141 -110.5t78 -164.5t25.5 -208zM729 502q0 47 -4 84.5t-17.5 76.5t-35 65.5t-59 43t-87.5 16.5
q-51 0 -88.5 -17t-59 -43t-34 -65t-16.5 -76.5t-4 -84.5q0 -48 4 -85t16.5 -76.5t34 -65t59 -42t88.5 -16.5q62 0 104.5 23.5t63 66.5t28 89t7.5 106zM489 1427h250l-254 -329h-172z" />
    <glyph glyph-name="ocircumflex" unicode="&#xf4;" horiz-adv-x="1052" 
d="M977 502q0 -115 -25.5 -208t-78 -164.5t-141 -110.5t-206.5 -39t-206.5 39t-140.5 110.5t-77.5 164.5t-25.5 208t25.5 208t77.5 164.5t140.5 110.5t206.5 39t206.5 -39t141 -110.5t78 -164.5t25.5 -208zM729 502q0 47 -4 84.5t-17.5 76.5t-35 65.5t-59 43t-87.5 16.5
q-51 0 -88.5 -17t-59 -43t-34 -65t-16.5 -76.5t-4 -84.5q0 -48 4 -85t16.5 -76.5t34 -65t59 -42t88.5 -16.5q62 0 104.5 23.5t63 66.5t28 89t7.5 106zM631 1415l252 -311h-234l-123 184l-123 -184h-231l250 311h209z" />
    <glyph glyph-name="otilde" unicode="&#xf5;" horiz-adv-x="1052" 
d="M977 502q0 -115 -25.5 -208t-78 -164.5t-141 -110.5t-206.5 -39t-206.5 39t-140.5 110.5t-77.5 164.5t-25.5 208t25.5 208t77.5 164.5t140.5 110.5t206.5 39t206.5 -39t141 -110.5t78 -164.5t25.5 -208zM729 502q0 47 -4 84.5t-17.5 76.5t-35 65.5t-59 43t-87.5 16.5
q-51 0 -88.5 -17t-59 -43t-34 -65t-16.5 -76.5t-4 -84.5q0 -48 4 -85t16.5 -76.5t34 -65t59 -42t88.5 -16.5q62 0 104.5 23.5t63 66.5t28 89t7.5 106zM766 1348l125 -105q-55 -72 -106 -107.5t-126 -35.5q-40 0 -76 15t-58.5 33t-56.5 33t-71 15q-57 0 -114 -78l-123 105
q48 74 101.5 107.5t135.5 33.5q42 0 77.5 -15t57.5 -33t54.5 -33t68.5 -15q67 0 111 80z" />
    <glyph glyph-name="odieresis" unicode="&#xf6;" horiz-adv-x="1052" 
d="M977 502q0 -115 -25.5 -208t-78 -164.5t-141 -110.5t-206.5 -39t-206.5 39t-140.5 110.5t-77.5 164.5t-25.5 208t25.5 208t77.5 164.5t140.5 110.5t206.5 39t206.5 -39t141 -110.5t78 -164.5t25.5 -208zM729 502q0 47 -4 84.5t-17.5 76.5t-35 65.5t-59 43t-87.5 16.5
q-51 0 -88.5 -17t-59 -43t-34 -65t-16.5 -76.5t-4 -84.5q0 -48 4 -85t16.5 -76.5t34 -65t59 -42t88.5 -16.5q62 0 104.5 23.5t63 66.5t28 89t7.5 106zM870 1241q0 -57 -39.5 -97t-95.5 -40q-58 0 -98.5 40t-40.5 97q0 59 40 99t99 40q56 0 95.5 -40.5t39.5 -98.5zM457 1241
q0 -57 -40.5 -97t-97.5 -40t-98 40t-41 97q0 58 41 98.5t98 40.5t97.5 -40.5t40.5 -98.5z" />
    <glyph glyph-name="divide" unicode="&#xf7;" horiz-adv-x="1107" 
d="M678 874q0 -53 -36.5 -89.5t-90.5 -36.5q-53 0 -91 37t-38 89q0 54 38 92t91 38q54 0 90.5 -38t36.5 -92zM995 653v-184h-878v184h878zM678 246q0 -53 -36.5 -90t-90.5 -37q-53 0 -91 37.5t-38 89.5q0 54 38 91.5t91 37.5q54 0 90.5 -37.5t36.5 -91.5z" />
    <glyph glyph-name="oslash" unicode="&#xf8;" horiz-adv-x="1157" 
d="M977 502q0 -115 -25 -208t-77.5 -164.5t-141 -110.5t-207.5 -39q-86 0 -153 22l-19 -37h-186l55 115q-147 133 -147 422q0 115 25.5 208t77.5 164.5t140.5 110.5t206.5 39q81 0 154 -23l18 41h195l-62 -120q146 -137 146 -420zM729 502q0 94 -24 153l-224 -430
q13 -8 45 -8q50 -1 87.5 15t59 42.5t35 66t17.5 77t4 84.5zM571 778q-13 8 -45 8q-51 1 -88.5 -15.5t-59 -42.5t-34 -65.5t-16.5 -76.5t-4 -84q0 -99 24 -160z" />
    <glyph glyph-name="ugrave" unicode="&#xf9;" horiz-adv-x="1081" 
d="M948 1008v-1008h-200l-11 59q-92 -77 -205 -77q-209 0 -313 114.5t-104 325.5v586h243v-572q0 -51 7.5 -88t26.5 -67.5t55.5 -46t91.5 -15.5q68 0 115.5 44.5t47.5 113.5v631h246zM580 1427l172 -329h-170l-256 329h254z" />
    <glyph glyph-name="uacute" unicode="&#xfa;" horiz-adv-x="1081" 
d="M948 1008v-1008h-200l-11 59q-92 -77 -205 -77q-209 0 -313 114.5t-104 325.5v586h243v-572q0 -51 7.5 -88t26.5 -67.5t55.5 -46t91.5 -15.5q68 0 115.5 44.5t47.5 113.5v631h246zM502 1427h250l-252 -329h-174z" />
    <glyph glyph-name="ucircumflex" unicode="&#xfb;" horiz-adv-x="1081" 
d="M948 1008v-1008h-200l-11 59q-92 -77 -205 -77q-209 0 -313 114.5t-104 325.5v586h243v-572q0 -51 7.5 -88t26.5 -67.5t55.5 -46t91.5 -15.5q68 0 115.5 44.5t47.5 113.5v631h246zM645 1415l252 -311h-233l-125 184l-121 -184h-234l252 311h209z" />
    <glyph glyph-name="udieresis" unicode="&#xfc;" horiz-adv-x="1081" 
d="M948 1008v-1008h-200l-11 59q-92 -77 -205 -77q-209 0 -313 114.5t-104 325.5v586h243v-572q0 -51 7.5 -88t26.5 -67.5t55.5 -46t91.5 -15.5q68 0 115.5 44.5t47.5 113.5v631h246zM885 1241q0 -57 -40 -97t-97 -40t-98.5 40t-41.5 97q0 58 41.5 98.5t98.5 40.5t97 -40.5
t40 -98.5zM471 1241q0 -57 -40.5 -97t-96.5 -40q-58 0 -98.5 40t-40.5 97q0 59 40.5 99t98.5 40q56 0 96.5 -40.5t40.5 -98.5z" />
    <glyph glyph-name="yacute" unicode="&#xfd;" horiz-adv-x="1050" 
d="M754 1008h262l-461 -1237q-26 -72 -63.5 -118.5t-89 -69.5t-102.5 -30.5t-126 -7.5h-43v209h37q83 0 116 18t54 72l57 154l-360 1010h262l223 -705zM487 1427h250l-252 -329h-174z" />
    <glyph glyph-name="thorn" unicode="&#xfe;" horiz-adv-x="1064" 
d="M989 514q0 -113 -24 -207.5t-74 -170.5t-135 -118.5t-199 -42.5q-99 0 -166 48v-449h-250v1856h250v-426q70 47 166 47q94 0 169 -30t123.5 -80.5t80.5 -121t45.5 -146t13.5 -159.5zM739 514q0 47 -3 83t-14.5 75.5t-30.5 65t-53 42.5t-81 17q-75 0 -120.5 -41
t-45.5 -109v-268q0 -73 48.5 -112.5t117.5 -39.5q48 0 83 19t53.5 46t29.5 68.5t13.5 75.5t2.5 78z" />
    <glyph glyph-name="ydieresis" unicode="&#xff;" horiz-adv-x="1050" 
d="M754 1008h262l-461 -1237q-26 -72 -63.5 -118.5t-89 -69.5t-102.5 -30.5t-126 -7.5h-43v209h37q83 0 116 18t54 72l57 154l-360 1010h262l223 -705zM870 1241q0 -57 -40 -97t-97 -40q-58 0 -98.5 40t-40.5 97q0 59 40 99t99 40q57 0 97 -40.5t40 -98.5zM457 1241
q0 -57 -41 -97t-97 -40q-58 0 -98.5 40t-40.5 97q0 59 40 99t99 40q56 0 97 -40.5t41 -98.5z" />
    <glyph glyph-name="Amacron" unicode="&#x100;" horiz-adv-x="1341" 
d="M784 1430l553 -1430h-278l-137 373h-504l-135 -373h-279l549 1430h231zM502 598h338l-170 461zM1001 1780v-164h-661v164h661z" />
    <glyph glyph-name="amacron" unicode="&#x101;" horiz-adv-x="997" 
d="M879 184l39 -153l-209 -54l-23 76q-102 -80 -242 -80q-155 0 -261.5 87t-106.5 239q0 141 90.5 223.5t269.5 91.5h154q45 3 61 31v43q0 52 -41 83.5t-98 31.5q-144 0 -190 -107l-209 72q43 129 146.5 190.5t252.5 61.5q91 0 174.5 -37t138 -110t54.5 -164v-525zM651 256
v201q-37 -19 -69 -19h-125q-70 -2 -116 -36t-46 -103q0 -57 49 -89t107 -32q110 0 200 78zM829 1327v-164h-661v164h661z" />
    <glyph glyph-name="Abreve" unicode="&#x102;" horiz-adv-x="1341" 
d="M784 1430l553 -1430h-278l-137 373h-504l-135 -373h-279l549 1430h231zM502 598h338l-170 461zM893 1874h166q-61 -146 -160.5 -221.5t-226.5 -75.5q-126 0 -226.5 75.5t-162.5 221.5h168q83 -145 221 -145t221 145z" />
    <glyph glyph-name="abreve" unicode="&#x103;" horiz-adv-x="997" 
d="M879 184l39 -153l-209 -54l-23 76q-102 -80 -242 -80q-155 0 -261.5 87t-106.5 239q0 141 90.5 223.5t269.5 91.5h154q45 3 61 31v43q0 52 -41 83.5t-98 31.5q-144 0 -190 -107l-209 72q43 129 146.5 190.5t252.5 61.5q91 0 174.5 -37t138 -110t54.5 -164v-525zM651 256
v201q-37 -19 -69 -19h-125q-70 -2 -116 -36t-46 -103q0 -57 49 -89t107 -32q110 0 200 78zM721 1421h168q-62 -146 -162 -221.5t-227 -75.5q-126 0 -225.5 75.5t-161.5 221.5h166q83 -145 221 -145q141 0 221 145z" />
    <glyph glyph-name="Aogonek" unicode="&#x104;" horiz-adv-x="1341" 
d="M1247 0l283 -408h-227l-244 408l-137 373h-504l-135 -373h-279l549 1430h231l553 -1430h-90zM502 598h338l-170 461z" />
    <glyph glyph-name="aogonek" unicode="&#x105;" horiz-adv-x="997" 
d="M868 18l299 -426h-227l-231 385l-23 76q-102 -80 -242 -80q-155 0 -261.5 87t-106.5 239q0 141 90.5 223.5t269.5 91.5h154q45 3 61 31v43q0 52 -41 83.5t-98 31.5q-144 0 -190 -107l-209 72q43 129 146.5 190.5t252.5 61.5q91 0 174.5 -37t138 -110t54.5 -164v-525
l41 -153zM651 256v201q-37 -19 -69 -19h-125q-70 -2 -116 -36t-46 -103q0 -57 49 -89t107 -32q110 0 200 78z" />
    <glyph glyph-name="Cacute" unicode="&#x106;" horiz-adv-x="1249" 
d="M1012 414l182 -174q-62 -73 -109 -117t-105.5 -78.5t-126 -48.5t-157.5 -14q-124 0 -226 39.5t-173 108t-119.5 162t-71 200t-22.5 223.5q0 118 22.5 224.5t71 200t119 161.5t173 107.5t226.5 39.5q160 0 272.5 -57t217.5 -185l-182 -178q-73 83 -142 124.5t-166 41.5
q-78 0 -140 -29t-100.5 -75.5t-64 -110.5t-35.5 -129t-10 -135t10 -135t35.5 -129t64 -110.5t100.5 -75.5t140 -29q100 0 172 44.5t144 133.5zM717 1880h252l-254 -330h-174z" />
    <glyph glyph-name="cacute" unicode="&#x107;" horiz-adv-x="997" 
d="M938 827l-176 -161q-51 59 -100.5 92t-112.5 33q-225 0 -225 -289q0 -59 10.5 -107.5t34.5 -91t70 -66.5t110 -24q62 0 110.5 33t102.5 92l176 -162q-98 -103 -182 -148.5t-207 -45.5q-221 0 -347 147.5t-126 372.5q0 147 53.5 264t162.5 187.5t257 70.5q122 0 209 -48
t180 -149zM506 1427h250l-254 -329h-172z" />
    <glyph glyph-name="Ccircumflex" unicode="&#x108;" horiz-adv-x="1249" 
d="M1012 414l182 -174q-62 -73 -109 -117t-105.5 -78.5t-126 -48.5t-157.5 -14q-124 0 -226 39.5t-173 108t-119.5 162t-71 200t-22.5 223.5q0 118 22.5 224.5t71 200t119 161.5t173 107.5t226.5 39.5q160 0 272.5 -57t217.5 -185l-182 -178q-73 83 -142 124.5t-166 41.5
q-78 0 -140 -29t-100.5 -75.5t-64 -110.5t-35.5 -129t-10 -135t10 -135t35.5 -129t64 -110.5t100.5 -75.5t140 -29q100 0 172 44.5t144 133.5zM782 1868l252 -312h-233l-125 185l-121 -185h-233l251 312h209z" />
    <glyph glyph-name="ccircumflex" unicode="&#x109;" horiz-adv-x="997" 
d="M938 827l-176 -161q-51 59 -100.5 92t-112.5 33q-225 0 -225 -289q0 -59 10.5 -107.5t34.5 -91t70 -66.5t110 -24q62 0 110.5 33t102.5 92l176 -162q-98 -103 -182 -148.5t-207 -45.5q-221 0 -347 147.5t-126 372.5q0 147 53.5 264t162.5 187.5t257 70.5q122 0 209 -48
t180 -149zM602 1415l252 -311h-233l-123 184l-123 -184h-232l250 311h209z" />
    <glyph glyph-name="Cdotaccent" unicode="&#x10a;" horiz-adv-x="1249" 
d="M1012 414l182 -174q-62 -73 -109 -117t-105.5 -78.5t-126 -48.5t-157.5 -14q-124 0 -226 39.5t-173 108t-119.5 162t-71 200t-22.5 223.5q0 118 22.5 224.5t71 200t119 161.5t173 107.5t226.5 39.5q160 0 272.5 -57t217.5 -185l-182 -178q-73 83 -142 124.5t-166 41.5
q-78 0 -140 -29t-100.5 -75.5t-64 -110.5t-35.5 -129t-10 -135t10 -135t35.5 -129t64 -110.5t100.5 -75.5t140 -29q100 0 172 44.5t144 133.5zM829 1657q0 -52 -37 -88.5t-90 -36.5q-51 0 -87.5 36.5t-36.5 88.5t36.5 88.5t87.5 36.5q53 0 90 -36.5t37 -88.5z" />
    <glyph glyph-name="cdotaccent" unicode="&#x10b;" horiz-adv-x="997" 
d="M938 827l-176 -161q-51 59 -100.5 92t-112.5 33q-225 0 -225 -289q0 -59 10.5 -107.5t34.5 -91t70 -66.5t110 -24q62 0 110.5 33t102.5 92l176 -162q-98 -103 -182 -148.5t-207 -45.5q-221 0 -347 147.5t-126 372.5q0 147 53.5 264t162.5 187.5t257 70.5q122 0 209 -48
t180 -149zM657 1204q0 -52 -37 -88.5t-90 -36.5q-51 0 -87.5 36.5t-36.5 88.5t36.5 88.5t87.5 36.5q53 0 90 -36.5t37 -88.5z" />
    <glyph glyph-name="Ccaron" unicode="&#x10c;" horiz-adv-x="1249" 
d="M1194 240l-182 174q-72 -89 -144 -133.5t-172 -44.5q-78 0 -140 29t-100.5 75.5t-64 110.5t-35.5 129t-10 135t10 135t35.5 129t64 110.5t100.5 75.5t140 29q97 0 166 -41.5t142 -124.5l182 178q-105 128 -217.5 185t-272.5 57q-124 0 -226.5 -39.5t-173 -107.5
t-119 -161.5t-71 -200t-22.5 -224.5q0 -117 22.5 -223.5t71 -200t119.5 -162t173 -108t226 -39.5q90 0 157.5 14t126 48.5t105.5 78.5t109 117zM1051 1866l-252 -312h-209l-252 312h233l121 -185l125 185h234z" />
    <glyph glyph-name="ccaron" unicode="&#x10d;" horiz-adv-x="997" 
d="M938 827l-176 -161q-51 59 -100.5 92t-112.5 33q-225 0 -225 -289q0 -59 10.5 -107.5t34.5 -91t70 -66.5t110 -24q62 0 110.5 33t102.5 92l176 -162q-98 -103 -182 -148.5t-207 -45.5q-221 0 -347 147.5t-126 372.5q0 147 53.5 264t162.5 187.5t257 70.5q122 0 209 -48
t180 -149zM854 1413l-252 -311h-209l-250 311h232l123 -184l123 184h233z" />
    <glyph glyph-name="Dcaron" unicode="&#x10e;" horiz-adv-x="1323" 
d="M1219 715q0 139 -11 237.5t-39.5 182.5t-75.5 137t-122.5 90t-178 52.5t-243.5 15.5h-404v-1430h404q141 0 243.5 15.5t178 53t122.5 90.5t75.5 137t39.5 182.5t11 236.5zM961 713q0 -156 -9 -232.5t-34 -120.5q-34 -59 -107 -82.5t-205 -23.5h-203v922h203
q131 0 203 -23t106 -80q27 -44 36.5 -125t9.5 -235zM1016 1866l-252 -312h-207l-252 312h234l120 -185l125 185h232z" />
    <glyph glyph-name="dcaron" unicode="&#x10f;" horiz-adv-x="1052" 
d="M954 35l-213 -64l-22 76q-86 -67 -219 -67q-93 0 -166 28t-120.5 75.5t-79 115.5t-45 143.5t-13.5 163.5q0 87 14 162t45.5 142t79.5 114t121 74.5t164 27.5q99 0 166 -59v463h245v-1242q0 -3 21 -75t22 -78zM666 373v264q0 69 -46.5 110t-117.5 41q-42 0 -73.5 -11.5
t-50.5 -34.5t-31.5 -48t-18 -61t-7.5 -63.5t-2 -65.5t2 -66t7.5 -64t18 -61t31.5 -48t50.5 -34.5t73.5 -11.5q70 0 117 42t47 112zM1206 1407v-328h-221v328q0 46 32.5 78.5t78.5 32.5t78 -32.5t32 -78.5z" />
    <glyph glyph-name="Dcroat" unicode="&#x110;" horiz-adv-x="1329" 
d="M1219 715q0 -200 -15 -303q-10 -76 -34.5 -137.5t-57.5 -104t-79.5 -74t-93 -49.5t-106 -29t-111.5 -14.5t-116 -3.5h-459v618h-79v187h79v625h459q64 0 116 -3.5t111.5 -14.5t106 -29t93 -49.5t79.5 -74t57.5 -104t34.5 -137.5q15 -103 15 -303zM961 715q0 157 -11 248
q-6 44 -19 77t-28.5 55.5t-42 38t-49.5 24t-61.5 12.5t-67 5t-76.5 1h-203v-371h267v-187h-267v-364h203q71 0 113 3t87.5 15t71 34.5t45 63t27.5 99.5q11 87 11 246z" />
    <glyph glyph-name="dcroat" unicode="&#x111;" horiz-adv-x="1052" 
d="M1051 1331v-190h-140v-953q0 -3 21 -75t22 -78l-213 -64l-22 76q-86 -67 -219 -67q-93 0 -166 28t-120.5 75.5t-79 115.5t-45 143.5t-13.5 163.5q0 87 14 162t45.5 142t79.5 114t121 74.5t164 27.5q99 0 166 -59v174h-211v190h211v99h245v-99h140zM666 373v264
q0 69 -46.5 110t-117.5 41q-42 0 -73.5 -11.5t-50.5 -34.5t-31.5 -48t-18 -61t-7.5 -63.5t-2 -65.5t2 -66t7.5 -64t18 -61t31.5 -48t50.5 -34.5t73.5 -11.5q70 0 117 42t47 112z" />
    <glyph glyph-name="Emacron" unicode="&#x112;" horiz-adv-x="1214" 
d="M1112 254v-254h-967v1430h967v-254h-709v-320h619v-242h-619v-360h709zM938 1780v-164h-662v164h662z" />
    <glyph glyph-name="emacron" unicode="&#x113;" horiz-adv-x="1009" 
d="M936 530v-84h-608q6 -108 62 -172.5t161 -64.5q125 0 217 96l154 -147q-86 -88 -174.5 -132t-196.5 -44q-150 0 -259 69.5t-162.5 185.5t-53.5 265q0 87 18 165t56 143.5t92.5 113t130 74t166.5 26.5q186 0 291.5 -136.5t105.5 -357.5zM330 602h379q-21 195 -181 195
q-171 0 -198 -195zM838 1327v-164h-662v164h662z" />
    <glyph glyph-name="Ebreve" unicode="&#x114;" horiz-adv-x="1214" 
d="M1112 254v-254h-967v1430h967v-254h-709v-320h619v-242h-619v-360h709zM827 1874h168q-62 -146 -162 -221.5t-227 -75.5q-126 0 -225.5 75.5t-161.5 221.5h166q83 -145 221 -145q141 0 221 145z" />
    <glyph glyph-name="ebreve" unicode="&#x115;" horiz-adv-x="1009" 
d="M936 530v-84h-608q6 -108 62 -172.5t161 -64.5q125 0 217 96l154 -147q-86 -88 -174.5 -132t-196.5 -44q-150 0 -259 69.5t-162.5 185.5t-53.5 265q0 87 18 165t56 143.5t92.5 113t130 74t166.5 26.5q186 0 291.5 -136.5t105.5 -357.5zM330 602h379q-21 195 -181 195
q-171 0 -198 -195zM727 1421h166q-61 -146 -160.5 -221.5t-226.5 -75.5t-227 75.5t-162 221.5h168q83 -145 221 -145t221 145z" />
    <glyph glyph-name="Edotaccent" unicode="&#x116;" horiz-adv-x="1214" 
d="M1112 254v-254h-967v1430h967v-254h-709v-320h619v-242h-619v-360h709zM733 1657q0 -52 -37 -88.5t-90 -36.5q-51 0 -88 36.5t-37 88.5t37 88.5t88 36.5q53 0 90 -36.5t37 -88.5z" />
    <glyph glyph-name="edotaccent" unicode="&#x117;" horiz-adv-x="1009" 
d="M936 530v-84h-608q6 -108 62 -172.5t161 -64.5q125 0 217 96l154 -147q-86 -88 -174.5 -132t-196.5 -44q-150 0 -259 69.5t-162.5 185.5t-53.5 265q0 87 18 165t56 143.5t92.5 113t130 74t166.5 26.5q186 0 291.5 -136.5t105.5 -357.5zM330 602h379q-21 195 -181 195
q-171 0 -198 -195zM631 1204q0 -52 -36.5 -88.5t-88.5 -36.5t-88.5 36.5t-36.5 88.5t36.5 88.5t88.5 36.5t88.5 -36.5t36.5 -88.5z" />
    <glyph glyph-name="Eogonek" unicode="&#x118;" horiz-adv-x="1214" 
d="M1112 0l285 -408h-228l-243 408h-781v1430h967v-254h-709v-320h619v-242h-619v-360h709v-254z" />
    <glyph glyph-name="eogonek" unicode="&#x119;" horiz-adv-x="1009" 
d="M741 25l303 -433h-229l-233 392q-2 0 -15.5 -1t-15.5 -1q-150 0 -259 69.5t-162.5 185.5t-53.5 265q0 87 18 165t56 143.5t92.5 113t130 74t166.5 26.5q186 0 291.5 -136.5t105.5 -357.5v-84h-608q6 -108 62 -172.5t161 -64.5q125 0 217 96l154 -147q-90 -93 -181 -133z
M330 602h379q-21 195 -181 195q-171 0 -198 -195z" />
    <glyph glyph-name="Ecaron" unicode="&#x11a;" horiz-adv-x="1214" 
d="M1112 0v254h-709v360h619v242h-619v320h709v254h-967v-1430h967zM969 1866l-252 -312h-209l-252 312h233l121 -185l125 185h234z" />
    <glyph glyph-name="ecaron" unicode="&#x11b;" horiz-adv-x="1009" 
d="M936 446v84q0 221 -105.5 357.5t-291.5 136.5q-91 0 -166.5 -26.5t-130 -74t-92.5 -113t-56 -143.5t-18 -165q0 -149 53.5 -265t162.5 -185.5t259 -69.5q108 0 196.5 44t174.5 132l-154 147q-92 -96 -217 -96q-105 0 -161 64.5t-62 172.5h608zM709 602h-379
q27 195 198 195q160 0 181 -195zM862 1413l-252 -311h-209l-251 311h233l123 -184l123 184h233z" />
    <glyph glyph-name="Gcircumflex" unicode="&#x11c;" horiz-adv-x="1294" 
d="M659 788h527v-788h-217v133q-53 -82 -126.5 -115.5t-174.5 -33.5q-123 0 -223 40.5t-166 108.5t-111 162.5t-64.5 199t-19.5 220.5q0 117 20.5 222t66 199t113 162t168 108t224.5 40q161 0 269.5 -62.5t213.5 -199.5l-180 -164q-45 58 -84.5 93t-95 57t-123.5 22
q-334 0 -334 -477t334 -477q69 0 120 27t80 74.5t42.5 104t13.5 123.5h-273v221zM750 1868l251 -312h-233l-123 185l-123 -185h-231l252 312h207z" />
    <glyph glyph-name="gcircumflex" unicode="&#x11d;" 
d="M874 653q0 -171 -107.5 -265.5t-285.5 -94.5q-55 0 -108 20q-51 -38 -51 -86q0 -37 49 -37q55 0 161 25t160 25q114 0 188 -69t74 -181q0 -90 -41 -165.5t-108.5 -124.5t-150.5 -76t-169 -27q-78 0 -150 16.5t-135 51t-101 96.5t-38 143q0 50 17 94l215 -64
q-2 -10 -2 -26q0 -43 51.5 -67.5t118.5 -24.5q61 0 119.5 17.5t101.5 56.5t43 90q0 30 -22.5 46.5t-53.5 16.5q-44 0 -128.5 -16.5t-127.5 -16.5q-49 0 -94.5 11t-85.5 32.5t-64 61t-24 90.5q0 99 78 184q-99 99 -99 264q0 178 102 274.5t283 96.5q143 0 232 -57
q24 31 24 82h203q-4 -176 -98 -238q24 -85 24 -158zM641 653q0 70 -41 107t-111 37t-111.5 -37t-41.5 -107q0 -145 153 -145q152 0 152 145zM616 1415l252 -311h-233l-123 184l-123 -184h-231l252 311h206z" />
    <glyph glyph-name="Gbreve" unicode="&#x11e;" horiz-adv-x="1294" 
d="M659 788h527v-788h-217v133q-53 -82 -126.5 -115.5t-174.5 -33.5q-123 0 -223 40.5t-166 108.5t-111 162.5t-64.5 199t-19.5 220.5q0 117 20.5 222t66 199t113 162t168 108t224.5 40q161 0 269.5 -62.5t213.5 -199.5l-180 -164q-45 58 -84.5 93t-95 57t-123.5 22
q-334 0 -334 -477t334 -477q69 0 120 27t80 74.5t42.5 104t13.5 123.5h-273v221zM868 1874h166q-61 -146 -160.5 -221.5t-226.5 -75.5q-126 0 -225.5 75.5t-163.5 221.5h168q83 -145 221 -145t221 145z" />
    <glyph glyph-name="gbreve" unicode="&#x11f;" 
d="M874 653q0 -171 -107.5 -265.5t-285.5 -94.5q-55 0 -108 20q-51 -38 -51 -86q0 -37 49 -37q55 0 161 25t160 25q114 0 188 -69t74 -181q0 -90 -41 -165.5t-108.5 -124.5t-150.5 -76t-169 -27q-78 0 -150 16.5t-135 51t-101 96.5t-38 143q0 50 17 94l215 -64
q-2 -10 -2 -26q0 -43 51.5 -67.5t118.5 -24.5q61 0 119.5 17.5t101.5 56.5t43 90q0 30 -22.5 46.5t-53.5 16.5q-44 0 -128.5 -16.5t-127.5 -16.5q-49 0 -94.5 11t-85.5 32.5t-64 61t-24 90.5q0 99 78 184q-99 99 -99 264q0 178 102 274.5t283 96.5q143 0 232 -57
q24 31 24 82h203q-4 -176 -98 -238q24 -85 24 -158zM641 653q0 70 -41 107t-111 37t-111.5 -37t-41.5 -107q0 -145 153 -145q152 0 152 145zM735 1421h166q-61 -146 -160.5 -221.5t-226.5 -75.5q-126 0 -225.5 75.5t-163.5 221.5h168q83 -145 221 -145t221 145z" />
    <glyph glyph-name="Gdotaccent" unicode="&#x120;" horiz-adv-x="1294" 
d="M659 788h527v-788h-217v133q-53 -82 -126.5 -115.5t-174.5 -33.5q-123 0 -223 40.5t-166 108.5t-111 162.5t-64.5 199t-19.5 220.5q0 117 20.5 222t66 199t113 162t168 108t224.5 40q161 0 269.5 -62.5t213.5 -199.5l-180 -164q-45 58 -84.5 93t-95 57t-123.5 22
q-334 0 -334 -477t334 -477q69 0 120 27t80 74.5t42.5 104t13.5 123.5h-273v221zM772 1657q0 -52 -37 -88.5t-90 -36.5t-89 36t-36 89t36 89t89 36t90 -36.5t37 -88.5z" />
    <glyph glyph-name="gdotaccent" unicode="&#x121;" 
d="M874 653q0 -171 -107.5 -265.5t-285.5 -94.5q-55 0 -108 20q-51 -38 -51 -86q0 -37 49 -37q55 0 161 25t160 25q114 0 188 -69t74 -181q0 -90 -41 -165.5t-108.5 -124.5t-150.5 -76t-169 -27q-78 0 -150 16.5t-135 51t-101 96.5t-38 143q0 50 17 94l215 -64
q-2 -10 -2 -26q0 -43 51.5 -67.5t118.5 -24.5q61 0 119.5 17.5t101.5 56.5t43 90q0 30 -22.5 46.5t-53.5 16.5q-44 0 -128.5 -16.5t-127.5 -16.5q-49 0 -94.5 11t-85.5 32.5t-64 61t-24 90.5q0 99 78 184q-99 99 -99 264q0 178 102 274.5t283 96.5q143 0 232 -57
q24 31 24 82h203q-4 -176 -98 -238q24 -85 24 -158zM641 653q0 70 -41 107t-111 37t-111.5 -37t-41.5 -107q0 -145 153 -145q152 0 152 145zM639 1204q0 -52 -37 -88.5t-90 -36.5q-51 0 -88 36.5t-37 88.5t37 88.5t88 36.5q53 0 90 -36.5t37 -88.5z" />
    <glyph glyph-name="Gcommaaccent" unicode="&#x122;" horiz-adv-x="1294" 
d="M659 788h527v-788h-217v133q-53 -82 -126.5 -115.5t-174.5 -33.5q-123 0 -223 40.5t-166 108.5t-111 162.5t-64.5 199t-19.5 220.5q0 117 20.5 222t66 199t113 162t168 108t224.5 40q161 0 269.5 -62.5t213.5 -199.5l-180 -164q-45 58 -84.5 93t-95 57t-123.5 22
q-334 0 -334 -477t334 -477q69 0 120 27t80 74.5t42.5 104t13.5 123.5h-273v221zM782 -281v-112l-164 -262h-94v374q0 54 37.5 90.5t91.5 36.5t91.5 -36.5t37.5 -90.5z" />
    <glyph glyph-name="gcommaaccent" unicode="&#x123;" 
d="M874 653q0 -171 -107.5 -265.5t-285.5 -94.5q-55 0 -108 20q-51 -38 -51 -86q0 -37 49 -37q55 0 161 25t160 25q114 0 188 -69t74 -181q0 -90 -41 -165.5t-108.5 -124.5t-150.5 -76t-169 -27q-78 0 -150 16.5t-135 51t-101 96.5t-38 143q0 50 17 94l215 -64
q-2 -10 -2 -26q0 -43 51.5 -67.5t118.5 -24.5q61 0 119.5 17.5t101.5 56.5t43 90q0 30 -22.5 46.5t-53.5 16.5q-44 0 -128.5 -16.5t-127.5 -16.5q-49 0 -94.5 11t-85.5 32.5t-64 61t-24 90.5q0 99 78 184q-99 99 -99 264q0 178 102 274.5t283 96.5q143 0 232 -57
q24 31 24 82h203q-4 -176 -98 -238q24 -85 24 -158zM641 653q0 70 -41 107t-111 37t-111.5 -37t-41.5 -107q0 -145 153 -145q152 0 152 145zM383 1251v113l164 262h94v-375q0 -53 -37.5 -90t-91.5 -37t-91.5 37t-37.5 90z" />
    <glyph glyph-name="Hcircumflex" unicode="&#x124;" horiz-adv-x="1372" 
d="M1229 1430v-1430h-258v614h-568v-614h-258v1430h258v-574h568v574h258zM791 1868l251 -312h-233l-123 185l-123 -185h-231l250 312h209z" />
    <glyph glyph-name="hcircumflex" unicode="&#x125;" horiz-adv-x="1064" 
d="M969 561v-561h-246v561q0 223 -178 223q-61 0 -113.5 -44t-52.5 -109v-631h-244v1430h244v-478q66 74 199 74q100 0 176 -35t122.5 -98t69.5 -146.5t23 -185.5zM367 1841l251 -311h-233l-123 184l-123 -184h-233l252 311h209z" />
    <glyph glyph-name="Hbar" unicode="&#x126;" horiz-adv-x="1372" 
d="M1372 1217v-164h-143v-1053h-258v614h-568v-614h-258v1053h-145v164h145v213h258v-213h568v213h258v-213h143zM403 856h568v197h-568v-197z" />
    <glyph glyph-name="hbar" unicode="&#x127;" horiz-adv-x="1064" 
d="M862 1335v-161h-483v-222q66 74 199 74q100 0 176 -35t122.5 -98t69.5 -146.5t23 -185.5v-561h-246v561q0 223 -178 223q-61 0 -113.5 -44t-52.5 -109v-631h-244v1430h244v-95h483z" />
    <glyph glyph-name="Itilde" unicode="&#x128;" horiz-adv-x="561" 
d="M410 1430v-1430h-258v1430h258zM520 1800l127 -104q-56 -73 -106.5 -108.5t-126.5 -35.5q-40 0 -76 15t-58 33.5t-56 33.5t-72 15q-56 0 -113 -78l-123 104q46 74 100 108t136 34q43 0 79 -15t58 -33.5t54 -33.5t67 -15q66 0 110 80z" />
    <glyph glyph-name="itilde" unicode="&#x129;" horiz-adv-x="503" 
d="M377 1008v-1008h-240v1008h240zM492 1348l126 -105q-36 -47 -65 -75t-72.5 -48t-95.5 -20q-40 0 -76 15t-58.5 33t-56.5 33t-71 15q-56 0 -113 -78l-123 105q46 73 100 107t136 34q42 0 78 -15t58 -33t54.5 -33t67.5 -15q67 0 111 80z" />
    <glyph glyph-name="imacron" unicode="&#x12b;" horiz-adv-x="505" 
d="M379 1008v-1008h-240v1008h240zM584 1327v-164h-662v164h662z" />
    <glyph glyph-name="Ibreve" unicode="&#x12c;" horiz-adv-x="561" 
d="M410 1430v-1430h-258v1430h258zM502 1874h168q-62 -146 -162 -221.5t-227 -75.5q-126 0 -225.5 75.5t-161.5 221.5h165q83 -145 222 -145q141 0 221 145z" />
    <glyph glyph-name="Iogonek" unicode="&#x12e;" horiz-adv-x="561" 
d="M410 1430v-1430h-70l283 -408h-228l-243 408v1430h258z" />
    <glyph glyph-name="iogonek" unicode="&#x12f;" horiz-adv-x="514" 
d="M328 0l284 -408h-227l-246 408v1008h240v-1008h-51zM406 1335q0 -60 -42.5 -102.5t-103.5 -42.5q-59 0 -101 42.5t-42 102.5t42 102t101 42q61 0 103.5 -42t42.5 -102z" />
    <glyph glyph-name="Idotaccent" unicode="&#x130;" horiz-adv-x="561" 
d="M410 1430v-1430h-258v1430h258zM406 1657q0 -53 -36.5 -89t-90.5 -36q-51 0 -87 36.5t-36 88.5t36 88.5t87 36.5q54 0 90.5 -36t36.5 -89z" />
    <glyph glyph-name="dotlessi" unicode="&#x131;" horiz-adv-x="497" 
d="M367 1008v-1008h-238v1008h238z" />
    <glyph glyph-name="Jcircumflex" unicode="&#x134;" horiz-adv-x="1148" 
d="M1006 1430v-975q0 -229 -124.5 -349t-357.5 -120q-201 0 -316.5 98.5t-162.5 288.5l246 67q55 -204 231 -204q121 0 174.5 55.5t53.5 171.5v967h256zM985 1868l252 -312h-233l-125 185l-121 -185h-234l252 312h209z" />
    <glyph glyph-name="jcircumflex" unicode="&#x135;" horiz-adv-x="540" 
d="M397 1008v-1071q0 -158 -85 -255t-244 -116l-76 207q168 30 168 186v1049h237zM385 1415l252 -311h-234l-124 184l-121 -184h-234l252 311h209z" />
    <glyph glyph-name="Kcommaaccent" unicode="&#x136;" horiz-adv-x="1265" 
d="M1190 1430l-479 -707l532 -723h-305l-506 721l473 709h285zM403 0h-258v1430h258v-1430zM760 -281v-112l-164 -262h-94v374q0 54 37.5 90.5t91.5 36.5t91.5 -36.5t37.5 -90.5z" />
    <glyph glyph-name="kcommaaccent" unicode="&#x137;" horiz-adv-x="976" 
d="M621 555l358 -555h-264l-342 553l286 455h256zM362 1430v-1430h-235v1430h235zM618 -281v-112l-163 -262h-97v374q0 53 38 90t91 37q56 0 93.5 -36.5t37.5 -90.5z" />
    <glyph glyph-name="Lacute" unicode="&#x139;" horiz-adv-x="1110" 
d="M1028 248v-248h-883v1430h256v-1182h627zM319 1880h252l-254 -330h-172z" />
    <glyph glyph-name="lacute" unicode="&#x13a;" horiz-adv-x="509" 
d="M438 207v-207q-158 2 -234.5 64t-76.5 215v1151h231v-1147q0 -38 18.5 -56.5t61.5 -19.5zM301 1835h252l-254 -330h-172z" />
    <glyph glyph-name="Lcommaaccent" unicode="&#x13b;" horiz-adv-x="1110" 
d="M1028 248v-248h-883v1430h256v-1182h627zM690 -281v-112l-164 -262h-94v374q0 54 37.5 90.5t91.5 36.5t91.5 -36.5t37.5 -90.5z" />
    <glyph glyph-name="lcommaaccent" unicode="&#x13c;" horiz-adv-x="509" 
d="M438 207v-207q-158 2 -234.5 64t-76.5 215v1151h231v-1147q0 -38 18.5 -56.5t61.5 -19.5zM387 -281v-112l-164 -262h-94v374q0 54 37.5 90.5t91.5 36.5t91.5 -36.5t37.5 -90.5z" />
    <glyph glyph-name="Lcaron" unicode="&#x13d;" horiz-adv-x="1110" 
d="M1028 248v-248h-883v1430h256v-1182h627zM1024 1405l-10 -111l-152 -241h-86l10 350q0 50 35 85.5t84 35.5q50 0 86.5 -36t32.5 -83z" />
    <glyph glyph-name="lcaron" unicode="&#x13e;" horiz-adv-x="509" 
d="M438 207v-207q-158 2 -234.5 64t-76.5 215v1151h231v-1147q0 -38 18.5 -56.5t61.5 -19.5zM741 1415l-12 -110l-151 -242h-86l10 352q2 48 36 83.5t83 35.5q50 0 86.5 -36t33.5 -83z" />
    <glyph glyph-name="Lslash" unicode="&#x141;" horiz-adv-x="1126" 
d="M1071 254v-254h-895v494l-76 -33v196l76 33v740h262v-625l260 113v-199l-260 -113v-352h633z" />
    <glyph glyph-name="lslash" unicode="&#x142;" horiz-adv-x="620" 
d="M520 874v-196l-112 -53v-342q0 -39 17 -57t62 -19v-207q-160 2 -237.5 65.5t-77.5 213.5v233l-86 -43v199l86 41v721h236v-607z" />
    <glyph glyph-name="Nacute" unicode="&#x143;" horiz-adv-x="1327" 
d="M1182 1430v-1430h-211l-568 895v-895h-258v1430h213l568 -895v895h256zM625 1880h252l-254 -330h-172z" />
    <glyph glyph-name="nacute" unicode="&#x144;" horiz-adv-x="1083" 
d="M969 567v-567h-246v563q0 107 -38 165t-140 58q-71 0 -118.5 -49t-47.5 -116v-621h-244v1008h201l8 -62q37 38 96 60t115 22q414 0 414 -461zM504 1427h250l-254 -329h-172z" />
    <glyph glyph-name="Ncommaaccent" unicode="&#x145;" horiz-adv-x="1327" 
d="M1182 1430v-1430h-211l-568 895v-895h-258v1430h213l568 -895v895h256zM784 -281v-112l-163 -262h-95v374q0 54 37.5 90.5t91.5 36.5t91.5 -36.5t37.5 -90.5z" />
    <glyph glyph-name="ncommaaccent" unicode="&#x146;" horiz-adv-x="1083" 
d="M969 567v-567h-246v563q0 107 -38 165t-140 58q-71 0 -118.5 -49t-47.5 -116v-621h-244v1008h201l8 -62q37 38 96 60t115 22q414 0 414 -461zM670 -281v-112l-164 -262h-94v374q0 54 37.5 90.5t91.5 36.5t91.5 -36.5t37.5 -90.5z" />
    <glyph glyph-name="Ncaron" unicode="&#x147;" horiz-adv-x="1327" 
d="M1182 0v1430h-256v-895l-568 895h-213v-1430h258v895l568 -895h211zM1020 1866l-252 -312h-209l-252 312h234l121 -185l124 185h234z" />
    <glyph glyph-name="ncaron" unicode="&#x148;" horiz-adv-x="1083" 
d="M969 0v567q0 461 -414 461q-56 0 -115 -22t-96 -60l-8 62h-201v-1008h244v621q0 67 47.5 116t118.5 49q102 0 140 -58t38 -165v-563h246zM897 1413l-252 -311h-209l-250 311h232l123 -184l123 184h233z" />
    <glyph glyph-name="Eng" unicode="&#x14a;" horiz-adv-x="1327" 
d="M1182 1430l-2 -1493q0 -158 -84.5 -255t-243.5 -116l-76 207q168 31 168 186v82l-541 854v-895h-258v1430h213l568 -895v895h256z" />
    <glyph glyph-name="eng" unicode="&#x14b;" horiz-adv-x="1083" 
d="M969 567v-630q0 -158 -85.5 -255t-244.5 -116l-76 207q83 15 121.5 59.5t38.5 126.5v604q0 107 -38 165t-140 58q-71 0 -118.5 -49t-47.5 -116v-621h-244v1008h201l8 -62q37 38 96 60t115 22q414 0 414 -461z" />
    <glyph glyph-name="Omacron" unicode="&#x14c;" horiz-adv-x="1351" 
d="M1268 715q0 -117 -20 -221.5t-65 -199t-112.5 -162.5t-168.5 -108t-226 -40t-226 40t-168.5 108t-112.5 162.5t-65 199t-20 221.5t20 221.5t65 199t112.5 162.5t168.5 108t226 40t226 -39.5t168.5 -107.5t112.5 -162.5t65 -199t20 -222.5zM1008 715q0 74 -7 136
t-28.5 127.5t-57 110.5t-96.5 74t-143 29q-334 0 -334 -477t334 -477q332 0 332 477zM1006 1780v-164h-662v164h662z" />
    <glyph glyph-name="omacron" unicode="&#x14d;" horiz-adv-x="1052" 
d="M977 502q0 -115 -25.5 -208t-78 -164.5t-141 -110.5t-206.5 -39t-206.5 39t-140.5 110.5t-77.5 164.5t-25.5 208t25.5 208t77.5 164.5t140.5 110.5t206.5 39t206.5 -39t141 -110.5t78 -164.5t25.5 -208zM729 502q0 47 -4 84.5t-17.5 76.5t-35 65.5t-59 43t-87.5 16.5
q-51 0 -88.5 -17t-59 -43t-34 -65t-16.5 -76.5t-4 -84.5q0 -48 4 -85t16.5 -76.5t34 -65t59 -42t88.5 -16.5q62 0 104.5 23.5t63 66.5t28 89t7.5 106zM858 1327v-164h-661v164h661z" />
    <glyph glyph-name="Obreve" unicode="&#x14e;" horiz-adv-x="1351" 
d="M1268 715q0 -117 -20 -221.5t-65 -199t-112.5 -162.5t-168.5 -108t-226 -40t-226 40t-168.5 108t-112.5 162.5t-65 199t-20 221.5t20 221.5t65 199t112.5 162.5t168.5 108t226 40t226 -39.5t168.5 -107.5t112.5 -162.5t65 -199t20 -222.5zM1008 715q0 74 -7 136
t-28.5 127.5t-57 110.5t-96.5 74t-143 29q-334 0 -334 -477t334 -477q332 0 332 477zM897 1874h166q-61 -146 -160.5 -221.5t-226.5 -75.5q-126 0 -225.5 75.5t-163.5 221.5h168q83 -145 221 -145q141 0 221 145z" />
    <glyph glyph-name="obreve" unicode="&#x14f;" horiz-adv-x="1052" 
d="M977 502q0 -115 -25.5 -208t-78 -164.5t-141 -110.5t-206.5 -39t-206.5 39t-140.5 110.5t-77.5 164.5t-25.5 208t25.5 208t77.5 164.5t140.5 110.5t206.5 39t206.5 -39t141 -110.5t78 -164.5t25.5 -208zM729 502q0 47 -4 84.5t-17.5 76.5t-35 65.5t-59 43t-87.5 16.5
q-51 0 -88.5 -17t-59 -43t-34 -65t-16.5 -76.5t-4 -84.5q0 -48 4 -85t16.5 -76.5t34 -65t59 -42t88.5 -16.5q62 0 104.5 23.5t63 66.5t28 89t7.5 106zM748 1421h165q-61 -146 -160.5 -221.5t-226.5 -75.5q-126 0 -225.5 75.5t-163.5 221.5h168q83 -145 221 -145
q142 0 222 145z" />
    <glyph glyph-name="Ohungarumlaut" unicode="&#x150;" horiz-adv-x="1351" 
d="M1268 715q0 -117 -20 -221.5t-65 -199t-112.5 -162.5t-168.5 -108t-226 -40t-226 40t-168.5 108t-112.5 162.5t-65 199t-20 221.5t20 221.5t65 199t112.5 162.5t168.5 108t226 40t226 -39.5t168.5 -107.5t112.5 -162.5t65 -199t20 -222.5zM1008 715q0 74 -7 136
t-28.5 127.5t-57 110.5t-96.5 74t-143 29q-334 0 -334 -477t334 -477q332 0 332 477zM788 1917h224l-246 -311h-127zM487 1917h226l-246 -311h-127z" />
    <glyph glyph-name="ohungarumlaut" unicode="&#x151;" horiz-adv-x="1052" 
d="M977 502q0 -115 -25.5 -208t-78 -164.5t-141 -110.5t-206.5 -39t-206.5 39t-140.5 110.5t-77.5 164.5t-25.5 208t25.5 208t77.5 164.5t140.5 110.5t206.5 39t206.5 -39t141 -110.5t78 -164.5t25.5 -208zM729 502q0 47 -4 84.5t-17.5 76.5t-35 65.5t-59 43t-87.5 16.5
q-51 0 -88.5 -17t-59 -43t-34 -65t-16.5 -76.5t-4 -84.5q0 -48 4 -85t16.5 -76.5t34 -65t59 -42t88.5 -16.5q62 0 104.5 23.5t63 66.5t28 89t7.5 106zM639 1464h223l-246 -311h-127zM338 1464h225l-246 -311h-127z" />
    <glyph glyph-name="OE" unicode="&#x152;" horiz-adv-x="2068" 
d="M1966 0h-956v104q-125 -120 -336 -120q-125 0 -225.5 39.5t-167.5 107.5t-112 162.5t-65 199t-20 222.5t20 222.5t65 199t112 162.5t167.5 107.5t225.5 39.5q212 0 336 -119v103h956v-254h-698v-318h606v-244h-606v-360h698v-254zM1006 715q0 477 -332 477t-332 -477
t332 -477t332 477z" />
    <glyph glyph-name="oe" unicode="&#x153;" horiz-adv-x="1656" 
d="M1403 319l168 -161q-89 -89 -175.5 -132.5t-199.5 -43.5q-210 0 -336 143q-118 -145 -336 -145q-118 0 -205.5 39t-140 110.5t-77.5 164.5t-25 208t25 208t77.5 164.5t140 110.5t205.5 39q218 0 334 -143q124 141 328 141q105 0 184.5 -44t124.5 -118.5t66.5 -161
t21.5 -182.5v-70h-608q9 -108 64.5 -170.5t158.5 -62.5q106 0 205 106zM979 602h377q-21 193 -180 193q-171 0 -197 -193zM725 502q0 46 -4 83.5t-17 76t-34.5 65t-58.5 43t-87 16.5t-87.5 -16.5t-58.5 -42.5t-33.5 -65.5t-16.5 -76t-4 -83.5t4 -84t16.5 -76.5t33.5 -65.5
t58.5 -42.5t87.5 -16.5q62 0 104 23.5t62 67.5t27.5 89t7.5 105z" />
    <glyph glyph-name="Racute" unicode="&#x154;" horiz-adv-x="1277" 
d="M1151 1004q0 -139 -80.5 -242.5t-220.5 -143.5q32 -23 70 -88l335 -530h-299l-290 485q-36 62 -66 84.5t-94 22.5h-103v-592h-258v1430h517q106 0 193.5 -25.5t154.5 -76t104 -133.5t37 -191zM893 1004q0 52 -17.5 88.5t-50.5 55.5t-71.5 26.5t-89.5 7.5h-261v-363h261
q52 0 91 8t71.5 28t49.5 57.5t17 91.5zM590 1880h250l-254 -330h-172z" />
    <glyph glyph-name="racute" unicode="&#x155;" horiz-adv-x="819" 
d="M764 961l-92 -191q-71 29 -121 29q-78 0 -125 -45t-47 -117v-637h-244v1008h199l10 -64q12 24 74.5 56t132.5 32q107 0 213 -71zM326 1427h252l-254 -329h-172z" />
    <glyph glyph-name="Rcommaaccent" unicode="&#x156;" horiz-adv-x="1277" 
d="M1151 1004q0 -139 -80.5 -242.5t-220.5 -143.5q32 -23 70 -88l335 -530h-299l-290 485q-36 62 -66 84.5t-94 22.5h-103v-592h-258v1430h517q106 0 193.5 -25.5t154.5 -76t104 -133.5t37 -191zM893 1004q0 52 -17.5 88.5t-50.5 55.5t-71.5 26.5t-89.5 7.5h-261v-363h261
q52 0 91 8t71.5 28t49.5 57.5t17 91.5zM762 -281v-112l-164 -262h-94v374q0 54 37.5 90.5t91.5 36.5t91.5 -36.5t37.5 -90.5z" />
    <glyph glyph-name="rcommaaccent" unicode="&#x157;" horiz-adv-x="819" 
d="M764 961l-92 -191q-71 29 -121 29q-78 0 -125 -45t-47 -117v-637h-244v1008h199l10 -64q12 24 74.5 56t132.5 32q107 0 213 -71zM391 -281v-112l-164 -262h-94v374q0 54 37.5 90.5t91.5 36.5t91.5 -36.5t37.5 -90.5z" />
    <glyph glyph-name="Rcaron" unicode="&#x158;" horiz-adv-x="1277" 
d="M1151 1004q0 108 -37 191t-104 133.5t-154.5 76t-193.5 25.5h-517v-1430h258v592h103q64 0 94 -22.5t66 -84.5l290 -485h299l-335 530q-38 65 -70 88q140 40 220.5 143.5t80.5 242.5zM893 1004q0 -54 -17 -91.5t-49.5 -57.5t-71.5 -28t-91 -8h-261v363h261
q51 0 89.5 -7.5t71.5 -26.5t50.5 -55.5t17.5 -88.5zM987 1866l-252 -312h-209l-252 312h234l121 -185l125 185h233z" />
    <glyph glyph-name="rcaron" unicode="&#x159;" horiz-adv-x="819" 
d="M764 961q-106 71 -213 71q-70 0 -132.5 -32t-74.5 -56l-10 64h-199v-1008h244v637q0 72 47 117t125 45q50 0 121 -29zM766 1413l-252 -311h-209l-250 311h232l123 -184l122 184h234z" />
    <glyph glyph-name="Sacute" unicode="&#x15a;" horiz-adv-x="1257" 
d="M1182 430q0 -85 -29.5 -158.5t-80 -126t-118 -90.5t-144.5 -56.5t-157 -18.5q-467 0 -573 421l244 48q60 -224 329 -224q65 0 124.5 20.5t103 69t43.5 115.5q0 47 -27.5 81.5t-73.5 56t-105.5 38.5t-125.5 32.5t-132.5 34.5t-126 49t-105.5 70.5t-73.5 105t-27.5 146.5
q0 79 27 145.5t74 113t109 79.5t131.5 48.5t143.5 15.5q191 0 317.5 -76t209.5 -242l-224 -102q-51 96 -121 138t-182 42q-37 0 -74.5 -8.5t-73 -26.5t-57.5 -51t-22 -76q0 -40 27.5 -69.5t73.5 -48.5t105.5 -35t126 -33t132.5 -37.5t125.5 -53.5t105.5 -76t73.5 -110
t27.5 -151zM590 1880h250l-252 -330h-174z" />
    <glyph glyph-name="sacute" unicode="&#x15b;" horiz-adv-x="954" 
d="M889 303q0 -78 -34.5 -141t-91 -102t-126 -59.5t-143.5 -20.5q-354 0 -416 274l213 55q40 -110 198 -110q35 0 67.5 6.5t61.5 29t29 58.5q0 40 -41.5 68t-103 43t-134 38.5t-134 52.5t-103 88t-41.5 142q0 100 52.5 170t133 100.5t179.5 30.5q140 0 226 -43t157 -154
l-187 -104q-66 88 -174 88q-22 0 -44 -3.5t-45 -12.5t-37.5 -27.5t-14.5 -44.5q0 -30 30.5 -51.5t79.5 -35t107.5 -27.5t117.5 -36t108 -54t79.5 -87.5t30.5 -130.5zM438 1427h250l-252 -329h-174z" />
    <glyph glyph-name="Scircumflex" unicode="&#x15c;" horiz-adv-x="1257" 
d="M1182 430q0 -85 -29.5 -158.5t-80 -126t-118 -90.5t-144.5 -56.5t-157 -18.5q-467 0 -573 421l244 48q60 -224 329 -224q65 0 124.5 20.5t103 69t43.5 115.5q0 47 -27.5 81.5t-73.5 56t-105.5 38.5t-125.5 32.5t-132.5 34.5t-126 49t-105.5 70.5t-73.5 105t-27.5 146.5
q0 79 27 145.5t74 113t109 79.5t131.5 48.5t143.5 15.5q191 0 317.5 -76t209.5 -242l-224 -102q-51 96 -121 138t-182 42q-37 0 -74.5 -8.5t-73 -26.5t-57.5 -51t-22 -76q0 -40 27.5 -69.5t73.5 -48.5t105.5 -35t126 -33t132.5 -37.5t125.5 -53.5t105.5 -76t73.5 -110
t27.5 -151zM733 1868l250 -312h-231l-125 185l-121 -185h-234l252 312h209z" />
    <glyph glyph-name="scircumflex" unicode="&#x15d;" horiz-adv-x="954" 
d="M889 303q0 -78 -34.5 -141t-91 -102t-126 -59.5t-143.5 -20.5q-354 0 -416 274l213 55q40 -110 198 -110q35 0 67.5 6.5t61.5 29t29 58.5q0 40 -41.5 68t-103 43t-134 38.5t-134 52.5t-103 88t-41.5 142q0 100 52.5 170t133 100.5t179.5 30.5q140 0 226 -43t157 -154
l-187 -104q-66 88 -174 88q-22 0 -44 -3.5t-45 -12.5t-37.5 -27.5t-14.5 -44.5q0 -30 30.5 -51.5t79.5 -35t107.5 -27.5t117.5 -36t108 -54t79.5 -87.5t30.5 -130.5zM582 1415l252 -311h-234l-125 184l-121 -184h-233l252 311h209z" />
    <glyph glyph-name="Scedilla" unicode="&#x15e;" horiz-adv-x="1257" 
d="M762 -10l45 -131l-139 -267h-219l196 277l-43 113q-426 25 -522 419l244 48q60 -224 329 -224q65 0 124.5 20.5t103 69t43.5 115.5q0 47 -27.5 81.5t-73.5 56t-105.5 38.5t-125.5 32.5t-132.5 34.5t-126 49t-105.5 70.5t-73.5 105t-27.5 146.5q0 79 27 145.5t74 113
t109 79.5t131.5 48.5t143.5 15.5q191 0 317.5 -76t209.5 -242l-224 -102q-51 96 -121 138t-182 42q-37 0 -74.5 -8.5t-73 -26.5t-57.5 -51t-22 -76q0 -40 27.5 -69.5t73.5 -48.5t105.5 -35t126 -33t132.5 -37.5t125.5 -53.5t105.5 -76t73.5 -110t27.5 -151
q0 -91 -33.5 -168.5t-92 -132t-133.5 -90t-161 -49.5z" />
    <glyph glyph-name="scedilla" unicode="&#x15f;" horiz-adv-x="954" 
d="M610 -6l47 -135l-139 -267h-221l199 277l-45 113q-314 17 -373 272l213 55q40 -110 198 -110q35 0 67.5 6.5t61.5 29t29 58.5q0 40 -41.5 68t-103 43t-134 38.5t-134 52.5t-103 88t-41.5 142q0 100 52.5 170t133 100.5t179.5 30.5q140 0 226 -43t157 -154l-187 -104
q-66 88 -174 88q-22 0 -44 -3.5t-45 -12.5t-37.5 -27.5t-14.5 -44.5q0 -30 30.5 -51.5t79.5 -35t107.5 -27.5t117.5 -36t108 -54t79.5 -87.5t30.5 -130.5q0 -121 -79 -201t-200 -108z" />
    <glyph glyph-name="Scaron" unicode="&#x160;" horiz-adv-x="1257" 
d="M1182 430q0 84 -27.5 151t-73.5 110t-105.5 76t-126 53.5t-132.5 37.5t-125.5 33t-105.5 35t-73.5 48.5t-27.5 69.5q0 43 22 76t57.5 51t73 26.5t74.5 8.5q112 0 182 -42t121 -138l224 102q-83 166 -209.5 242t-317.5 76q-74 0 -143.5 -15.5t-131.5 -48.5t-109 -79.5
t-74 -113t-27 -145.5q0 -82 27.5 -146.5t73.5 -105t105.5 -70.5t126 -49t132.5 -34.5t125.5 -32.5t105.5 -38.5t73.5 -56t27.5 -81.5q0 -67 -43.5 -115.5t-103 -69t-124.5 -20.5q-269 0 -329 224l-244 -48q106 -421 573 -421q80 0 157 18.5t144.5 56.5t118 90.5t80 126
t29.5 158.5zM983 1866l-250 -312h-209l-252 312h234l121 -185l125 185h231z" />
    <glyph glyph-name="scaron" unicode="&#x161;" horiz-adv-x="954" 
d="M889 303q0 75 -30.5 130.5t-79.5 87.5t-107.5 54t-117.5 36t-108 27.5t-79.5 35t-30.5 51.5q0 26 14.5 44.5t37.5 27.5t45 12.5t44 3.5q108 0 174 -88l187 104q-71 111 -157 154t-226 43q-99 0 -179.5 -30.5t-133 -100.5t-52.5 -170q0 -83 41.5 -142t103 -88t134 -52.5
t134 -38.5t103 -43t41.5 -68q0 -36 -29 -58.5t-61.5 -29t-67.5 -6.5q-158 0 -198 110l-213 -55q62 -274 416 -274q74 0 143.5 20.5t126 59.5t91 102t34.5 141zM834 1413l-252 -311h-209l-252 311h233l121 -184l125 184h234z" />
    <glyph glyph-name="Tcommaaccent" unicode="&#x162;" horiz-adv-x="1200" 
d="M1141 1430v-254h-412v-1176h-258v1176h-412v254h1082zM729 -281v-112l-166 -262h-94v374q0 53 38 90t91 37q56 0 93.5 -36.5t37.5 -90.5z" />
    <glyph glyph-name="tcommaaccent" unicode="&#x163;" horiz-adv-x="657" 
d="M565 1008v-207h-137v-504q0 -46 23.5 -68t76.5 -22v-207h-94q-119 0 -181.5 77t-62.5 199v525h-120v207h120v274h238v-274h137zM461 -281v-112l-164 -262h-94v374q0 54 37.5 90.5t91.5 36.5t91.5 -36.5t37.5 -90.5z" />
    <glyph glyph-name="Tcaron" unicode="&#x164;" horiz-adv-x="1200" 
d="M1141 1176v254h-1082v-254h412v-1176h258v1176h412zM956 1866l-251 -312h-209l-252 312h233l121 -185l125 185h233z" />
    <glyph glyph-name="tcaron" unicode="&#x165;" horiz-adv-x="657" 
d="M565 1008v-207h-137v-504q0 -46 23.5 -68t76.5 -22v-207h-94q-119 0 -181.5 77t-62.5 199v525h-120v207h120v274h238v-274h137zM770 1407v-328h-221v328q0 46 32 78.5t76 32.5q46 0 79.5 -32.5t33.5 -78.5z" />
    <glyph glyph-name="Tbar" unicode="&#x166;" horiz-adv-x="1200" 
d="M1141 1430v-254h-412v-271h250v-164h-250v-741h-258v741h-248v164h248v271h-412v254h1082z" />
    <glyph glyph-name="tbar" unicode="&#x167;" horiz-adv-x="657" 
d="M565 664v-164h-137v-203q0 -46 23.5 -68t76.5 -22v-207h-94q-119 0 -181.5 77t-62.5 199v224h-118v164h118v137h-120v207h120v274h238v-274h137v-207h-137v-137h137z" />
    <glyph glyph-name="Utilde" unicode="&#x168;" horiz-adv-x="1335" 
d="M1208 1430v-836q0 -610 -540 -610q-144 0 -249 43.5t-168.5 125.5t-93.5 191.5t-30 249.5v836h256v-824q0 -65 6 -115.5t24.5 -101t49.5 -83t83 -53t122 -20.5q72 0 124.5 20t83 51.5t48 82.5t23 101t5.5 118v824h256zM905 1800l127 -104q-56 -73 -106.5 -108.5
t-126.5 -35.5q-40 0 -75.5 15t-58 33.5t-56.5 33.5t-72 15q-56 0 -113 -78l-123 104q46 74 100 108t136 34q43 0 79 -15t58 -33.5t54.5 -33.5t68.5 -15q64 0 108 80z" />
    <glyph glyph-name="utilde" unicode="&#x169;" horiz-adv-x="1081" 
d="M948 1008v-1008h-200l-11 59q-92 -77 -205 -77q-209 0 -313 114.5t-104 325.5v586h243v-572q0 -51 7.5 -88t26.5 -67.5t55.5 -46t91.5 -15.5q68 0 115.5 44.5t47.5 113.5v631h246zM778 1348l127 -105q-55 -72 -106 -107.5t-127 -35.5q-40 0 -75.5 15t-58 33t-56.5 33
t-72 15q-56 0 -113 -78l-123 105q46 73 100 107t136 34q43 0 79 -15t58 -33t54.5 -33t68.5 -15q64 0 108 80z" />
    <glyph glyph-name="Umacron" unicode="&#x16a;" horiz-adv-x="1335" 
d="M1208 1430v-836q0 -610 -540 -610q-144 0 -249 43.5t-168.5 125.5t-93.5 191.5t-30 249.5v836h256v-824q0 -65 6 -115.5t24.5 -101t49.5 -83t83 -53t122 -20.5q72 0 124.5 20t83 51.5t48 82.5t23 101t5.5 118v824h256zM997 1780v-164h-659v164h659z" />
    <glyph glyph-name="umacron" unicode="&#x16b;" horiz-adv-x="1081" 
d="M948 1008v-1008h-200l-11 59q-92 -77 -205 -77q-209 0 -313 114.5t-104 325.5v586h243v-572q0 -51 7.5 -88t26.5 -67.5t55.5 -46t91.5 -15.5q68 0 115.5 44.5t47.5 113.5v631h246zM870 1327v-164h-661v164h661z" />
    <glyph glyph-name="Ubreve" unicode="&#x16c;" horiz-adv-x="1335" 
d="M1208 1430v-836q0 -610 -540 -610q-144 0 -249 43.5t-168.5 125.5t-93.5 191.5t-30 249.5v836h256v-824q0 -65 6 -115.5t24.5 -101t49.5 -83t83 -53t122 -20.5q72 0 124.5 20t83 51.5t48 82.5t23 101t5.5 118v824h256zM887 1874h168q-61 -146 -161 -221.5t-228 -75.5
q-126 0 -225.5 75.5t-161.5 221.5h165q83 -145 222 -145q141 0 221 145z" />
    <glyph glyph-name="ubreve" unicode="&#x16d;" horiz-adv-x="1081" 
d="M948 1008v-1008h-200l-11 59q-92 -77 -205 -77q-209 0 -313 114.5t-104 325.5v586h243v-572q0 -51 7.5 -88t26.5 -67.5t55.5 -46t91.5 -15.5q68 0 115.5 44.5t47.5 113.5v631h246zM762 1421h168q-62 -146 -162 -221.5t-227 -75.5q-126 0 -225.5 75.5t-161.5 221.5h165
q83 -145 222 -145q141 0 221 145z" />
    <glyph glyph-name="Uring" unicode="&#x16e;" horiz-adv-x="1335" 
d="M1208 1430v-836q0 -610 -540 -610q-144 0 -249 43.5t-168.5 125.5t-93.5 191.5t-30 249.5v836h256v-824q0 -65 6 -115.5t24.5 -101t49.5 -83t83 -53t122 -20.5q72 0 124.5 20t83 51.5t48 82.5t23 101t5.5 118v824h256zM915 1794q0 -103 -72 -175.5t-175 -72.5
t-175.5 72.5t-72.5 175.5q0 101 72.5 173.5t175.5 72.5q102 0 174.5 -72t72.5 -174zM758 1794q0 37 -26.5 63.5t-63.5 26.5t-63.5 -26.5t-26.5 -63.5q0 -38 26.5 -64t63.5 -26t63.5 26t26.5 64z" />
    <glyph glyph-name="uring" unicode="&#x16f;" horiz-adv-x="1081" 
d="M948 1008v-1008h-200l-11 59q-92 -77 -205 -77q-209 0 -313 114.5t-104 325.5v586h243v-572q0 -51 7.5 -88t26.5 -67.5t55.5 -46t91.5 -15.5q68 0 115.5 44.5t47.5 113.5v631h246zM788 1341q0 -103 -72 -175t-175 -72t-175.5 72t-72.5 175q0 101 72.5 173.5t175.5 72.5
t175 -72.5t72 -173.5zM631 1341q0 37 -26.5 64t-63.5 27t-64.5 -27t-27.5 -64q0 -38 27.5 -64t64.5 -26t63.5 26t26.5 64z" />
    <glyph glyph-name="Uhungarumlaut" unicode="&#x170;" horiz-adv-x="1335" 
d="M1208 1430v-836q0 -610 -540 -610q-144 0 -249 43.5t-168.5 125.5t-93.5 191.5t-30 249.5v836h256v-824q0 -65 6 -115.5t24.5 -101t49.5 -83t83 -53t122 -20.5q72 0 124.5 20t83 51.5t48 82.5t23 101t5.5 118v824h256zM778 1917h223l-243 -311h-127zM479 1917h226
l-246 -311h-127z" />
    <glyph glyph-name="uhungarumlaut" unicode="&#x171;" horiz-adv-x="1081" 
d="M948 1008v-1008h-200l-11 59q-92 -77 -205 -77q-209 0 -313 114.5t-104 325.5v586h243v-572q0 -51 7.5 -88t26.5 -67.5t55.5 -46t91.5 -15.5q68 0 115.5 44.5t47.5 113.5v631h246zM653 1464h224l-244 -311h-127zM352 1464h226l-246 -311h-125z" />
    <glyph glyph-name="Uogonek" unicode="&#x172;" horiz-adv-x="1335" 
d="M872 10l289 -418h-227l-234 392h-32q-144 0 -249 43.5t-168.5 125.5t-93.5 191.5t-30 249.5v836h256v-824q0 -65 6 -115.5t24.5 -101t49.5 -83t83 -53t122 -20.5q72 0 124.5 20t83 51.5t48 82.5t23 101t5.5 118v824h256v-836q0 -480 -336 -584z" />
    <glyph glyph-name="uogonek" unicode="&#x173;" horiz-adv-x="1081" 
d="M924 0l282 -408h-227l-231 408l-11 59q-92 -77 -205 -77q-209 0 -313 114.5t-104 325.5v586h243v-572q0 -51 7.5 -88t26.5 -67.5t55.5 -46t91.5 -15.5q68 0 115.5 44.5t47.5 113.5v631h246v-1008h-24z" />
    <glyph glyph-name="Wcircumflex" unicode="&#x174;" horiz-adv-x="1759" 
d="M1468 1430h265l-334 -1430h-285l-233 932l-236 -932h-285l-333 1430h264l221 -1006l264 1006h209l262 -1006zM983 1868l252 -312h-234l-122 185l-123 -185h-232l250 312h209z" />
    <glyph glyph-name="wcircumflex" unicode="&#x175;" horiz-adv-x="1568" 
d="M1272 1008h262l-332 -1008h-207l-213 586l-213 -586h-207l-329 1008h264l174 -635l219 635h182l215 -637zM887 1415l252 -311h-234l-123 184l-123 -184h-231l252 311h207z" />
    <glyph glyph-name="Ycircumflex" unicode="&#x176;" horiz-adv-x="1259" 
d="M946 1430h287l-473 -959v-471h-258v475l-475 955h288l318 -666zM733 1868l252 -312h-233l-123 185l-123 -185h-232l250 312h209z" />
    <glyph glyph-name="ycircumflex" unicode="&#x177;" horiz-adv-x="1050" 
d="M754 1008h262l-461 -1237q-26 -72 -63.5 -118.5t-89 -69.5t-102.5 -30.5t-126 -7.5h-43v209h37q83 0 116 18t54 72l57 154l-360 1010h262l223 -705zM629 1415l252 -311h-232l-125 184l-121 -184h-233l252 311h207z" />
    <glyph glyph-name="Ydieresis" unicode="&#x178;" horiz-adv-x="1259" 
d="M946 1430h287l-473 -959v-471h-258v475l-475 955h288l318 -666zM975 1694q0 -57 -40 -97.5t-97 -40.5t-98.5 40.5t-41.5 97.5q0 58 41.5 98.5t98.5 40.5t97 -40.5t40 -98.5zM561 1694q0 -57 -40 -97.5t-97 -40.5q-58 0 -98.5 40.5t-40.5 97.5q0 58 40.5 98.5t98.5 40.5
q57 0 97 -40.5t40 -98.5z" />
    <glyph glyph-name="Zacute" unicode="&#x179;" horiz-adv-x="1224" 
d="M1120 254v-254h-1036v190l672 988h-621v252h971v-197l-666 -979h680zM573 1880h252l-254 -330h-172z" />
    <glyph glyph-name="zacute" unicode="&#x17a;" horiz-adv-x="1011" 
d="M901 233v-233h-811v188l475 584h-448v236h784v-185l-477 -590h477zM467 1427h252l-254 -329h-172z" />
    <glyph glyph-name="Zdotaccent" unicode="&#x17b;" horiz-adv-x="1224" 
d="M1120 254v-254h-1036v190l672 988h-621v252h971v-197l-666 -979h680zM737 1657q0 -53 -36.5 -89t-88.5 -36t-88.5 36t-36.5 89t36.5 89t88.5 36t88.5 -36t36.5 -89z" />
    <glyph glyph-name="zdotaccent" unicode="&#x17c;" horiz-adv-x="1011" 
d="M901 233v-233h-811v188l475 584h-448v236h784v-185l-477 -590h477zM633 1204q0 -52 -37 -88.5t-90 -36.5q-52 0 -88.5 36.5t-36.5 88.5t36.5 88.5t88.5 36.5q53 0 90 -36.5t37 -88.5z" />
    <glyph glyph-name="Zcaron" unicode="&#x17d;" horiz-adv-x="1224" 
d="M1120 0v254h-680l666 979v197h-971v-252h621l-672 -988v-190h1036zM969 1866l-252 -312h-209l-252 312h233l121 -185l125 185h234z" />
    <glyph glyph-name="zcaron" unicode="&#x17e;" horiz-adv-x="1011" 
d="M901 0v233h-477l477 590v185h-784v-236h448l-475 -584v-188h811zM862 1413l-252 -311h-209l-249 311h231l123 -184l123 184h233z" />
    <glyph glyph-name="florin" unicode="&#x192;" horiz-adv-x="849" 
d="M786 1423v-211q-133 -1 -193.5 -50t-82.5 -148q-8 -30 -18 -99h137v-210h-174l-197 -1119l-205 35l189 1084h-109v210h143q2 14 9.5 52.5t9.5 52.5q41 209 160 306t331 97z" />
    <glyph glyph-name="Aringacute" unicode="&#x1fa;" horiz-adv-x="1341" 
d="M784 1430l553 -1430h-278l-137 373h-504l-135 -373h-279l549 1430h231zM502 598h338l-170 461zM629 2161h225l-192 -170h10q91 0 155 -65t64 -157t-64 -157.5t-155 -65.5q-93 0 -158 65t-65 158q0 71 38 127zM752 1769q0 34 -24 58t-56 24q-35 0 -59.5 -24t-24.5 -58
t24.5 -57.5t59.5 -23.5q32 0 56 24t24 57z" />
    <glyph glyph-name="aringacute" unicode="&#x1fb;" horiz-adv-x="997" 
d="M879 184l39 -153l-209 -54l-23 76q-102 -80 -242 -80q-155 0 -261.5 87t-106.5 239q0 141 90.5 223.5t269.5 91.5h154q45 3 61 31v43q0 52 -41 83.5t-98 31.5q-144 0 -190 -107l-209 72q43 129 146.5 190.5t252.5 61.5q91 0 174.5 -37t138 -110t54.5 -164v-525zM651 256
v201q-37 -19 -69 -19h-125q-70 -2 -116 -36t-46 -103q0 -57 49 -89t107 -32q110 0 200 78zM461 1708h225l-192 -170h8q92 0 156.5 -64.5t64.5 -156.5t-64.5 -157.5t-156.5 -65.5t-156.5 65.5t-64.5 157.5q0 71 38 127zM584 1317q0 34 -24 58t-58 24t-58 -24t-24 -58t24 -58
t58 -24t58 24t24 58z" />
    <glyph glyph-name="AEacute" unicode="&#x1fc;" horiz-adv-x="1937" 
d="M1835 254v-254h-936v373h-405l-195 -373h-293l780 1430h1049v-254h-680v-318h592v-244h-592v-360h680zM612 598h287v526h-12zM963 1880h249l-254 -330h-172z" />
    <glyph glyph-name="aeacute" unicode="&#x1fd;" horiz-adv-x="1556" 
d="M74 299q0 149 95.5 230t276.5 81h129q63 0 70 25v53q0 42 -35 77.5t-102 35.5q-139 0 -189 -107l-213 64q43 122 145 192t259 70q81 0 143.5 -25t128.5 -88q115 115 303 115q84 0 152.5 -29.5t113.5 -78.5t75.5 -115.5t43.5 -137t13 -147.5v-68h-606q10 -120 72.5 -176.5
t150.5 -56.5q108 0 200 106l168 -161q-80 -86 -167 -131t-203 -45q-214 0 -312 124q-123 -133 -344 -133q-72 0 -137 20.5t-117 60t-83 103t-31 142.5zM655 279q-10 61 -10 174q-38 -17 -67 -17l-125 -2q-62 0 -111 -28.5t-49 -90.5q0 -48 40.5 -83t112.5 -35q105 0 209 82z
M879 602h376q-4 90 -52.5 141.5t-125.5 51.5q-92 0 -141.5 -55t-56.5 -138zM766 1427h250l-252 -329h-174z" />
    <glyph glyph-name="Oslashacute" unicode="&#x1fe;" horiz-adv-x="1351" 
d="M1268 715q0 -118 -20 -223t-65.5 -199t-113 -162t-168 -107.5t-225.5 -39.5q-138 0 -246 51l-27 -53h-213l82 159q-188 200 -188 574q0 118 20 222.5t65 199t112.5 162.5t168.5 107.5t226 39.5q137 0 246 -49l24 51h213l-82 -158q191 -198 191 -575zM1008 715
q0 205 -62 317l-399 -768q59 -26 129 -26q332 0 332 477zM403 399l400 770q-67 23 -127 23q-334 0 -334 -477q0 -199 61 -316zM639 1880h252l-254 -330h-172z" />
    <glyph glyph-name="oslashacute" unicode="&#x1ff;" horiz-adv-x="1157" 
d="M977 502q0 -115 -25 -208t-77.5 -164.5t-141 -110.5t-207.5 -39q-86 0 -153 22l-19 -37h-186l55 115q-147 133 -147 422q0 115 25.5 208t77.5 164.5t140.5 110.5t206.5 39q81 0 154 -23l18 41h195l-62 -120q146 -137 146 -420zM729 502q0 94 -24 153l-224 -430
q13 -8 45 -8q50 -1 87.5 15t59 42.5t35 66t17.5 77t4 84.5zM571 778q-13 8 -45 8q-51 1 -88.5 -15.5t-59 -42.5t-34 -65.5t-16.5 -76.5t-4 -84q0 -99 24 -160zM541 1427h250l-252 -329h-174z" />
    <glyph glyph-name="Scommaaccent" unicode="&#x218;" horiz-adv-x="1257" 
d="M1182 430q0 -85 -29.5 -158.5t-80 -126t-118 -90.5t-144.5 -56.5t-157 -18.5q-467 0 -573 421l244 48q60 -224 329 -224q65 0 124.5 20.5t103 69t43.5 115.5q0 47 -27.5 81.5t-73.5 56t-105.5 38.5t-125.5 32.5t-132.5 34.5t-126 49t-105.5 70.5t-73.5 105t-27.5 146.5
q0 79 27 145.5t74 113t109 79.5t131.5 48.5t143.5 15.5q191 0 317.5 -76t209.5 -242l-224 -102q-51 96 -121 138t-182 42q-37 0 -74.5 -8.5t-73 -26.5t-57.5 -51t-22 -76q0 -40 27.5 -69.5t73.5 -48.5t105.5 -35t126 -33t132.5 -37.5t125.5 -53.5t105.5 -76t73.5 -110
t27.5 -151zM756 -281v-112l-164 -262h-94v374q0 54 37.5 90.5t91.5 36.5t91.5 -36.5t37.5 -90.5z" />
    <glyph glyph-name="scommaaccent" unicode="&#x219;" horiz-adv-x="954" 
d="M889 303q0 -78 -34.5 -141t-91 -102t-126 -59.5t-143.5 -20.5q-354 0 -416 274l213 55q40 -110 198 -110q35 0 67.5 6.5t61.5 29t29 58.5q0 40 -41.5 68t-103 43t-134 38.5t-134 52.5t-103 88t-41.5 142q0 100 52.5 170t133 100.5t179.5 30.5q140 0 226 -43t157 -154
l-187 -104q-66 88 -174 88q-22 0 -44 -3.5t-45 -12.5t-37.5 -27.5t-14.5 -44.5q0 -30 30.5 -51.5t79.5 -35t107.5 -27.5t117.5 -36t108 -54t79.5 -87.5t30.5 -130.5zM608 -281v-112l-164 -262h-94v374q0 54 37.5 90.5t91.5 36.5t91.5 -36.5t37.5 -90.5z" />
    <glyph glyph-name="circumflex" unicode="&#x2c6;" horiz-adv-x="1077" 
d="M641 1415l252 -311h-231l-125 184l-121 -184h-234l252 311h207z" />
    <glyph glyph-name="caron" unicode="&#x2c7;" horiz-adv-x="1067" 
d="M893 1413l-252 -311h-207l-252 311h234l121 -184l125 184h231z" />
    <glyph glyph-name="breve" unicode="&#x2d8;" horiz-adv-x="1107" 
d="M774 1421h168q-62 -146 -162 -221.5t-227 -75.5q-126 0 -225.5 75.5t-161.5 221.5h166q83 -145 221 -145q141 0 221 145z" />
    <glyph glyph-name="dotaccent" unicode="&#x2d9;" horiz-adv-x="1128" 
d="M690 1204q0 -52 -37 -88.5t-90 -36.5q-51 0 -88 36.5t-37 88.5t37 88.5t88 36.5q53 0 90 -36.5t37 -88.5z" />
    <glyph glyph-name="ring" unicode="&#x2da;" horiz-adv-x="1099" 
d="M797 1341q0 -103 -71.5 -175t-174.5 -72t-175.5 72t-72.5 175q0 101 72.5 173.5t175.5 72.5q102 0 174 -72t72 -174zM641 1341q0 37 -26.5 64t-63.5 27t-64.5 -27t-27.5 -64q0 -38 27.5 -64t64.5 -26t63.5 26t26.5 64z" />
    <glyph glyph-name="ogonek" unicode="&#x2db;" horiz-adv-x="1153" 
d="M545 6l286 -414h-227l-246 414h187z" />
    <glyph glyph-name="tilde" unicode="&#x2dc;" horiz-adv-x="1079" 
d="M776 1348l125 -105q-55 -72 -105.5 -107.5t-125.5 -35.5q-40 0 -76 15t-58.5 33t-56.5 33t-71 15q-56 0 -113 -78l-123 105q46 73 100 107t136 34q42 0 77.5 -15t57.5 -33t54.5 -33t68.5 -15q66 0 110 80z" />
    <glyph glyph-name="hungarumlaut" unicode="&#x2dd;" horiz-adv-x="1001" 
d="M678 1464h223l-244 -311h-127zM379 1464h225l-246 -311h-127z" />
    <glyph glyph-name="gravecomb" unicode="&#x300;" horiz-adv-x="688" 
d="M383 1518l174 -330h-170l-256 330h252z" />
    <glyph glyph-name="acutecomb" unicode="&#x301;" horiz-adv-x="681" 
d="M303 1518h250l-252 -330h-174z" />
    <glyph glyph-name="circumflexcomb" unicode="&#x302;" horiz-adv-x="1077" 
d="M641 1505l252 -311h-231l-125 184l-121 -184h-234l252 311h207z" />
    <glyph glyph-name="tildecomb" unicode="&#x303;" horiz-adv-x="1079" 
d="M776 1438l125 -105q-55 -72 -105.5 -107.5t-125.5 -35.5q-40 0 -76 15t-58.5 33t-56.5 33t-71 15q-56 0 -113 -78l-123 105q46 73 100 107t136 34q42 0 77.5 -15t57.5 -33t54.5 -33t68.5 -15q66 0 110 80z" />
    <glyph glyph-name="macroncomb" unicode="&#x304;" horiz-adv-x="1101" 
d="M883 1417v-164h-662v164h662z" />
    <glyph glyph-name="brevecomb" unicode="&#x306;" horiz-adv-x="1107" 
d="M774 1511h168q-62 -146 -162 -221.5t-227 -75.5q-126 0 -225.5 75.5t-161.5 221.5h166q83 -145 221 -145q141 0 221 145z" />
    <glyph glyph-name="dotaccentcomb" unicode="&#x307;" horiz-adv-x="1128" 
d="M690 1294q0 -52 -37 -88.5t-90 -36.5q-51 0 -88 36.5t-37 88.5t37 88.5t88 36.5q53 0 90 -36.5t37 -88.5z" />
    <glyph glyph-name="dieresiscomb" unicode="&#x308;" horiz-adv-x="974" 
d="M834 1331q0 -57 -40.5 -97t-97.5 -40q-58 0 -98.5 40t-40.5 97q0 59 40.5 99t98.5 40q57 0 97.5 -40.5t40.5 -98.5zM418 1331q0 -57 -40 -97t-97 -40t-97.5 40t-40.5 97q0 58 40.5 98.5t97.5 40.5t97 -40.5t40 -98.5z" />
    <glyph glyph-name="Delta" unicode="&#x394;" horiz-adv-x="1259" 
d="M631 1464l596 -1462h-1192zM319 193h621l-309 784z" />
    <glyph glyph-name="Delta" unicode="&#x2206;" horiz-adv-x="1259" 
d="M631 1464l596 -1462h-1192zM319 193h621l-309 784z" />
    <glyph glyph-name="Omega" unicode="&#x3a9;" horiz-adv-x="1458" 
d="M1321 733q0 -143 -52 -295.5t-149 -240.5h150l37 -197h-482v174q81 33 139 94t89 139t45 158t14 168q0 71 -13.5 141.5t-44 137t-74 117t-108.5 81.5t-143 31q-79 0 -144 -31t-108.5 -81.5t-73.5 -117t-43.5 -136.5t-13.5 -142q0 -88 14 -168t44.5 -158t88.5 -139
t138 -94v-174h-479l34 197h148q-96 88 -147.5 240.5t-51.5 295.5q0 113 22.5 216.5t70.5 194t117 157t167.5 105t216.5 38.5t217 -38.5t167.5 -105.5t116 -157.5t69.5 -193.5t22 -216z" />
    <glyph glyph-name="Omega" unicode="&#x2126;" horiz-adv-x="1458" 
d="M1321 733q0 -143 -52 -295.5t-149 -240.5h150l37 -197h-482v174q81 33 139 94t89 139t45 158t14 168q0 71 -13.5 141.5t-44 137t-74 117t-108.5 81.5t-143 31q-79 0 -144 -31t-108.5 -81.5t-73.5 -117t-43.5 -136.5t-13.5 -142q0 -88 14 -168t44.5 -158t88.5 -139
t138 -94v-174h-479l34 197h148q-96 88 -147.5 240.5t-51.5 295.5q0 113 22.5 216.5t70.5 194t117 157t167.5 105t216.5 38.5t217 -38.5t167.5 -105.5t116 -157.5t69.5 -193.5t22 -216z" />
    <glyph glyph-name="pi" unicode="&#x3c0;" horiz-adv-x="1173" 
d="M1071 199v-199h-90q-119 0 -181.5 66.5t-62.5 191.5v553h-389v-811h-207v1008h803v-732q0 -48 24 -62.5t103 -14.5z" />
    <glyph glyph-name="Wgrave" unicode="&#x1e80;" horiz-adv-x="1759" 
d="M1468 1430h265l-334 -1430h-285l-233 932l-236 -932h-285l-333 1430h264l221 -1006l264 1006h209l262 -1006zM772 1880l174 -330h-170l-256 330h252z" />
    <glyph glyph-name="wgrave" unicode="&#x1e81;" horiz-adv-x="1568" 
d="M1272 1008h262l-332 -1008h-207l-213 586l-213 -586h-207l-329 1008h264l174 -635l219 635h182l215 -637zM686 1427l174 -329h-170l-256 329h252z" />
    <glyph glyph-name="Wacute" unicode="&#x1e82;" horiz-adv-x="1759" 
d="M1468 1430h265l-334 -1430h-285l-233 932l-236 -932h-285l-333 1430h264l221 -1006l264 1006h209l262 -1006zM987 1880h250l-252 -330h-174z" />
    <glyph glyph-name="wacute" unicode="&#x1e83;" horiz-adv-x="1568" 
d="M1272 1008h262l-332 -1008h-207l-213 586l-213 -586h-207l-329 1008h264l174 -635l219 635h182l215 -637zM866 1427h250l-254 -329h-172z" />
    <glyph glyph-name="Wdieresis" unicode="&#x1e84;" horiz-adv-x="1759" 
d="M1468 1430h265l-334 -1430h-285l-233 932l-236 -932h-285l-333 1430h264l221 -1006l264 1006h209l262 -1006zM1225 1694q0 -57 -40.5 -97.5t-97.5 -40.5t-98 40.5t-41 97.5q0 58 41 98.5t98 40.5t97.5 -40.5t40.5 -98.5zM811 1694q0 -57 -40 -97.5t-97 -40.5
q-58 0 -98.5 40.5t-40.5 97.5q0 58 40.5 98.5t98.5 40.5q57 0 97 -40.5t40 -98.5z" />
    <glyph glyph-name="wdieresis" unicode="&#x1e85;" horiz-adv-x="1568" 
d="M1272 1008h262l-332 -1008h-207l-213 586l-213 -586h-207l-329 1008h264l174 -635l219 635h182l215 -637zM1128 1241q0 -57 -40 -97t-97 -40t-97 40t-40 97q0 58 40 98.5t97 40.5t97 -40.5t40 -98.5zM715 1241q0 -57 -40 -97t-97 -40t-98.5 40t-41.5 97q0 58 41.5 98.5
t98.5 40.5t97 -40.5t40 -98.5z" />
    <glyph glyph-name="Ygrave" unicode="&#x1ef2;" horiz-adv-x="1259" 
d="M946 1430h287l-473 -959v-471h-258v475l-475 955h288l318 -666zM670 1880l174 -330h-172l-254 330h252z" />
    <glyph glyph-name="ygrave" unicode="&#x1ef3;" horiz-adv-x="1050" 
d="M754 1008h262l-461 -1237q-26 -72 -63.5 -118.5t-89 -69.5t-102.5 -30.5t-126 -7.5h-43v209h37q83 0 116 18t54 72l57 154l-360 1010h262l223 -705zM563 1427l174 -329h-170l-256 329h252z" />
    <glyph glyph-name="endash" unicode="&#x2013;" horiz-adv-x="1169" 
d="M1049 647v-190h-928v190h928z" />
    <glyph glyph-name="emdash" unicode="&#x2014;" horiz-adv-x="1574" 
d="M1454 647v-190h-1333v190h1333z" />
    <glyph glyph-name="quoteleft" unicode="&#x2018;" horiz-adv-x="540" 
d="M311 1532h86l-10 -352q-2 -50 -36 -84.5t-83 -34.5q-52 0 -88 35t-33 84l13 108z" />
    <glyph glyph-name="quoteright" unicode="&#x2019;" horiz-adv-x="540" 
d="M393 1415l-10 -110l-152 -242h-86l11 352q0 48 34.5 83.5t83.5 35.5q50 0 86.5 -36t32.5 -83z" />
    <glyph glyph-name="quotesinglbase" unicode="&#x201a;" horiz-adv-x="540" 
d="M395 111l-10 -107l-152 -244h-86l11 351q2 51 35.5 85.5t82.5 34.5q51 0 87 -35t32 -85z" />
    <glyph glyph-name="quotedblleft" unicode="&#x201c;" horiz-adv-x="903" 
d="M360 1532l-10 -352q-2 -50 -36 -84.5t-83 -34.5q-50 0 -86 35t-32 84l10 108l151 244h86zM770 1532l-10 -352q-2 -50 -36 -84.5t-83 -34.5q-51 0 -87 35t-32 84l10 108l152 244h86z" />
    <glyph glyph-name="quotedblright" unicode="&#x201d;" horiz-adv-x="903" 
d="M551 1061l10 352q2 50 36 84.5t83 34.5q51 0 87 -35t32 -84l-11 -108l-151 -244h-86zM141 1061l11 352q2 50 35.5 84.5t82.5 34.5q51 0 87 -35t32 -84l-10 -108l-152 -244h-86z" />
    <glyph glyph-name="quotedblbase" unicode="&#x201e;" horiz-adv-x="903" 
d="M551 -254l10 352q2 50 36 84.5t83 34.5q51 0 87 -35t32 -84l-11 -108l-151 -244h-86zM141 -254l11 352q2 50 35.5 84.5t82.5 34.5q51 0 87 -35t32 -84l-10 -108l-152 -244h-86z" />
    <glyph glyph-name="dagger" unicode="&#x2020;" horiz-adv-x="1185" 
d="M997 1016v-195h-311v-821h-186v821h-312v195h312v414h186v-414h311z" />
    <glyph glyph-name="daggerdbl" unicode="&#x2021;" horiz-adv-x="1202" 
d="M997 205v-197h-311v-424h-186v424h-312v197h312v606h-312v195h312v424h186v-424h311v-195h-311v-606h311z" />
    <glyph glyph-name="bullet" unicode="&#x2022;" horiz-adv-x="1083" 
d="M887 684q0 -142 -100.5 -243t-243.5 -101q-141 0 -242.5 101t-101.5 243t101 242t243 100q143 0 243.5 -100t100.5 -242z" />
    <glyph glyph-name="ellipsis" unicode="&#x2026;" horiz-adv-x="1492" 
d="M1360 139q0 -66 -47.5 -112.5t-112.5 -46.5q-67 0 -114.5 46.5t-47.5 112.5q0 67 47 113.5t115 46.5q65 0 112.5 -46.5t47.5 -113.5zM907 139q0 -66 -46.5 -112.5t-112.5 -46.5t-114 46.5t-48 112.5q0 67 47.5 113.5t114.5 46.5q66 0 112.5 -46.5t46.5 -113.5zM457 139
q0 -66 -47 -112.5t-113 -46.5t-113 46.5t-47 112.5q0 67 47 113.5t113 46.5t113 -46.5t47 -113.5z" />
    <glyph glyph-name="perthousand" unicode="&#x2030;" horiz-adv-x="2048" 
d="M1954 387q0 -64 -10 -121.5t-33.5 -110.5t-58 -91t-87.5 -61t-118 -23q-141 0 -215 104q-81 -104 -215 -104q-65 0 -118 23t-87.5 61t-57.5 91t-33 110.5t-10 121.5q0 81 16.5 151t51.5 129t96 93.5t142 34.5q138 0 215 -103q79 103 215 103q81 0 142.5 -34.5t96 -93.5
t51.5 -129.5t17 -150.5zM1018 1430h203l-621 -1430h-205zM709 1042q0 -81 -17 -151.5t-52 -129t-96 -92.5t-141 -34q-65 0 -118 22.5t-87.5 61t-58 91t-33.5 110.5t-10 122t10 121.5t33.5 110t58 91t87.5 61t118 22.5q80 0 141 -34t96 -92.5t52 -129t17 -150.5zM1772 387
q0 227 -125 227q-123 0 -123 -227t123 -227q125 0 125 227zM1341 387q0 227 -124 227q-123 0 -123 -227t123 -227q124 0 124 227zM526 1042q0 228 -123 228q-124 0 -124 -228q0 -33 1.5 -59t9 -60t20 -56t36.5 -38t57 -16q123 0 123 229z" />
    <glyph glyph-name="guilsinglleft" unicode="&#x2039;" horiz-adv-x="708" 
d="M119 575l469 443v-258l-273 -248l273 -250v-260l-469 444v129z" />
    <glyph glyph-name="guilsinglright" unicode="&#x203a;" horiz-adv-x="708" 
d="M588 575v-129l-469 -444v260l272 250l-272 248v258z" />
    <glyph glyph-name="fraction" unicode="&#x2044;" horiz-adv-x="391" 
d="M422 1436h211l-662 -1442h-213z" />
    <glyph glyph-name="fraction" unicode="&#x2215;" horiz-adv-x="391" 
d="M422 1436h211l-662 -1442h-213z" />
    <glyph glyph-name="zerosuperior" unicode="&#x2070;" horiz-adv-x="788" 
d="M723 989q0 -66 -10 -129t-34 -125.5t-60.5 -108.5t-94 -75t-129.5 -29q-89 0 -155.5 42.5t-102.5 112.5t-53.5 148t-17.5 162t17.5 162t53.5 148t102.5 112.5t155.5 42.5q72 0 129.5 -28.5t94 -74t60.5 -107.5t34 -124.5t10 -128.5zM561 987q0 48 -6 93t-21.5 97.5
t-51 84.5t-87.5 32t-87.5 -32t-51 -84.5t-21.5 -97.5t-6 -93q0 -37 3 -72.5t13.5 -80.5t27.5 -77.5t48.5 -55.5t73.5 -23q43 0 75 23t48.5 55.5t27 77.5t13 80t2.5 73z" />
    <glyph glyph-name="foursuperior" unicode="&#x2074;" horiz-adv-x="722" 
d="M668 885v-150h-68v-203h-151v203h-406v133l350 572h172l-338 -555h222v254l151 -19v-235h68z" />
    <glyph glyph-name="fivesuperior" unicode="&#x2075;" horiz-adv-x="710" 
d="M657 850q0 -146 -80 -234t-227 -88q-109 0 -181 59.5t-106 164.5l150 49q36 -119 137 -119q71 0 110.5 49.5t39.5 118.5q0 68 -39 115t-109 47q-41 0 -69.5 -14t-59.5 -46h-135v488h506v-152h-361v-168q52 39 125 39q141 0 220 -86t79 -223z" />
    <glyph glyph-name="sixsuperior" unicode="&#x2076;" horiz-adv-x="714" 
d="M659 825q0 -136 -79 -219.5t-215 -83.5q-139 0 -219 98.5t-80 239.5q0 174 71.5 325.5t206.5 254.5h195q-111 -89 -182 -173t-105 -192q49 49 127 49q126 0 203 -85t77 -214zM500 829q0 61 -39 103.5t-101 42.5q-58 0 -95.5 -43t-37.5 -103q0 -58 39 -100.5t96 -42.5
q59 0 98.5 42.5t39.5 100.5z" />
    <glyph glyph-name="sevensuperior" unicode="&#x2077;" horiz-adv-x="655" 
d="M614 1440v-135q-135 -175 -195 -357t-59 -416h-170q0 212 63.5 408t182.5 348h-258v-74h-137v226h573z" />
    <glyph glyph-name="eightsuperior" unicode="&#x2078;" horiz-adv-x="716" 
d="M664 811q0 -130 -87.5 -210.5t-220.5 -80.5q-132 0 -217.5 80t-85.5 209q0 68 35.5 126t97.5 95q-44 24 -71 74t-27 98q0 110 79 181t189 71q112 0 191.5 -71t79.5 -181q0 -48 -27 -97.5t-72 -74.5q64 -38 100 -94t36 -125zM471 1198q0 46 -34 77.5t-81 31.5
q-46 0 -79 -31t-33 -78t33 -79t79 -32t80.5 32t34.5 79zM500 817q0 60 -41.5 99.5t-102.5 39.5q-58 0 -98.5 -40t-40.5 -99q0 -58 41.5 -97.5t99.5 -39.5q61 0 101.5 38.5t40.5 98.5z" />
    <glyph glyph-name="ninesuperior" unicode="&#x2079;" horiz-adv-x="708" 
d="M649 1112q0 -174 -66.5 -326t-199.5 -254h-209q113 91 184 173t103 190q-40 -45 -123 -45q-126 0 -205.5 82.5t-79.5 208.5q0 136 81 223.5t214 87.5q93 0 163 -48.5t104 -124.5t34 -167zM477 1153q0 59 -37 100t-96 41t-97 -42t-38 -101q0 -61 38.5 -103t98.5 -42
t95.5 43.5t35.5 103.5z" />
    <glyph glyph-name="zeroinferior" unicode="&#x2080;" horiz-adv-x="788" 
d="M723 457q0 -66 -10 -129t-34 -125.5t-60.5 -108.5t-94 -75t-129.5 -29q-89 0 -155.5 42.5t-102.5 112.5t-53.5 148t-17.5 162t17.5 162t53.5 148t102.5 112.5t155.5 42.5q72 0 129.5 -28.5t94 -74t60.5 -107.5t34 -124.5t10 -128.5zM561 455q0 48 -6 93t-21.5 97.5
t-51 84.5t-87.5 32t-87.5 -32t-51 -84.5t-21.5 -97.5t-6 -93q0 -37 3 -72.5t13.5 -81t27.5 -78t48.5 -55.5t73.5 -23q43 0 75 23t48.5 55.5t27 78t13 80.5t2.5 73z" />
    <glyph glyph-name="oneinferior" unicode="&#x2081;" horiz-adv-x="522" 
d="M385 907v-907h-158v705l-123 -76l-71 125l233 153h119z" />
    <glyph glyph-name="twoinferior" unicode="&#x2082;" horiz-adv-x="720" 
d="M653 156v-156h-573v104q4 67 27.5 126t58.5 102t76.5 80.5t82.5 68.5t74.5 58.5t54.5 57t21 58.5q0 50 -38 79.5t-89 29.5q-84 0 -141 -111l-137 80q48 92 114.5 139.5t163.5 47.5q127 0 209 -71t82 -194q0 -50 -18 -94t-47 -76.5t-65 -62t-74.5 -58.5t-72 -58t-60.5 -68
t-38 -82h389z" />
    <glyph glyph-name="threeinferior" unicode="&#x2083;" horiz-adv-x="708" 
d="M643 274q0 -126 -83.5 -205t-209.5 -79q-224 0 -297 203l148 63q15 -50 53 -80.5t90 -30.5q60 0 99.5 35.5t39.5 93.5q0 76 -50 105t-134 29v127q162 -4 162 118q0 47 -38.5 78t-86.5 31q-47 0 -80 -27t-49 -71l-144 63q78 191 279 191q117 0 198 -74.5t81 -190.5
q0 -53 -24.5 -100t-66.5 -78q50 -30 81.5 -85t31.5 -116z" />
    <glyph glyph-name="fourinferior" unicode="&#x2084;" horiz-adv-x="722" 
d="M668 352v-149h-68v-203h-151v203h-406v133l350 571h172l-338 -555h222v254l151 -18v-236h68z" />
    <glyph glyph-name="fiveinferior" unicode="&#x2085;" horiz-adv-x="710" 
d="M657 317q0 -146 -80 -233.5t-227 -87.5q-109 0 -181.5 59t-105.5 164l150 49q36 -118 137 -118q71 0 110.5 49t39.5 118q0 68 -39 115t-109 47q-42 0 -70.5 -13.5t-58.5 -45.5h-135v487h506v-151h-361v-168q52 39 125 39q141 0 220 -86t79 -224z" />
    <glyph glyph-name="sixinferior" unicode="&#x2086;" horiz-adv-x="714" 
d="M659 293q0 -136 -79 -219.5t-215 -83.5q-139 0 -219 98.5t-80 239.5q0 174 71.5 325t206.5 254h195q-112 -89 -183 -172.5t-104 -191.5q49 49 127 49q126 0 203 -85t77 -214zM500 297q0 61 -39 103t-101 42q-59 0 -96 -42.5t-37 -102.5q0 -58 39 -100.5t96 -42.5
q59 0 98.5 42.5t39.5 100.5z" />
    <glyph glyph-name="seveninferior" unicode="&#x2087;" horiz-adv-x="655" 
d="M614 907v-135q-135 -175 -195 -356.5t-59 -415.5h-170q0 212 63.5 408t182.5 348h-258v-74h-137v225h573z" />
    <glyph glyph-name="eightinferior" unicode="&#x2088;" horiz-adv-x="716" 
d="M664 279q0 -130 -87.5 -210.5t-220.5 -80.5q-132 0 -217.5 79.5t-85.5 208.5q0 68 35.5 126.5t97.5 95.5q-44 24 -71 74t-27 98q0 110 79 181t189 71q112 0 191.5 -71t79.5 -181q0 -48 -27 -97.5t-72 -74.5q64 -38 100 -94t36 -125zM471 666q0 46 -34 77t-81 31
t-79.5 -30.5t-32.5 -77.5t33 -79t79 -32t80.5 32t34.5 79zM500 285q0 60 -41.5 99.5t-102.5 39.5q-58 0 -98.5 -40t-40.5 -99q0 -58 41.5 -98t99.5 -40q60 0 101 39t41 99z" />
    <glyph glyph-name="nineinferior" unicode="&#x2089;" horiz-adv-x="708" 
d="M649 580q0 -174 -66.5 -326t-199.5 -254h-209q113 91 184 172.5t103 189.5q-40 -45 -123 -45q-126 0 -205.5 82.5t-79.5 208.5q0 136 81 224t214 88q93 0 163 -48.5t104 -124.5t34 -167zM477 621q0 59 -37 100t-96 41t-97 -42.5t-38 -101.5q0 -61 38.5 -103t98.5 -42
t95.5 44t35.5 104z" />
    <glyph glyph-name="colonmonetary" unicode="&#x20a1;" horiz-adv-x="1236" 
d="M893 14v-172h-145v144q-40 -4 -60 -4q-27 0 -63 4v-144h-146v178q-121 48 -204.5 156t-121.5 244.5t-38 294.5q0 159 37.5 295.5t121 244t205.5 154.5v178h146v-141q18 2 61 2q42 0 62 -2v141h145v-176q129 -51 250 -203l-176 -182q-68 83 -132 125.5t-149 42.5
q-70 0 -125 -29t-88.5 -75.5t-55.5 -111t-30 -128.5t-8 -135t8 -135t30 -128.5t55.5 -111t88.5 -75.5t125 -29q89 0 156 46t133 136l174 -180q-71 -91 -129.5 -143.5t-126.5 -80.5z" />
    <glyph glyph-name="franc" unicode="&#x20a3;" horiz-adv-x="1064" 
d="M596 477v-190h-195v-287h-256v287h-145v190h145v953h838v-254h-582v-320h506v-242h-506v-137h195z" />
    <glyph glyph-name="lira" unicode="&#x20a4;" horiz-adv-x="1148" 
d="M274 504h-192l31 145h143q-11 53 -20 88h-154l31 146h86q-15 81 -15 129q0 190 118 313t314 123q60 0 108 -10t82 -24.5t70.5 -43t61.5 -54.5t65 -70q11 -13 17 -19l-182 -152q-60 73 -89 96q-57 46 -133 46q-92 0 -139 -61.5t-47 -156.5q0 -64 8 -116h287l-31 -146h-225
q3 -15 18 -88h238l-31 -145h-186q4 -16 4 -49q0 -121 -59 -222h602v-233h-924v178q112 138 135 236q8 39 8 90z" />
    <glyph glyph-name="peseta" unicode="&#x20a7;" horiz-adv-x="1150" 
d="M1067 1073h119v-145h-117q-40 -355 -473 -355h-193v-573h-258v928h-122v145h122v357h443q98 0 179 -20.5t144.5 -63t104 -112t51.5 -161.5zM403 817h177q91 0 147.5 24.5t75.5 92.5h-400v-117zM580 1184h-177v-115h398q-17 65 -74.5 90t-146.5 25z" />
    <glyph glyph-name="Euro" unicode="&#x20ac;" horiz-adv-x="1452" 
d="M1157 403l180 -178q-116 -135 -216.5 -189t-266.5 -54q-227 0 -379 130t-207 355h-166l37 178h103q-4 90 -2 129h-138l37 176h127q53 230 203 364t383 134q155 0 265 -54t210 -173l-178 -181q-70 77 -137.5 115.5t-159.5 38.5q-117 0 -194.5 -64.5t-114.5 -179.5h397
l-37 -176h-397q-7 -87 0 -129h434l-37 -178h-360q39 -109 117.5 -170t191.5 -61q96 0 166 42.5t139 124.5z" />
    <glyph glyph-name="trademark" unicode="&#x2122;" horiz-adv-x="970" 
d="M864 1430v-431h-82v226l-90 -226h-53l-92 226v-226h-80v431h78l121 -302l120 302h78zM412 1430v-80h-115v-353h-82v353h-115v80h312z" />
    <glyph glyph-name="partialdiff" unicode="&#x2202;" horiz-adv-x="1196" 
d="M1018 440q0 -126 -57 -230.5t-159.5 -166t-228.5 -61.5q-185 0 -309.5 137t-124.5 325q0 192 118.5 321.5t309.5 129.5q122 0 224 -80q-5 46 -15 96t-30.5 108.5t-48 103.5t-70 75.5t-92.5 30.5q-95 0 -189 -94l-137 157q65 73 150 114.5t178 41.5q74 0 137 -24.5
t109 -64.5t83 -100.5t61 -122.5t41.5 -142t27 -147t14.5 -149t6.5 -137t1.5 -121zM805 444q0 102 -65.5 173t-168.5 71q-97 0 -159 -73.5t-62 -170.5q0 -104 64.5 -182t165.5 -78q107 0 166 75t59 185z" />
    <glyph glyph-name="product" unicode="&#x220f;" horiz-adv-x="1386" 
d="M1178 1446v-1843h-205v1640h-557v-1640h-207v1843h969z" />
    <glyph glyph-name="summation" unicode="&#x2211;" horiz-adv-x="1138" 
d="M1018 -242v-196h-889v157l504 777l-504 776v158h889v-199h-623l479 -735l-479 -738h623z" />
    <glyph glyph-name="minus" unicode="&#x2212;" horiz-adv-x="1081" 
d="M977 651v-182h-871v182h871z" />
    <glyph glyph-name="radical" unicode="&#x221a;" horiz-adv-x="1366" 
d="M1303 1427v-186h-205l-436 -1241h-175l-415 1006h209l288 -701l381 1122h353z" />
    <glyph glyph-name="infinity" unicode="&#x221e;" horiz-adv-x="1626" 
d="M1526 510q0 -81 -47 -145t-119 -96.5t-152 -32.5q-97 0 -193.5 47t-201.5 125q-105 -78 -202 -125t-195 -47q-138 0 -227 88t-89 227q0 82 47 146t118 96t151 32q172 0 397 -172q225 172 395 172q139 0 228.5 -87.5t89.5 -227.5zM1323 522q0 52 -33 83.5t-82 31.5
q-88 0 -231 -107q142 -106 231 -106q49 0 82 24.5t33 73.5zM651 530q-51 35 -75.5 51t-72 36t-85.5 20q-50 0 -82.5 -24.5t-32.5 -73.5q0 -52 32.5 -83.5t82.5 -31.5q38 0 85 19.5t73 36t75 50.5z" />
    <glyph glyph-name="integral" unicode="&#x222b;" horiz-adv-x="714" 
d="M643 1430v-203h-127q-29 0 -43 -18.5t-14 -47.5v-1288q0 -127 -64.5 -197.5t-191.5 -70.5h-131v202h125q29 0 44 19t15 47v1288q0 119 69 194t187 75h131z" />
    <glyph glyph-name="approxequal" unicode="&#x2248;" horiz-adv-x="1056" 
d="M825 860l146 -119q-63 -78 -123 -114.5t-152 -36.5q-47 0 -92 17.5t-75 38.5t-74 38.5t-90 17.5q-43 0 -75 -24t-65 -66l-139 123q56 83 120.5 121.5t160.5 38.5q49 0 94 -16.5t74 -37t71.5 -37t87.5 -16.5q85 0 131 72zM825 498l146 -117q-63 -79 -123 -115.5
t-152 -36.5q-47 0 -92 17.5t-75 39t-74 39t-90 17.5q-42 0 -74 -24t-66 -66l-139 123q57 82 121 121t160 39q49 0 94 -17t74 -37.5t71.5 -37.5t87.5 -17q85 0 131 72z" />
    <glyph glyph-name="notequal" unicode="&#x2260;" horiz-adv-x="1118" 
d="M997 457v-215h-460l-72 -203l-158 57l53 146h-239v215h317l66 182h-383v213h461l71 197l158 -56l-51 -141h237v-213h-315l-66 -182h381z" />
    <glyph glyph-name="lessequal" unicode="&#x2264;" horiz-adv-x="1056" 
d="M938 446v-215l-819 365v170l819 364v-215l-524 -235zM938 197v-197h-819v197h819z" />
    <glyph glyph-name="greaterequal" unicode="&#x2265;" horiz-adv-x="1056" 
d="M938 766v-170l-819 -365v215l524 234l-524 235v215zM938 197v-197h-819v197h819z" />
    <glyph glyph-name="lozenge" unicode="&#x25ca;" horiz-adv-x="1226" 
d="M614 1456l459 -749l-459 -750l-460 750zM614 326l234 381l-234 378l-235 -378z" />
    <glyph glyph-name="CR" horiz-adv-x="606" 
 />
    <glyph glyph-name="Imacron" horiz-adv-x="561" 
d="M410 1430v-1430h-258v1430h258zM610 1780v-164h-661v164h661z" />
    <glyph glyph-name="ibreve" horiz-adv-x="507" 
d="M379 1008v-1008h-240v1008h240zM475 1421h168q-62 -146 -162 -221.5t-227 -75.5q-126 0 -225.5 75.5t-163.5 221.5h168q83 -145 221 -145q141 0 221 145z" />
    <glyph glyph-name="zerooldstyle" horiz-adv-x="1275" 
d="M1143 506q0 -239 -131 -379.5t-373 -140.5q-243 0 -374.5 140t-131.5 380t131.5 380t374.5 140q242 0 373 -140.5t131 -379.5zM889 506q0 133 -60.5 215t-189.5 82q-131 0 -191.5 -81.5t-60.5 -215.5t60.5 -215.5t191.5 -81.5q130 0 190 81.5t60 215.5z" />
    <glyph glyph-name="oneoldstyle" horiz-adv-x="913" 
d="M645 1008v-1008h-248v674l-200 -125l-117 203l420 256h145z" />
    <glyph glyph-name="twooldstyle" horiz-adv-x="1183" 
d="M1051 244v-244h-897v164q5 73 42 134t92.5 102.5t121.5 75.5t130.5 59.5t118 47.5t86.5 46t33 49q0 51 -40 76.5t-103 25.5q-79 0 -149 -37t-111 -102l-217 127q70 123 172 185.5t250 68.5q74 3 139 -5.5t123.5 -32t100.5 -61.5t66.5 -98t24.5 -137q0 -59 -25 -106
t-65 -78t-101 -62.5t-121.5 -56t-139.5 -63t-142 -78.5h611z" />
    <glyph glyph-name="threeoldstyle" horiz-adv-x="1095" 
d="M1004 14q0 -199 -132 -323.5t-333 -124.5q-338 0 -453 293l219 125q25 -79 85.5 -126.5t141.5 -47.5q91 0 154.5 57t63.5 147q0 50 -16.5 88t-42.5 60.5t-65 36.5t-78 19t-87 5v199q53 0 94 7.5t79.5 26.5t59.5 57t21 93q0 75 -60 123.5t-137 48.5q-75 0 -127 -42
t-78 -113l-213 127q124 272 426 272q185 0 314 -117.5t129 -298.5q0 -81 -38.5 -153t-107.5 -123q82 -45 131.5 -133t49.5 -183z" />
    <glyph glyph-name="fouroldstyle" horiz-adv-x="1161" 
d="M1069 248v-236h-111v-411h-237v411h-639v213l553 899h270l-532 -876h348v401l237 -28v-373h111z" />
    <glyph glyph-name="fiveoldstyle" horiz-adv-x="1134" 
d="M1042 78q0 -230 -126 -370t-357 -140q-171 0 -284 92t-169 258l236 80q64 -186 217 -186q112 0 173 77t61 189q0 109 -60.5 181.5t-171.5 72.5q-65 0 -110.5 -21t-90.5 -69h-217v766h801v-244h-569v-258q83 59 196 59q221 0 346 -135.5t125 -351.5z" />
    <glyph glyph-name="sixoldstyle" horiz-adv-x="1130" 
d="M1038 463q0 -215 -125 -347t-340 -132q-110 0 -200 43.5t-148.5 117.5t-90.5 170t-32 203q0 272 125.5 527.5t341.5 420.5l144 -141q-242 -219 -318 -471q77 80 203 80q199 0 319.5 -134.5t120.5 -336.5zM786 469q0 97 -60.5 163t-158.5 66q-92 0 -150.5 -68.5
t-58.5 -164.5q0 -91 60.5 -157t152.5 -66t153.5 66.5t61.5 160.5z" />
    <glyph glyph-name="sevenoldstyle" horiz-adv-x="1046" 
d="M977 1008v-213q-213 -277 -309 -561.5t-95 -653.5l-264 70q9 317 109.5 605t279.5 515h-409v-117h-215v355h903z" />
    <glyph glyph-name="eightoldstyle" horiz-adv-x="1146" 
d="M1053 438q0 -206 -136.5 -332t-345.5 -126q-208 0 -342.5 126t-134.5 332q0 106 55 196.5t152 149.5q-68 37 -111 116t-43 157q0 170 125 280.5t299 110.5t299 -110.5t125 -280.5q0 -79 -41 -157t-112 -116q100 -62 155.5 -150.5t55.5 -195.5zM750 1049q0 72 -53 120
t-126 48q-74 0 -127 -48t-53 -120q0 -74 53 -123t127 -49q73 0 126 49t53 123zM795 449q0 93 -65.5 156t-158.5 63t-157 -64t-64 -158q0 -90 66 -152.5t155 -62.5q96 0 160 61.5t64 156.5z" />
    <glyph glyph-name="nineoldstyle" horiz-adv-x="1144" 
d="M1047 487q0 -280 -103.5 -528.5t-314.5 -409.5l-158 156q219 209 281 440q-64 -69 -195 -69q-197 0 -322.5 131t-125.5 328q0 213 127 350t339 137q145 0 254.5 -75.5t163.5 -195.5t54 -264zM778 553q0 91 -60.5 157t-152.5 66q-90 0 -150.5 -67.5t-60.5 -157.5
q0 -95 60.5 -161t154.5 -66q95 0 152 67t57 162z" />
    <glyph glyph-name="zero.fitted" 
d="M956 719q0 -86 -10 -169.5t-31 -167.5t-56.5 -154.5t-82.5 -126t-114 -86.5t-146 -31q-80 0 -147.5 31t-115 86t-83 125.5t-57 153.5t-31.5 166.5t-10 168.5q0 86 10 169.5t31.5 167t57 154t83 125.5t115 86t147.5 31q95 0 171.5 -44.5t125.5 -116.5t82 -169t47 -196
t14 -203zM702 715q0 47 -2.5 94t-9.5 105t-20.5 106.5t-33 90t-50.5 65.5t-70 24q-58 0 -99 -50t-59.5 -131.5t-26 -154.5t-7.5 -149q0 -75 7.5 -148t26 -155t59.5 -132.5t99 -50.5q40 0 71.5 24t51 66t33 90t19.5 107t8.5 105t2.5 94z" />
    <glyph glyph-name="one.fitted" 
d="M82 0v229h307v887l-192 -123l-115 193l369 244h186v-1201h309v-229h-864z" />
    <glyph glyph-name="two.fitted" 
d="M936 244v-244h-827v164q5 106 38.5 198t83.5 156.5t109 121t117.5 103t106.5 90.5t78 94.5t30 104.5q0 79 -52 124.5t-124 45.5q-62 0 -118.5 -50.5t-90.5 -121.5l-195 125q70 145 165.5 219t238.5 74q183 0 301 -111.5t118 -306.5q0 -75 -24.5 -141t-65.5 -116.5
t-91.5 -97t-104.5 -93.5t-102 -95t-87 -110.5t-57 -132.5h553z" />
    <glyph glyph-name="three.fitted" 
d="M942 432q0 -198 -122 -323t-306 -125q-327 0 -430 319l221 100q22 -79 75.5 -126.5t125.5 -47.5q82 0 139 56t57 147q0 213 -266 209v201q234 -4 234 186q0 76 -51.5 123t-124.5 47q-66 0 -112 -43t-69 -113l-215 103q109 299 404 299q175 0 291 -117.5t116 -298.5
q0 -77 -37 -152t-96 -126q72 -46 119 -135.5t47 -182.5z" />
    <glyph glyph-name="four.fitted" 
d="M940 553v-236h-84v-317h-215v317h-555v213l465 900h246l-449 -877h293v401l215 -28v-373h84z" />
    <glyph glyph-name="five.fitted" 
d="M932 502q0 -230 -113 -370t-319 -140q-154 0 -256.5 94t-149.5 262l223 78q24 -85 69.5 -136.5t113.5 -51.5q97 0 146.5 75.5t49.5 188.5q0 109 -50 180.5t-146 71.5q-50 0 -88.5 -22t-77.5 -70h-205v768h719v-242h-502v-252q64 49 166 49q197 0 308.5 -133.5
t111.5 -349.5z" />
    <glyph glyph-name="six.fitted" 
d="M930 463q0 -215 -111 -347t-301 -132q-129 0 -227.5 75t-147.5 194.5t-49 262.5q0 273 100 511t291 403h269q-140 -123 -236 -256t-143 -304q64 64 160 64q119 0 210 -63.5t138 -169.5t47 -238zM692 469q0 98 -50 163.5t-132 65.5q-77 0 -125.5 -68.5t-48.5 -164.5
q0 -91 51 -157t127 -66q78 0 128 66.5t50 160.5z" />
    <glyph glyph-name="seven.fitted" 
d="M934 1430v-213q-194 -278 -281 -563t-86 -654h-260q0 314 97.5 631.5t261.5 560.5h-365v-119h-211v357h844z" />
    <glyph glyph-name="eight.fitted" 
d="M938 438q0 -206 -120.5 -332t-307.5 -126q-184 0 -303 126t-119 332q0 103 49.5 195t134.5 151q-60 39 -99.5 119t-39.5 154q0 170 111.5 280.5t265.5 110.5q156 0 267.5 -110t111.5 -281q0 -74 -38.5 -153.5t-98.5 -119.5q86 -62 136 -152t50 -194zM662 1049
q0 73 -44 120.5t-108 47.5q-60 0 -105 -48t-45 -120q0 -74 44.5 -123t105.5 -49q64 0 108 49t44 123zM702 449q0 93 -56 156t-136 63q-77 0 -132.5 -64.5t-55.5 -157.5q0 -89 57.5 -152t132.5 -63q82 0 136 61.5t54 156.5z" />
    <glyph glyph-name="nine.fitted" 
d="M932 913q0 -269 -99.5 -507.5t-291.5 -405.5h-271q68 60 120 114t105 123.5t92.5 151t63.5 172.5q-61 -61 -159 -61q-179 0 -287.5 133.5t-108.5 333.5q0 214 111.5 346.5t302.5 132.5q130 0 228 -75.5t146 -195t48 -262.5zM690 965q0 92 -50 157.5t-126 65.5
q-79 0 -129.5 -66.5t-50.5 -158.5q0 -96 51 -162t131 -66t127 67.5t47 162.5z" />
    <glyph glyph-name="zero.taboldstyle" 
d="M954 506q0 -239 -115 -379.5t-325 -140.5q-212 0 -327 140.5t-115 379.5t115 379.5t327 140.5q210 0 325 -140.5t115 -379.5zM705 506q0 133 -46.5 215t-144.5 82q-68 0 -112 -41t-62 -105.5t-18 -150.5t18 -150.5t62 -105.5t112 -41q98 0 144.5 82t46.5 215z" />
    <glyph glyph-name="one.taboldstyle" 
d="M82 0v229h307l-2 480l-199 -127l-106 182l369 244h186v-779h309v-229h-864z" />
    <glyph glyph-name="two.taboldstyle" 
d="M932 244v-244h-838v164q4 73 37.5 133.5t84 100.5t110.5 73t119.5 57.5t108.5 47t79.5 48t30.5 54.5q0 51 -34 76.5t-87 25.5q-71 0 -136 -35.5t-104 -101.5l-207 125q142 240 398 254q85 2 157 -14t133 -53t96 -105t35 -162q0 -56 -24 -103t-64.5 -80t-90 -60
t-104.5 -50.5t-104 -45t-92.5 -48.5t-66.5 -57h563z" />
    <glyph glyph-name="three.taboldstyle" 
d="M942 14q0 -198 -122 -323t-306 -125q-327 0 -430 319l221 101q22 -80 75.5 -128t125.5 -48q82 0 139 56.5t57 147.5q0 211 -266 207v201q234 -4 234 184q0 77 -51.5 123.5t-124.5 46.5q-66 0 -112 -42.5t-69 -112.5l-215 102q109 299 404 299q175 0 291 -117.5
t116 -298.5q0 -77 -37 -151t-96 -125q72 -46 119 -134.5t47 -181.5z" />
    <glyph glyph-name="four.taboldstyle" 
d="M940 248v-236h-84v-411h-215v411h-555v213l465 899h246l-449 -876h293v401l215 -28v-373h84z" />
    <glyph glyph-name="five.taboldstyle" 
d="M932 82q0 -231 -113 -370.5t-319 -139.5q-154 0 -256.5 94t-149.5 262l223 80q24 -86 69.5 -138t113.5 -52q97 0 146.5 75.5t49.5 188.5q0 107 -50 178.5t-146 71.5q-50 0 -88.5 -22t-77.5 -70h-205v768h719v-244h-502v-250q64 49 166 49q197 0 308.5 -133.5
t111.5 -347.5z" />
    <glyph glyph-name="six.taboldstyle" 
d="M946 463q0 -215 -116.5 -347t-313.5 -132q-133 0 -234 75t-151.5 195t-50.5 264q0 268 117 525.5t315 426.5l145 -153q-211 -198 -286 -447q64 64 166 64q123 0 217 -63.5t143 -170t49 -237.5zM694 469q0 98 -50 163.5t-134 65.5q-80 0 -127 -68t-47 -165
q0 -92 49.5 -157.5t128.5 -65.5q80 0 130 66t50 161z" />
    <glyph glyph-name="seven.taboldstyle" 
d="M934 1008v-215q-193 -275 -280.5 -560.5t-86.5 -654.5l-260 70q0 269 99 575.5t260 546.5h-365v-119h-211v357h844z" />
    <glyph glyph-name="eight.taboldstyle" 
d="M938 438q0 -206 -120.5 -332t-307.5 -126q-184 0 -303 126t-119 332q0 103 49.5 195t134.5 151q-60 39 -99.5 119t-39.5 154q0 170 111.5 280.5t265.5 110.5q156 0 267.5 -110t111.5 -281q0 -74 -38.5 -153.5t-98.5 -119.5q86 -62 136 -152t50 -194zM662 1049
q0 73 -44 120.5t-108 47.5q-60 0 -105 -48t-45 -120q0 -74 44.5 -123t105.5 -49q64 0 108 49t44 123zM702 449q0 93 -56 156t-136 63q-77 0 -132.5 -64.5t-55.5 -157.5q0 -89 57.5 -152t132.5 -63q82 0 136 61.5t54 156.5z" />
    <glyph glyph-name="nine.taboldstyle" 
d="M82 543q0 215 115.5 347t312.5 132q133 0 234 -75.5t151.5 -195t50.5 -262.5q0 -270 -116 -527.5t-314 -426.5l-145 154q211 198 284 446q-65 -59 -166 -59q-184 0 -295.5 133t-111.5 334zM334 539q0 -100 49 -164t133 -64q80 0 128 67t48 163q0 92 -50 157.5t-130 65.5
q-79 0 -128.5 -65.5t-49.5 -159.5z" />
    <glyph glyph-name="rupiah" horiz-adv-x="2152" 
d="M2077 498q0 -111 -22.5 -201.5t-70.5 -164t-131.5 -114.5t-197.5 -41q-97 0 -164 62v-490h-244v451h-338l-291 485q-36 62 -65.5 84.5t-93.5 22.5h-56v-592h-258v1430h469q106 0 193 -25.5t154 -76t104 -133.5t37 -191q0 -140 -76.5 -241.5t-214.5 -144.5q5 -3 35.5 -47
t34.5 -53l178 -285h188v775h201l8 -62q40 40 94 61t107 21q92 0 164.5 -28.5t119.5 -77.5t78.5 -117.5t44.5 -144t13 -162.5zM1833 498q0 45 -2 77.5t-12.5 74t-28.5 67.5t-52.5 44.5t-82.5 18.5q-71 0 -117.5 -43t-46.5 -110v-258q0 -68 46.5 -111t117.5 -43
q41 0 71.5 11.5t49.5 34.5t31 48t17.5 61t7 63t1.5 65zM846 1004q0 100 -61.5 139t-168.5 39h-217v-363h217q108 0 169 40.5t61 144.5z" />
    <glyph glyph-name="Euro.fitted" 
d="M848 367l164 -162q-86 -121 -175.5 -172t-215.5 -51q-178 0 -310.5 139t-165.5 346h-131l31 178h80q-4 62 0 129h-111l31 176h98q33 216 164 357t314 141q131 0 224 -47t169 -160l-172 -176q-61 77 -107.5 103t-113.5 26q-82 0 -142 -71t-80 -173h301l-26 -176h-303
q-4 -92 0 -129h329l-26 -178h-273q12 -94 76 -162.5t144 -68.5q68 0 121 31t106 100z" />
    <glyph glyph-name="dollar.fitted" 
d="M932 469q0 -147 -90 -247.5t-221 -125.5v-96h-189v96q-126 20 -213.5 106.5t-124.5 225.5l197 59q34 -139 141 -172l2 338q-69 19 -120.5 42.5t-99 61.5t-72.5 96t-25 134q0 73 26.5 133t72 99.5t100.5 64t116 33.5v113h189v-111q82 -15 154.5 -68.5t119.5 -130.5
l-150 -125q-54 79 -124 105v-277q66 -20 117 -47t97.5 -68t71.5 -101.5t25 -137.5zM432 877v223q-104 -21 -104 -113q0 -42 28 -66.5t76 -43.5zM723 463q0 81 -102 127v-273q43 16 72.5 54t29.5 92z" />
    <glyph glyph-name="cent.fitted" 
d="M766 338l176 -162q-92 -92 -174 -137.5t-184 -54.5q-19 -2 -72 2l-29 -142l-139 27l29 143q-139 57 -214 187.5t-75 300.5q0 110 31.5 204.5t91.5 165t153.5 110t210.5 38.5l27 137l139 -29l-24 -133q62 -23 115 -63.5t114 -104.5l-176 -161q-50 57 -102 86l-105 -533
q29 0 43 2q77 18 164 117zM420 256l106 532q-194 -23 -194 -286q0 -174 88 -246z" />
    <glyph glyph-name="sterling.fitted" 
d="M950 233v-233h-829v178q61 82 93 153t32 152q0 62 -8 109h-168l49 231h76q-29 101 -29 189q0 190 106 313t283 123q73 0 129 -15t98.5 -47t72 -66t65.5 -89l-179 -150q-54 76 -91.5 106t-94.5 30q-80 0 -119 -61t-39 -157q0 -67 23 -176h250l-54 -231h-157
q14 -79 14 -137q0 -98 -53 -222h530z" />
    <glyph glyph-name="florin.fitted" 
d="M721 915v-210h-174l-195 -1119l-207 35l189 1084h-107v210h144q3 39 18 101q41 212 159 309.5t331 97.5v-211q-74 -1 -125 -16t-82 -46.5t-47.5 -68t-28.5 -92.5q-6 -52 -12 -74h137z" />
    <glyph glyph-name="yen.fitted" 
d="M788 1430h232l-262 -623h135l-41 -182h-170q-2 -5 -8.5 -21.5t-14 -34t-8.5 -20.5h242l-41 -187h-231v-362h-211v362h-277l41 187h207q-22 43 -33 76h-215l41 182h96l-262 623h234l274 -699z" />
    <glyph glyph-name="lira.fitted" 
d="M246 504h-176l32 145h127q-15 76 -18 88h-141l32 146h76q-12 62 -12 129q0 190 106 313t283 123q88 0 154 -26t110.5 -69.5t100.5 -121.5l-177 -150q-53 76 -92 106t-96 30q-80 0 -119 -61t-39 -157q0 -48 11 -116h258l-35 -146h-201q2 -9 9 -41.5t10 -46.5h217l-35 -145
h-162q4 -28 4 -49q0 -98 -53 -222h530v-233h-829v178q95 135 117 236q8 46 8 90z" />
    <glyph glyph-name="peseta.fitted" 
d="M1047 1073v-145h-113q-23 -182 -139.5 -268.5t-311.5 -86.5h-129v-573h-254v928h-116v145h116v357h375q187 0 310 -90t147 -267h115zM354 817h113q174 0 205 117h-318v-117zM467 1184h-113v-115h316q-35 115 -203 115z" />
    <glyph glyph-name="colonmonetary.fitted" 
d="M815 428l160 -190q-61 -88 -112 -140.5t-111 -83.5v-172h-144v144q-28 -4 -45 -4q-25 0 -49 4v-144h-143l2 178q-157 72 -237.5 261.5t-80.5 433.5q0 159 32.5 295.5t105 244t178.5 154.5v178h143v-141q18 2 47 2q31 0 47 -2v141h144l-2 -176q112 -54 219 -203l-164 -192
q-62 89 -118 133.5t-126 44.5q-73 0 -126.5 -42.5t-82 -115t-41 -152t-12.5 -169.5t12.5 -169.5t41 -152t82 -115t126.5 -42.5t131 48t123 144z" />
    <glyph glyph-name="franc.fitted" 
d="M608 477v-190h-186v-287h-256v287h-139v190h139v953h778v-254h-522v-320h448v-242h-448v-137h186z" />
    <glyph glyph-name="A.sc" horiz-adv-x="1081" 
d="M643 1079l416 -1079h-260l-84 225h-350l-82 -225h-258l413 1079h205zM436 430h207l-102 320z" />
    <glyph glyph-name="B.sc" horiz-adv-x="1060" 
d="M958 322q0 -86 -31 -150t-86 -100.5t-122.5 -54t-149.5 -17.5h-422v1079h398q65 0 118 -8t103 -29t83.5 -54.5t54 -87.5t20.5 -126q0 -59 -31 -117t-80 -88q65 -26 105 -96t40 -151zM684 754q0 56 -33 77t-104 21h-158v-201h162q68 0 100.5 22.5t32.5 80.5zM717 334
q0 60 -36 84t-112 24h-180v-217h180q76 0 112 23.5t36 85.5z" />
    <glyph glyph-name="C.sc" horiz-adv-x="1034" 
d="M774 369l172 -166q-102 -122 -182 -168.5t-211 -46.5q-96 0 -174.5 30.5t-132 82.5t-90.5 123t-53.5 150.5t-16.5 166.5q0 86 16.5 165t53 150t90 123t132 82.5t173.5 30.5q124 0 210.5 -46t178.5 -157l-168 -166q-66 73 -112 102t-109 29q-59 0 -103.5 -26t-69 -71.5
t-36.5 -99.5t-12 -116q0 -86 20 -154t71.5 -115t129.5 -47q65 0 112.5 32.5t110.5 111.5z" />
    <glyph glyph-name="D.sc" horiz-adv-x="1075" 
d="M971 541q0 -103 -8.5 -177t-30.5 -137.5t-58.5 -104t-93.5 -69t-134 -41t-181 -12.5h-318v1079h318q125 0 211 -18.5t144.5 -55.5t91 -103t46 -151t13.5 -210zM731 541q0 75 -2 119t-11.5 81.5t-22.5 54.5t-41 29t-60 14.5t-88 2.5h-117v-604h117q56 0 90 3t61 17t40 31
t21.5 56t10.5 80.5t2 115.5z" />
    <glyph glyph-name="E.sc" horiz-adv-x="997" 
d="M895 238v-238h-748v1079h748v-237h-508v-178h444v-218h-444v-208h508z" />
    <glyph glyph-name="F.sc" horiz-adv-x="960" 
d="M881 1079v-237h-494v-178h440v-218h-440v-446h-240v1079h734z" />
    <glyph glyph-name="G.sc" horiz-adv-x="1075" 
d="M539 598h411l-2 -598h-203v72q-73 -84 -206 -84q-113 0 -199.5 47.5t-137 128t-75.5 176t-25 201.5q0 85 15 162.5t49 149.5t85 124.5t128 83.5t172 31q124 0 211 -46.5t178 -156.5l-168 -166q-66 73 -112 102t-109 29q-61 0 -103.5 -25t-64 -71t-30.5 -98t-9 -119
q0 -314 209 -314q78 0 123 55.5t45 131.5h-182v184z" />
    <glyph glyph-name="H.sc" horiz-adv-x="1124" 
d="M979 1079v-1079h-242v446h-348v-446h-242v1079h242v-415h348v415h242z" />
    <glyph glyph-name="I.sc" horiz-adv-x="532" 
d="M387 1079v-1079h-240v1079h240z" />
    <glyph glyph-name="J.sc" horiz-adv-x="958" 
d="M569 1077h242v-725q0 -177 -98 -270.5t-277 -93.5q-155 0 -245.5 81.5t-131.5 245.5l222 62q22 -83 61 -118.5t94 -35.5q71 0 102 38t31 112v704z" />
    <glyph glyph-name="K.sc" horiz-adv-x="1071" 
d="M387 1079v-1079h-240v1079h240zM754 0l-353 547l308 532h260l-318 -532l373 -547h-270z" />
    <glyph glyph-name="L.sc" horiz-adv-x="917" 
d="M836 233v-233h-689v1079h240v-846h449z" />
    <glyph glyph-name="M.sc" horiz-adv-x="1275" 
d="M1128 1079v-1079h-241v461l-178 -461h-142l-180 459v-459h-240v1079h222l268 -680l270 680h221z" />
    <glyph glyph-name="N.sc" horiz-adv-x="1091" 
d="M946 1079v-1079h-196l-363 586v-586h-240v1079h195l363 -585v585h241z" />
    <glyph glyph-name="O.sc" horiz-adv-x="1069" 
d="M987 541q0 -87 -15 -165t-49.5 -150t-86 -124t-129.5 -83t-175 -31q-120 0 -209.5 46.5t-140.5 126.5t-75.5 175t-24.5 205q0 87 14.5 165t48.5 149.5t85 123t128 82.5t174 31t175 -31t129.5 -82.5t86 -123t49.5 -149.5t15 -165zM745 541q0 53 -5.5 96t-19.5 84t-37.5 69
t-61.5 45t-89 17q-61 0 -103.5 -24.5t-64.5 -70.5t-31 -97.5t-9 -118.5t9 -119t31 -98.5t64.5 -71.5t103.5 -25q213 0 213 314z" />
    <glyph glyph-name="P.sc" horiz-adv-x="1036" 
d="M942 745q0 -333 -369 -333h-188v-412h-242v1079h424q81 0 148 -19t118.5 -58t80 -104.5t28.5 -152.5zM700 743q0 61 -34 85t-105 24h-176v-215h176q73 0 106 23t33 83z" />
    <glyph glyph-name="Q.sc" horiz-adv-x="1069" 
d="M987 541q0 -207 -78 -338q66 -63 146 -203h-269q-18 27 -32 41q-95 -53 -222 -53q-94 0 -170.5 30t-128 81.5t-86 122.5t-50 150.5t-15.5 168.5q0 112 25.5 208t77.5 174.5t141 123.5t206 45q96 0 173 -30t129 -81t87 -122t50.5 -150t15.5 -168zM745 541q0 311 -210 311
q-211 0 -211 -311q0 -314 208 -314q27 0 48 13q-14 15 -43.5 31.5t-49.5 19.5v155q138 -16 232 -86q26 60 26 181z" />
    <glyph glyph-name="R.sc" horiz-adv-x="1071" 
d="M924 745q0 -99 -53 -175t-148 -113q18 -14 43 -49l256 -408h-279l-219 360q-21 35 -38.5 49.5t-49.5 14.5h-45v-424h-241v1079h399q79 0 145.5 -20t118.5 -59.5t81.5 -104.5t29.5 -150zM684 745q0 56 -34 80.5t-101 24.5h-158v-213h158q68 0 101.5 25t33.5 83z" />
    <glyph glyph-name="S.sc" horiz-adv-x="1009" 
d="M915 336q0 -83 -35 -151.5t-93 -111t-129.5 -65t-147.5 -22.5q-338 0 -434 317l227 51q27 -73 78.5 -105t128.5 -32q66 0 116 33t50 86q0 34 -31.5 57t-82 37.5t-111.5 28.5t-122 36.5t-111.5 54.5t-82 90t-31.5 136q0 63 22 116t59 89.5t85.5 61.5t102 37t108.5 12
q137 0 233 -56.5t167 -185.5l-213 -94q-36 59 -79 82.5t-108 23.5q-56 0 -95.5 -23.5t-39.5 -62.5q0 -27 31.5 -46.5t81.5 -33t111 -28.5t121.5 -39.5t110.5 -59t81.5 -94.5t31.5 -139z" />
    <glyph glyph-name="T.sc" horiz-adv-x="954" 
d="M893 1079v-237h-295v-842h-242v842h-295v237h832z" />
    <glyph glyph-name="U.sc" horiz-adv-x="1112" 
d="M973 1079v-624q0 -216 -101 -341.5t-315 -125.5q-110 0 -191.5 34t-130 97.5t-71.5 146.5t-23 187v626h242v-616q0 -119 36.5 -179.5t137.5 -60.5q55 0 90.5 16t53 50t24 73.5t6.5 100.5v616h242z" />
    <glyph glyph-name="V.sc" horiz-adv-x="1050" 
d="M743 1079h254l-364 -1079h-215l-365 1079h254l217 -712z" />
    <glyph glyph-name="W.sc" horiz-adv-x="1417" 
d="M1106 1079h248l-252 -1079h-248l-145 598l-146 -598h-248l-249 1079h245l140 -645l161 645h195l162 -645z" />
    <glyph glyph-name="X.sc" horiz-adv-x="1099" 
d="M690 555l365 -555h-287l-219 362l-217 -362h-287l365 555l-347 524h289l197 -334l199 334h288z" />
    <glyph glyph-name="Y.sc" horiz-adv-x="1042" 
d="M729 1079h268l-356 -721v-358h-242v360l-354 719h268l209 -454z" />
    <glyph glyph-name="Z.sc" horiz-adv-x="1024" 
d="M901 238v-238h-799v174l455 668h-418v237h752v-176l-451 -665h461z" />
    <glyph glyph-name="commaaccentcomb" horiz-adv-x="579" 
d="M406 -281v-112l-166 -262h-95v374q0 53 38 90t91 37q56 0 94 -36.5t38 -90.5z" />
    <glyph glyph-name="commaaccentcomb.alt" horiz-adv-x="579" 
d="M145 1251v113l164 262h97v-375q0 -52 -38.5 -89.5t-91.5 -37.5q-55 0 -93 37t-38 90z" />
    <glyph glyph-name="grave.cap" horiz-adv-x="688" 
d="M383 1880l174 -330h-170l-256 330h252z" />
    <glyph glyph-name="acute.cap" horiz-adv-x="681" 
d="M303 1880h250l-252 -330h-174z" />
    <glyph glyph-name="circumflex.cap" horiz-adv-x="1077" 
d="M641 1868l252 -312h-231l-125 185l-121 -185h-234l252 312h207z" />
    <glyph glyph-name="caron.cap" horiz-adv-x="1067" 
d="M893 1866l-252 -312h-207l-252 312h234l121 -185l125 185h231z" />
    <glyph glyph-name="tilde.cap" horiz-adv-x="1079" 
d="M776 1800l125 -104q-56 -73 -106 -108.5t-125 -35.5q-40 0 -76 15t-58.5 33.5t-56.5 33.5t-71 15q-56 0 -113 -78l-123 104q46 74 100 108t136 34q42 0 77.5 -15t57.5 -33.5t54.5 -33.5t68.5 -15q66 0 110 80z" />
    <glyph glyph-name="dieresis.cap" horiz-adv-x="974" 
d="M834 1694q0 -57 -40.5 -97.5t-97.5 -40.5q-58 0 -98.5 40.5t-40.5 97.5q0 58 40.5 98.5t98.5 40.5q57 0 97.5 -40.5t40.5 -98.5zM418 1694q0 -57 -40 -97.5t-97 -40.5t-97.5 40.5t-40.5 97.5q0 58 40.5 98.5t97.5 40.5t97 -40.5t40 -98.5z" />
    <glyph glyph-name="macron.cap" horiz-adv-x="1101" 
d="M883 1780v-164h-662v164h662z" />
    <glyph glyph-name="breve.cap" horiz-adv-x="1107" 
d="M774 1874h168q-62 -146 -162 -221.5t-227 -75.5q-126 0 -225.5 75.5t-161.5 221.5h166q83 -145 221 -145q141 0 221 145z" />
    <glyph glyph-name="ring.cap" horiz-adv-x="1099" 
d="M797 1794q0 -103 -71.5 -175.5t-174.5 -72.5t-175.5 72.5t-72.5 175.5q0 101 72.5 173.5t175.5 72.5q102 0 174 -72t72 -174zM641 1794q0 37 -26.5 63.5t-63.5 26.5t-64.5 -26.5t-27.5 -63.5q0 -38 27.5 -64t64.5 -26t63.5 26t26.5 64z" />
    <glyph glyph-name="hungarumlaut.cap" horiz-adv-x="1001" 
d="M678 1917h223l-244 -311h-127zM379 1917h225l-246 -311h-127z" />
    <glyph glyph-name="dotaccent.cap" horiz-adv-x="1128" 
d="M690 1657q0 -52 -37 -88.5t-90 -36.5q-51 0 -88 36.5t-37 88.5t37 88.5t88 36.5q53 0 90 -36.5t37 -88.5z" />
    <glyph glyph-name="caroncomb" horiz-adv-x="1067" 
d="M893 1503l-252 -311h-207l-252 311h234l121 -184l125 184h231z" />
    <glyph glyph-name="ringcomb" horiz-adv-x="1099" 
d="M797 1432q0 -103 -71.5 -175.5t-174.5 -72.5t-175.5 72.5t-72.5 175.5q0 101 72.5 173t175.5 72t174.5 -71.5t71.5 -173.5zM641 1432q0 37 -26.5 63.5t-63.5 26.5t-64.5 -26.5t-27.5 -63.5q0 -38 27.5 -64.5t64.5 -26.5t63.5 26.5t26.5 64.5z" />
    <glyph glyph-name="hungarumlautcomb" horiz-adv-x="1001" 
d="M678 1554h223l-244 -311h-127zM379 1554h225l-246 -311h-127z" />
    <glyph glyph-name="ringacute" horiz-adv-x="1099" 
d="M508 1708h227l-192 -170h8q92 0 156.5 -64.5t64.5 -156.5t-64.5 -157.5t-156.5 -65.5t-157.5 65.5t-65.5 157.5q0 66 41 127zM633 1317q0 34 -24 58t-58 24t-58 -24t-24 -58t24 -58t58 -24t58 24t24 58z" />
    <glyph glyph-name="ringacute.cap" horiz-adv-x="1099" 
d="M508 2161h227l-192 -170h8q92 0 156.5 -65t64.5 -157t-64.5 -157.5t-156.5 -65.5t-157.5 65.5t-65.5 157.5q0 66 41 127zM633 1769q0 34 -24 58t-58 24t-58 -24t-24 -58t24 -57.5t58 -23.5t58 23.5t24 57.5z" />
    <glyph glyph-name="ringacutecomb" horiz-adv-x="1099" 
d="M508 1798h227l-192 -170h8q92 0 156.5 -64.5t64.5 -156.5t-64.5 -157.5t-156.5 -65.5t-157.5 65.5t-65.5 157.5q0 66 41 127zM633 1407q0 34 -24 58t-58 24t-58 -24t-24 -58t24 -58t58 -24t58 24t24 58z" />
    <glyph glyph-name="Aacute.sc" horiz-adv-x="1081" 
d="M643 1079l416 -1079h-260l-84 225h-350l-82 -225h-258l413 1079h205zM436 430h207l-102 320zM645 1518h252l-254 -330h-172z" />
    <glyph glyph-name="Agrave.sc" horiz-adv-x="1081" 
d="M643 1079l416 -1079h-260l-84 225h-350l-82 -225h-258l413 1079h205zM436 430h207l-102 320zM436 1518l174 -330h-172l-254 330h252z" />
    <glyph glyph-name="Acircumflex.sc" horiz-adv-x="1081" 
d="M643 1079l416 -1079h-260l-84 225h-350l-82 -225h-258l413 1079h205zM436 430h207l-102 320zM643 1505l252 -311h-231l-125 184l-121 -184h-234l252 311h207z" />
    <glyph glyph-name="Atilde.sc" horiz-adv-x="1081" 
d="M643 1079l416 -1079h-260l-84 225h-350l-82 -225h-258l413 1079h205zM436 430h207l-102 320zM780 1438l127 -105q-36 -47 -65 -75t-72.5 -48t-95.5 -20q-40 0 -76 15t-58.5 33t-56.5 33t-71 15q-56 0 -113 -78l-123 105q46 73 100 107t136 34q42 0 78 -15t58 -33
t54.5 -33t67.5 -15q66 0 110 80z" />
    <glyph glyph-name="Adieresis.sc" horiz-adv-x="1081" 
d="M643 1079l416 -1079h-260l-84 225h-350l-82 -225h-258l413 1079h205zM436 430h207l-102 320zM887 1331q0 -57 -40.5 -97t-96.5 -40q-58 0 -99 40t-41 97q0 58 40.5 98.5t99.5 40.5q56 0 96.5 -40.5t40.5 -98.5zM471 1331q0 -57 -40 -97t-97 -40t-97 40t-40 97
q0 58 40 98.5t97 40.5t97 -40.5t40 -98.5z" />
    <glyph glyph-name="Amacron.sc" horiz-adv-x="1081" 
d="M643 1079l416 -1079h-260l-84 225h-350l-82 -225h-258l413 1079h205zM436 430h207l-102 320zM872 1417v-164h-661v164h661z" />
    <glyph glyph-name="Abreve.sc" horiz-adv-x="1081" 
d="M643 1079l416 -1079h-260l-84 225h-350l-82 -225h-258l413 1079h205zM436 430h207l-102 320zM762 1511h168q-62 -146 -162 -221.5t-227 -75.5q-126 0 -225.5 75.5t-161.5 221.5h165q83 -145 222 -145q141 0 221 145z" />
    <glyph glyph-name="Aring.sc" horiz-adv-x="1081" 
d="M643 1079l416 -1079h-260l-84 225h-350l-82 -225h-258l413 1079h205zM436 430h207l-102 320zM788 1432q0 -103 -72 -175.5t-173 -72.5q-103 0 -175.5 72.5t-72.5 175.5q0 101 72.5 173t175.5 72q101 0 173 -72t72 -173zM633 1432q0 37 -26.5 63.5t-63.5 26.5
q-38 0 -65 -26.5t-27 -63.5q0 -38 27 -64.5t65 -26.5q37 0 63.5 26.5t26.5 64.5z" />
    <glyph glyph-name="Aringacute.sc" horiz-adv-x="1081" 
d="M643 1079l416 -1079h-260l-84 225h-350l-82 -225h-258l413 1079h205zM436 430h207l-102 320zM500 1798h227l-195 -170h11q92 0 156.5 -64.5t64.5 -156.5t-64.5 -157.5t-156.5 -65.5q-93 0 -158.5 65t-65.5 158q0 69 39 127zM625 1407q0 33 -24.5 57.5t-57.5 24.5
q-35 0 -59.5 -24t-24.5 -58t24.5 -58t59.5 -24q33 0 57.5 24.5t24.5 57.5z" />
    <glyph glyph-name="Aogonek.sc" horiz-adv-x="1081" 
d="M985 0l285 -408h-230l-241 408l-84 225h-350l-82 -225h-258l413 1079h205l416 -1079h-74zM436 430h207l-102 320z" />
    <glyph glyph-name="AE.sc" horiz-adv-x="1486" 
d="M1391 238v-238h-723v225h-283l-117 -225h-260l572 1079h811v-237h-486v-176h422v-222h-422v-206h486zM494 430h174v318h-31z" />
    <glyph glyph-name="AEacute.sc" horiz-adv-x="1486" 
d="M1391 238v-238h-723v225h-283l-117 -225h-260l572 1079h811v-237h-486v-176h422v-222h-422v-206h486zM494 430h174v318h-31zM762 1518h250l-254 -330h-172z" />
    <glyph glyph-name="Cacute.sc" horiz-adv-x="1034" 
d="M774 369l172 -166q-102 -122 -182 -168.5t-211 -46.5q-96 0 -174.5 30.5t-132 82.5t-90.5 123t-53.5 150.5t-16.5 166.5q0 86 16.5 165t53 150t90 123t132 82.5t173.5 30.5q124 0 210.5 -46t178.5 -157l-168 -166q-66 73 -112 102t-109 29q-59 0 -103.5 -26t-69 -71.5
t-36.5 -99.5t-12 -116q0 -86 20 -154t71.5 -115t129.5 -47q65 0 112.5 32.5t110.5 111.5zM479 1518h250l-252 -330h-174z" />
    <glyph glyph-name="Ccircumflex.sc" horiz-adv-x="1034" 
d="M774 369l172 -166q-102 -122 -182 -168.5t-211 -46.5q-96 0 -174.5 30.5t-132 82.5t-90.5 123t-53.5 150.5t-16.5 166.5q0 86 16.5 165t53 150t90 123t132 82.5t173.5 30.5q124 0 210.5 -46t178.5 -157l-168 -166q-66 73 -112 102t-109 29q-59 0 -103.5 -26t-69 -71.5
t-36.5 -99.5t-12 -116q0 -86 20 -154t71.5 -115t129.5 -47q65 0 112.5 32.5t110.5 111.5zM621 1505l251 -311h-231l-125 184l-121 -184h-233l252 311h207z" />
    <glyph glyph-name="Ccaron.sc" horiz-adv-x="1034" 
d="M946 203l-172 166q-63 -79 -110.5 -111.5t-112.5 -32.5q-78 0 -129.5 47t-71.5 115t-20 154q0 62 12 116t36.5 99.5t69 71.5t103.5 26q63 0 109 -29t112 -102l168 166q-92 111 -178.5 157t-210.5 46q-95 0 -173.5 -30.5t-132 -82.5t-90 -123t-53 -150t-16.5 -165
q0 -87 16.5 -166.5t53.5 -150.5t90.5 -123t132 -82.5t174.5 -30.5q131 0 211 46.5t182 168.5zM872 1503l-251 -311h-207l-252 311h233l121 -184l125 184h231z" />
    <glyph glyph-name="Ccedilla.sc" horiz-adv-x="1036" 
d="M774 369l172 -166q-83 -101 -149.5 -148.5t-157.5 -60.5l49 -139l-141 -269h-236l201 281l-49 127q-95 16 -169 68t-118.5 127t-67 164.5t-22.5 187.5q0 86 16.5 165t53 150t90 123t132 82.5t173.5 30.5q124 0 210.5 -46t178.5 -157l-168 -166q-66 73 -112 102t-109 29
q-59 0 -103.5 -26t-69 -71.5t-36.5 -99.5t-12 -116q0 -86 20 -154t71.5 -115t129.5 -47q65 0 112.5 32.5t110.5 111.5z" />
    <glyph glyph-name="Cdotaccent.sc" horiz-adv-x="1034" 
d="M774 369l172 -166q-102 -122 -182 -168.5t-211 -46.5q-96 0 -174.5 30.5t-132 82.5t-90.5 123t-53.5 150.5t-16.5 166.5q0 86 16.5 165t53 150t90 123t132 82.5t173.5 30.5q124 0 210.5 -46t178.5 -157l-168 -166q-66 73 -112 102t-109 29q-59 0 -103.5 -26t-69 -71.5
t-36.5 -99.5t-12 -116q0 -86 20 -154t71.5 -115t129.5 -47q65 0 112.5 32.5t110.5 111.5zM643 1294q0 -52 -37 -88.5t-90 -36.5q-51 0 -88 36.5t-37 88.5t37 88.5t88 36.5q53 0 90 -36.5t37 -88.5z" />
    <glyph glyph-name="Dcaron.sc" horiz-adv-x="1075" 
d="M971 541q0 125 -13.5 210t-46 151t-91 103t-144.5 55.5t-211 18.5h-318v-1079h318q104 0 181 12.5t134 41t93.5 69t58.5 104t30.5 137.5t8.5 177zM731 541q0 -74 -2 -115.5t-10.5 -80.5t-21.5 -56t-40 -31t-61 -17t-90 -3h-117v604h117q56 0 88 -2.5t60 -14.5t41 -29
t22.5 -54.5t11.5 -81.5t2 -119zM895 1503l-252 -311h-209l-252 311h234l123 -184l123 184h233z" />
    <glyph glyph-name="Eth.sc" horiz-adv-x="1079" 
d="M973 541q0 -103 -8.5 -177t-30.5 -137.5t-58 -104t-93 -69t-134 -41t-182 -12.5h-317v440h-56v195h56v444h317q125 0 211 -18.5t144.5 -55.5t91 -103t46 -151t13.5 -210zM733 541q0 75 -2 119t-11.5 81.5t-22.5 54.5t-41 29t-60 14.5t-88 2.5h-117v-207h189v-195h-189
v-202h117q56 0 90 3t61 17t40 31t21.5 56t10.5 80.5t2 115.5z" />
    <glyph glyph-name="Dcroat.sc" horiz-adv-x="1079" 
d="M973 541q0 -103 -8.5 -177t-30.5 -137.5t-58 -104t-93 -69t-134 -41t-182 -12.5h-317v440h-56v195h56v444h317q125 0 211 -18.5t144.5 -55.5t91 -103t46 -151t13.5 -210zM733 541q0 75 -2 119t-11.5 81.5t-22.5 54.5t-41 29t-60 14.5t-88 2.5h-117v-207h152v-195h-152
v-202h117q56 0 90 3t61 17t40 31t21.5 56t10.5 80.5t2 115.5z" />
    <glyph glyph-name="Eacute.sc" horiz-adv-x="997" 
d="M895 238v-238h-748v1079h748v-237h-508v-178h444v-218h-444v-208h508zM461 1518h252l-254 -330h-172z" />
    <glyph glyph-name="Egrave.sc" horiz-adv-x="997" 
d="M895 238v-238h-748v1079h748v-237h-508v-178h444v-218h-444v-208h508zM539 1518l174 -330h-172l-254 330h252z" />
    <glyph glyph-name="Ecircumflex.sc" horiz-adv-x="997" 
d="M895 238v-238h-748v1079h748v-237h-508v-178h444v-218h-444v-208h508zM604 1505l252 -311h-233l-125 184l-121 -184h-234l252 311h209z" />
    <glyph glyph-name="Ecaron.sc" horiz-adv-x="997" 
d="M895 0v238h-508v208h444v218h-444v178h508v237h-748v-1079h748zM856 1503l-252 -311h-209l-252 311h234l121 -184l125 184h233z" />
    <glyph glyph-name="Edieresis.sc" horiz-adv-x="997" 
d="M895 238v-238h-748v1079h748v-237h-508v-178h444v-218h-444v-208h508zM844 1331q0 -57 -40 -97t-97 -40t-98.5 40t-41.5 97q0 58 41.5 98.5t98.5 40.5t97 -40.5t40 -98.5zM430 1331q0 -57 -40 -97t-97 -40q-58 0 -98.5 40t-40.5 97q0 59 40 99t99 40q57 0 97 -40.5
t40 -98.5z" />
    <glyph glyph-name="Emacron.sc" horiz-adv-x="997" 
d="M895 238v-238h-748v1079h748v-237h-508v-178h444v-218h-444v-208h508zM829 1417v-164h-659v164h659z" />
    <glyph glyph-name="Ebreve.sc" horiz-adv-x="997" 
d="M895 238v-238h-748v1079h748v-237h-508v-178h444v-218h-444v-208h508zM721 1511h166q-61 -146 -160.5 -221.5t-226.5 -75.5q-126 0 -226.5 75.5t-162.5 221.5h168q83 -145 221 -145t221 145z" />
    <glyph glyph-name="Edotaccent.sc" horiz-adv-x="997" 
d="M895 238v-238h-748v1079h748v-237h-508v-178h444v-218h-444v-208h508zM625 1294q0 -52 -36.5 -88.5t-88.5 -36.5t-88.5 36.5t-36.5 88.5t36.5 88.5t88.5 36.5t88.5 -36.5t36.5 -88.5z" />
    <glyph glyph-name="Eogonek.sc" horiz-adv-x="997" 
d="M895 0l289 -408h-230l-241 408h-566v1079h748v-237h-508v-178h444v-218h-444v-208h508v-238z" />
    <glyph glyph-name="Gcircumflex.sc" horiz-adv-x="1075" 
d="M539 598h411l-2 -598h-203v72q-73 -84 -206 -84q-113 0 -199.5 47.5t-137 128t-75.5 176t-25 201.5q0 85 15 162.5t49 149.5t85 124.5t128 83.5t172 31q124 0 211 -46.5t178 -156.5l-168 -166q-66 73 -112 102t-109 29q-61 0 -103.5 -25t-64 -71t-30.5 -98t-9 -119
q0 -314 209 -314q78 0 123 55.5t45 131.5h-182v184zM641 1505l252 -311h-234l-122 184l-123 -184h-232l252 311h207z" />
    <glyph glyph-name="Gbreve.sc" horiz-adv-x="1075" 
d="M539 598h411l-2 -598h-203v72q-73 -84 -206 -84q-113 0 -199.5 47.5t-137 128t-75.5 176t-25 201.5q0 85 15 162.5t49 149.5t85 124.5t128 83.5t172 31q124 0 211 -46.5t178 -156.5l-168 -166q-66 73 -112 102t-109 29q-61 0 -103.5 -25t-64 -71t-30.5 -98t-9 -119
q0 -314 209 -314q78 0 123 55.5t45 131.5h-182v184zM760 1511h168q-62 -146 -162 -221.5t-227 -75.5q-126 0 -225.5 75.5t-163.5 221.5h167q83 -145 222 -145q141 0 221 145z" />
    <glyph glyph-name="Gdotaccent.sc" horiz-adv-x="1075" 
d="M539 598h411l-2 -598h-203v72q-73 -84 -206 -84q-113 0 -199.5 47.5t-137 128t-75.5 176t-25 201.5q0 85 15 162.5t49 149.5t85 124.5t128 83.5t172 31q124 0 211 -46.5t178 -156.5l-168 -166q-66 73 -112 102t-109 29q-61 0 -103.5 -25t-64 -71t-30.5 -98t-9 -119
q0 -314 209 -314q78 0 123 55.5t45 131.5h-182v184zM664 1294q0 -52 -37 -88.5t-90 -36.5q-51 0 -88 36.5t-37 88.5t37 88.5t88 36.5q53 0 90 -36.5t37 -88.5z" />
    <glyph glyph-name="Gcommaaccent.sc" horiz-adv-x="1075" 
d="M539 598h411l-2 -598h-203v72q-73 -84 -206 -84q-113 0 -199.5 47.5t-137 128t-75.5 176t-25 201.5q0 85 15 162.5t49 149.5t85 124.5t128 83.5t172 31q124 0 211 -46.5t178 -156.5l-168 -166q-66 73 -112 102t-109 29q-61 0 -103.5 -25t-64 -71t-30.5 -98t-9 -119
q0 -314 209 -314q78 0 123 55.5t45 131.5h-182v184zM666 -281v-112l-164 -262h-94v374q0 54 37.5 90.5t91.5 36.5t91.5 -36.5t37.5 -90.5z" />
    <glyph glyph-name="Hcircumflex.sc" horiz-adv-x="1124" 
d="M979 1079v-1079h-242v446h-348v-446h-242v1079h242v-415h348v415h242zM666 1505l252 -311h-234l-123 184l-123 -184h-231l250 311h209z" />
    <glyph glyph-name="Hbar.sc" horiz-adv-x="1124" 
d="M1124 961v-181h-145v-780h-242v446h-348v-446h-242v780h-143v181h143v118h242v-118h348v118h242v-118h145zM389 664h348v116h-348v-116z" />
    <glyph glyph-name="Iacute.sc" horiz-adv-x="532" 
d="M387 1079v-1079h-240v1079h240zM319 1518h252l-254 -330h-174z" />
    <glyph glyph-name="Igrave.sc" horiz-adv-x="532" 
d="M387 1079v-1079h-240v1079h240zM215 1518l174 -330h-172l-254 330h252z" />
    <glyph glyph-name="Icircumflex.sc" horiz-adv-x="532" 
d="M387 1079v-1079h-240v1079h240zM371 1505l252 -311h-234l-123 184l-123 -184h-233l252 311h209z" />
    <glyph glyph-name="Itilde.sc" horiz-adv-x="532" 
d="M387 1079v-1079h-240v1079h240zM506 1438l127 -105q-55 -72 -106 -107.5t-126 -35.5q-40 0 -76 15t-59 33t-57 33t-72 15q-34 0 -60 -21t-52 -57l-123 105q46 74 99.5 107.5t135.5 33.5q43 0 79 -15t58 -33t54.5 -33t68.5 -15q65 0 109 80z" />
    <glyph glyph-name="Idieresis.sc" horiz-adv-x="532" 
d="M387 1079v-1079h-240v1079h240zM612 1331q0 -57 -40 -97t-97 -40t-98 40t-41 97q0 58 41 98.5t98 40.5t97 -40.5t40 -98.5zM199 1331q0 -57 -40.5 -97t-97.5 -40q-58 0 -98.5 40t-40.5 97q0 59 40 99t99 40q57 0 97.5 -40.5t40.5 -98.5z" />
    <glyph glyph-name="Imacron.sc" horiz-adv-x="532" 
d="M387 1079v-1079h-240v1079h240zM598 1417v-164h-661v164h661z" />
    <glyph glyph-name="Ibreve.sc" horiz-adv-x="532" 
d="M387 1079v-1079h-240v1079h240zM489 1511h166q-61 -146 -160.5 -221.5t-226.5 -75.5q-126 0 -226.5 75.5t-162.5 221.5h168q83 -145 221 -145t221 145z" />
    <glyph glyph-name="Idotaccent.sc" horiz-adv-x="532" 
d="M387 1079v-1079h-240v1079h240zM393 1294q0 -52 -37 -88.5t-90 -36.5q-52 0 -88.5 36.5t-36.5 88.5t36.5 88.5t88.5 36.5q53 0 90 -36.5t37 -88.5z" />
    <glyph glyph-name="Iogonek.sc" horiz-adv-x="516" 
d="M328 0l272 -408h-223l-240 408v1079h242v-1079h-51z" />
    <glyph glyph-name="Jcircumflex.sc" horiz-adv-x="958" 
d="M569 1077h242v-725q0 -177 -98 -270.5t-277 -93.5q-155 0 -245.5 81.5t-131.5 245.5l222 62q22 -83 61 -118.5t94 -35.5q71 0 102 38t31 112v704zM801 1505l252 -311h-232l-125 184l-121 -184h-233l252 311h207z" />
    <glyph glyph-name="Kcommaaccent.sc" horiz-adv-x="1071" 
d="M387 1079v-1079h-240v1079h240zM754 0l-353 547l308 532h260l-318 -532l373 -547h-270zM664 -281v-112l-164 -262h-94v374q0 54 37.5 90.5t91.5 36.5t91.5 -36.5t37.5 -90.5z" />
    <glyph glyph-name="Lacute.sc" horiz-adv-x="917" 
d="M836 233v-233h-689v1079h240v-846h449zM322 1518h251l-254 -330h-172z" />
    <glyph glyph-name="Lcaron.sc" horiz-adv-x="917" 
d="M836 233v-233h-689v1079h240v-846h449zM860 1030l-10 -108l-152 -242h-86l11 350q2 50 35.5 85.5t82.5 35.5q50 0 86.5 -36t32.5 -85z" />
    <glyph glyph-name="Lcommaaccent.sc" horiz-adv-x="917" 
d="M836 233v-233h-689v1079h240v-846h449zM588 -281v-112l-164 -262h-96v374q0 53 38 90t91 37q56 0 93.5 -36.5t37.5 -90.5z" />
    <glyph glyph-name="Lslash.sc" horiz-adv-x="929" 
d="M852 238v-238h-698v338l-54 -23v203l54 23v538h245v-432l187 80v-203l-187 -80v-206h453z" />
    <glyph glyph-name="Nacute.sc" horiz-adv-x="1091" 
d="M946 1079v-1079h-196l-363 586v-586h-240v1079h195l363 -585v585h241zM508 1518h250l-252 -330h-174z" />
    <glyph glyph-name="Ncaron.sc" horiz-adv-x="1091" 
d="M946 0v1079h-241v-585l-363 585h-195v-1079h240v586l363 -586h196zM901 1503l-252 -311h-209l-252 311h234l123 -184l123 184h233z" />
    <glyph glyph-name="Ntilde.sc" horiz-adv-x="1091" 
d="M946 1079v-1079h-196l-363 586v-586h-240v1079h195l363 -585v585h241zM784 1438l127 -105q-55 -72 -106 -107.5t-127 -35.5q-40 0 -75.5 15t-58 33t-56.5 33t-72 15q-56 0 -113 -78l-123 105q46 73 100 107t136 34q43 0 79 -15t58 -33t54.5 -33t68.5 -15q64 0 108 80z
" />
    <glyph glyph-name="Ncommaaccent.sc" horiz-adv-x="1091" 
d="M946 1079v-1079h-196l-363 586v-586h-240v1079h195l363 -585v585h241zM676 -281v-112l-164 -262h-96v374q0 53 38 90t91 37q56 0 93.5 -36.5t37.5 -90.5z" />
    <glyph glyph-name="Eng.sc" horiz-adv-x="1091" 
d="M946 1079v-1142q0 -158 -83.5 -255t-241.5 -116l-74 207q82 15 121 60t39 126v113l-320 514v-586h-240v1079h195l363 -585v585h241z" />
    <glyph glyph-name="Oacute.sc" horiz-adv-x="1069" 
d="M987 541q0 -87 -15 -165t-49.5 -150t-86 -124t-129.5 -83t-175 -31q-120 0 -209.5 46.5t-140.5 126.5t-75.5 175t-24.5 205q0 87 14.5 165t48.5 149.5t85 123t128 82.5t174 31t175 -31t129.5 -82.5t86 -123t49.5 -149.5t15 -165zM745 541q0 53 -5.5 96t-19.5 84t-37.5 69
t-61.5 45t-89 17q-61 0 -103.5 -24.5t-64.5 -70.5t-31 -97.5t-9 -118.5t9 -119t31 -98.5t64.5 -71.5t103.5 -25q213 0 213 314zM496 1518h249l-251 -330h-175z" />
    <glyph glyph-name="Ograve.sc" horiz-adv-x="1069" 
d="M987 541q0 -87 -15 -165t-49.5 -150t-86 -124t-129.5 -83t-175 -31q-120 0 -209.5 46.5t-140.5 126.5t-75.5 175t-24.5 205q0 87 14.5 165t48.5 149.5t85 123t128 82.5t174 31t175 -31t129.5 -82.5t86 -123t49.5 -149.5t15 -165zM745 541q0 53 -5.5 96t-19.5 84t-37.5 69
t-61.5 45t-89 17q-61 0 -103.5 -24.5t-64.5 -70.5t-31 -97.5t-9 -118.5t9 -119t31 -98.5t64.5 -71.5t103.5 -25q213 0 213 314zM573 1518l172 -330h-170l-256 330h254z" />
    <glyph glyph-name="Ocircumflex.sc" horiz-adv-x="1069" 
d="M987 541q0 -87 -15 -165t-49.5 -150t-86 -124t-129.5 -83t-175 -31q-120 0 -209.5 46.5t-140.5 126.5t-75.5 175t-24.5 205q0 87 14.5 165t48.5 149.5t85 123t128 82.5t174 31t175 -31t129.5 -82.5t86 -123t49.5 -149.5t15 -165zM745 541q0 53 -5.5 96t-19.5 84t-37.5 69
t-61.5 45t-89 17q-61 0 -103.5 -24.5t-64.5 -70.5t-31 -97.5t-9 -118.5t9 -119t31 -98.5t64.5 -71.5t103.5 -25q213 0 213 314zM639 1505l252 -311h-234l-125 184l-120 -184h-234l252 311h209z" />
    <glyph glyph-name="Otilde.sc" horiz-adv-x="1069" 
d="M987 541q0 -87 -15 -165t-49.5 -150t-86 -124t-129.5 -83t-175 -31q-120 0 -209.5 46.5t-140.5 126.5t-75.5 175t-24.5 205q0 87 14.5 165t48.5 149.5t85 123t128 82.5t174 31t175 -31t129.5 -82.5t86 -123t49.5 -149.5t15 -165zM745 541q0 53 -5.5 96t-19.5 84t-37.5 69
t-61.5 45t-89 17q-61 0 -103.5 -24.5t-64.5 -70.5t-31 -97.5t-9 -118.5t9 -119t31 -98.5t64.5 -71.5t103.5 -25q213 0 213 314zM774 1438l127 -105q-55 -72 -106 -107.5t-127 -35.5q-40 0 -76 15t-58 33t-56 33t-72 15q-56 0 -113 -78l-123 105q46 73 100 107t136 34
q42 0 78 -15t58 -33t54.5 -33t67.5 -15q66 0 110 80z" />
    <glyph glyph-name="Odieresis.sc" horiz-adv-x="1069" 
d="M987 541q0 -87 -15 -165t-49.5 -150t-86 -124t-129.5 -83t-175 -31q-120 0 -209.5 46.5t-140.5 126.5t-75.5 175t-24.5 205q0 87 14.5 165t48.5 149.5t85 123t128 82.5t174 31t175 -31t129.5 -82.5t86 -123t49.5 -149.5t15 -165zM745 541q0 53 -5.5 96t-19.5 84t-37.5 69
t-61.5 45t-89 17q-61 0 -103.5 -24.5t-64.5 -70.5t-31 -97.5t-9 -118.5t9 -119t31 -98.5t64.5 -71.5t103.5 -25q213 0 213 314zM879 1331q0 -57 -40.5 -97t-97.5 -40t-98 40t-41 97q0 58 41 98.5t98 40.5t97.5 -40.5t40.5 -98.5zM465 1331q0 -57 -40.5 -97t-96.5 -40
q-58 0 -99 40t-41 97q0 58 40.5 98.5t99.5 40.5q56 0 96.5 -40.5t40.5 -98.5z" />
    <glyph glyph-name="Omacron.sc" horiz-adv-x="1069" 
d="M987 541q0 -87 -15 -165t-49.5 -150t-86 -124t-129.5 -83t-175 -31q-120 0 -209.5 46.5t-140.5 126.5t-75.5 175t-24.5 205q0 87 14.5 165t48.5 149.5t85 123t128 82.5t174 31t175 -31t129.5 -82.5t86 -123t49.5 -149.5t15 -165zM745 541q0 53 -5.5 96t-19.5 84t-37.5 69
t-61.5 45t-89 17q-61 0 -103.5 -24.5t-64.5 -70.5t-31 -97.5t-9 -118.5t9 -119t31 -98.5t64.5 -71.5t103.5 -25q213 0 213 314zM864 1417v-164h-661v164h661z" />
    <glyph glyph-name="Obreve.sc" horiz-adv-x="1069" 
d="M987 541q0 -87 -15 -165t-49.5 -150t-86 -124t-129.5 -83t-175 -31q-120 0 -209.5 46.5t-140.5 126.5t-75.5 175t-24.5 205q0 87 14.5 165t48.5 149.5t85 123t128 82.5t174 31t175 -31t129.5 -82.5t86 -123t49.5 -149.5t15 -165zM745 541q0 53 -5.5 96t-19.5 84t-37.5 69
t-61.5 45t-89 17q-61 0 -103.5 -24.5t-64.5 -70.5t-31 -97.5t-9 -118.5t9 -119t31 -98.5t64.5 -71.5t103.5 -25q213 0 213 314zM756 1511h168q-62 -146 -162 -221.5t-227 -75.5q-126 0 -226 75.5t-162 221.5h166q83 -145 222 -145q141 0 221 145z" />
    <glyph glyph-name="Ohungarumlaut.sc" horiz-adv-x="1069" 
d="M987 541q0 -87 -15 -165t-49.5 -150t-86 -124t-129.5 -83t-175 -31q-120 0 -209.5 46.5t-140.5 126.5t-75.5 175t-24.5 205q0 87 14.5 165t48.5 149.5t85 123t128 82.5t174 31t175 -31t129.5 -82.5t86 -123t49.5 -149.5t15 -165zM745 541q0 53 -5.5 96t-19.5 84t-37.5 69
t-61.5 45t-89 17q-61 0 -103.5 -24.5t-64.5 -70.5t-31 -97.5t-9 -118.5t9 -119t31 -98.5t64.5 -71.5t103.5 -25q213 0 213 314zM707 1554h223l-244 -311h-127zM406 1554h225l-246 -311h-127z" />
    <glyph glyph-name="Oslash.sc" horiz-adv-x="1089" 
d="M987 541q0 -87 -15 -165t-49.5 -150t-86 -124t-129.5 -83t-175 -31q-96 0 -167 32l-11 -20h-186l55 111q-141 147 -141 430q0 87 14.5 165t48.5 149.5t85 123t128 82.5t174 31q83 0 162 -29l15 27h192l-57 -119q72 -76 107.5 -189t35.5 -241zM745 541q0 100 -28 174
l-244 -473q27 -15 59 -15q213 0 213 314zM350 373l238 469q-20 10 -56 10q-61 0 -103.5 -24.5t-64.5 -70.5t-31 -97.5t-9 -118.5q0 -108 26 -168z" />
    <glyph glyph-name="Oslashacute.sc" horiz-adv-x="1089" 
d="M987 541q0 -87 -15 -165t-49.5 -150t-86 -124t-129.5 -83t-175 -31q-96 0 -167 32l-11 -20h-186l55 111q-141 147 -141 430q0 87 14.5 165t48.5 149.5t85 123t128 82.5t174 31q83 0 162 -29l15 27h192l-57 -119q72 -76 107.5 -189t35.5 -241zM745 541q0 100 -28 174
l-244 -473q27 -15 59 -15q213 0 213 314zM350 373l238 469q-20 10 -56 10q-61 0 -103.5 -24.5t-64.5 -70.5t-31 -97.5t-9 -118.5q0 -108 26 -168zM506 1518h250l-252 -330h-174z" />
    <glyph glyph-name="OE.sc" horiz-adv-x="1581" 
d="M1483 238v-238h-740v55q-74 -65 -211 -65q-96 0 -173 31t-128 82.5t-85 123t-49 149.5t-15 165q0 86 15 163.5t49 149.5t85 124t128 83t173 31q135 0 211 -66v53h740v-237h-500v-176h436v-222h-436v-206h500zM741 541q0 313 -209 313q-208 0 -208 -313q0 -67 9 -119
t31 -98.5t64.5 -71.5t103.5 -25q209 0 209 314z" />
    <glyph glyph-name="Racute.sc" horiz-adv-x="1071" 
d="M924 745q0 -99 -53 -175t-148 -113q18 -14 43 -49l256 -408h-279l-219 360q-21 35 -38.5 49.5t-49.5 14.5h-45v-424h-241v1079h399q79 0 145.5 -20t118.5 -59.5t81.5 -104.5t29.5 -150zM684 745q0 56 -34 80.5t-101 24.5h-158v-213h158q68 0 101.5 25t33.5 83zM498 1518
h250l-252 -330h-174z" />
    <glyph glyph-name="Rcaron.sc" horiz-adv-x="1071" 
d="M924 745q0 85 -29.5 150t-81.5 104.5t-118.5 59.5t-145.5 20h-399v-1079h241v424h45q32 0 49.5 -14.5t38.5 -49.5l219 -360h279l-256 408q-25 35 -43 49q95 37 148 113t53 175zM684 745q0 -58 -33.5 -83t-101.5 -25h-158v213h158q67 0 101 -24.5t34 -80.5zM893 1503
l-252 -311h-209l-252 311h234l121 -184l124 184h234z" />
    <glyph glyph-name="Rcommaaccent.sc" horiz-adv-x="1071" 
d="M924 745q0 -99 -53 -175t-148 -113q18 -14 43 -49l256 -408h-279l-219 360q-21 35 -38.5 49.5t-49.5 14.5h-45v-424h-241v1079h399q79 0 145.5 -20t118.5 -59.5t81.5 -104.5t29.5 -150zM684 745q0 56 -34 80.5t-101 24.5h-158v-213h158q68 0 101.5 25t33.5 83zM664 -281
v-112l-164 -262h-94v374q0 54 37.5 90.5t91.5 36.5t91.5 -36.5t37.5 -90.5z" />
    <glyph glyph-name="Sacute.sc" horiz-adv-x="1009" 
d="M915 336q0 -83 -35 -151.5t-93 -111t-129.5 -65t-147.5 -22.5q-338 0 -434 317l227 51q27 -73 78.5 -105t128.5 -32q66 0 116 33t50 86q0 34 -31.5 57t-82 37.5t-111.5 28.5t-122 36.5t-111.5 54.5t-82 90t-31.5 136q0 63 22 116t59 89.5t85.5 61.5t102 37t108.5 12
q137 0 233 -56.5t167 -185.5l-213 -94q-36 59 -79 82.5t-108 23.5q-56 0 -95.5 -23.5t-39.5 -62.5q0 -27 31.5 -46.5t81.5 -33t111 -28.5t121.5 -39.5t110.5 -59t81.5 -94.5t31.5 -139zM467 1518h252l-254 -330h-172z" />
    <glyph glyph-name="Scedilla.sc" horiz-adv-x="1009" 
d="M596 -6l49 -135l-141 -267h-219l198 277l-49 123q-277 28 -358 311l227 51q27 -73 78.5 -105t128.5 -32q66 0 116 33t50 86q0 34 -31.5 57t-82 37.5t-111.5 28.5t-122 36.5t-111.5 54.5t-82 90t-31.5 136q0 63 22 116t59 89.5t85.5 61.5t102 37t108.5 12q137 0 233 -56.5
t167 -185.5l-213 -94q-36 59 -79 82.5t-108 23.5q-56 0 -95.5 -23.5t-39.5 -62.5q0 -27 31.5 -46.5t81.5 -33t111 -28.5t121.5 -39.5t110.5 -59t81.5 -94.5t31.5 -139q0 -140 -91.5 -229.5t-227.5 -112.5z" />
    <glyph glyph-name="Scircumflex.sc" horiz-adv-x="1009" 
d="M915 336q0 -83 -35 -151.5t-93 -111t-129.5 -65t-147.5 -22.5q-338 0 -434 317l227 51q27 -73 78.5 -105t128.5 -32q66 0 116 33t50 86q0 34 -31.5 57t-82 37.5t-111.5 28.5t-122 36.5t-111.5 54.5t-82 90t-31.5 136q0 63 22 116t59 89.5t85.5 61.5t102 37t108.5 12
q137 0 233 -56.5t167 -185.5l-213 -94q-36 59 -79 82.5t-108 23.5q-56 0 -95.5 -23.5t-39.5 -62.5q0 -27 31.5 -46.5t81.5 -33t111 -28.5t121.5 -39.5t110.5 -59t81.5 -94.5t31.5 -139zM610 1505l252 -311h-233l-123 184l-123 -184h-233l251 311h209z" />
    <glyph glyph-name="Scaron.sc" horiz-adv-x="1009" 
d="M915 336q0 79 -31.5 139t-81.5 94.5t-111 59.5t-121.5 39.5t-110.5 28t-81.5 33t-31.5 46.5q0 39 39.5 62.5t95.5 23.5q65 0 108 -23.5t79 -82.5l213 94q-71 129 -167 185.5t-233 56.5q-55 0 -108.5 -12t-102 -37t-85.5 -61.5t-59 -89.5t-22 -116q0 -78 31.5 -136t82 -90
t111.5 -54.5t122 -36.5t111.5 -28.5t82 -37.5t31.5 -57q0 -53 -50 -86t-116 -33q-77 0 -128.5 32t-78.5 105l-227 -51q96 -317 434 -317q76 0 147.5 22.5t129.5 65t93 111t35 151.5zM862 1503l-252 -311h-209l-251 311h233l123 -184l123 184h233z" />
    <glyph glyph-name="Scommaaccent.sc" horiz-adv-x="1009" 
d="M915 336q0 -83 -35 -151.5t-93 -111t-129.5 -65t-147.5 -22.5q-338 0 -434 317l227 51q27 -73 78.5 -105t128.5 -32q66 0 116 33t50 86q0 34 -31.5 57t-82 37.5t-111.5 28.5t-122 36.5t-111.5 54.5t-82 90t-31.5 136q0 63 22 116t59 89.5t85.5 61.5t102 37t108.5 12
q137 0 233 -56.5t167 -185.5l-213 -94q-36 59 -79 82.5t-108 23.5q-56 0 -95.5 -23.5t-39.5 -62.5q0 -27 31.5 -46.5t81.5 -33t111 -28.5t121.5 -39.5t110.5 -59t81.5 -94.5t31.5 -139zM635 -281v-112l-164 -262h-94v374q0 54 37.5 90.5t91.5 36.5t91.5 -36.5t37.5 -90.5z
" />
    <glyph glyph-name="germandbls.sc" horiz-adv-x="2017" 
d="M915 336q0 -83 -35 -151.5t-93 -111t-129.5 -65t-147.5 -22.5q-338 0 -434 317l227 51q27 -73 78.5 -105t128.5 -32q66 0 116 33t50 86q0 34 -31.5 57t-82 37.5t-111.5 28.5t-122 36.5t-111.5 54.5t-82 90t-31.5 136q0 63 22 116t59 89.5t85.5 61.5t102 37t108.5 12
q137 0 233 -56.5t167 -185.5l-213 -94q-36 59 -79 82.5t-108 23.5q-56 0 -95.5 -23.5t-39.5 -62.5q0 -27 31.5 -46.5t81.5 -33t111 -28.5t121.5 -39.5t110.5 -59t81.5 -94.5t31.5 -139zM1923 336q0 -83 -35.5 -151.5t-93.5 -111t-129.5 -65t-146.5 -22.5q-341 0 -437 317
l228 51q28 -74 79.5 -105.5t129.5 -31.5q66 0 115.5 33t49.5 86q0 34 -31.5 57t-82 37.5t-111 28.5t-121.5 36.5t-111.5 54.5t-82 90t-31.5 136q0 63 22 116t58.5 89.5t85.5 61.5t101.5 37t107.5 12q139 0 234.5 -56.5t164.5 -185.5l-211 -94q-38 59 -80.5 82.5t-107.5 23.5
q-56 0 -95.5 -23.5t-39.5 -62.5q0 -27 31.5 -46.5t82 -33t111.5 -28.5t121.5 -39.5t111 -59t82 -94.5t31.5 -139z" />
    <glyph glyph-name="Tcaron.sc" horiz-adv-x="954" 
d="M893 842v237h-832v-237h295v-842h242v842h295zM834 1503l-252 -311h-207l-252 311h233l121 -184l123 184h234z" />
    <glyph glyph-name="Tcommaaccent.sc" horiz-adv-x="954" 
d="M893 1079v-237h-295v-842h-242v842h-295v237h832zM606 -281v-112l-164 -262h-94v374q0 54 37.5 90.5t91.5 36.5t91.5 -36.5t37.5 -90.5z" />
    <glyph glyph-name="Tbar.sc" horiz-adv-x="954" 
d="M784 575v-180h-186v-395h-242v395h-186v180h186v267h-295v237h832v-237h-295v-267h186z" />
    <glyph glyph-name="Uacute.sc" horiz-adv-x="1112" 
d="M973 1079v-624q0 -216 -101 -341.5t-315 -125.5q-110 0 -191.5 34t-130 97.5t-71.5 146.5t-23 187v626h242v-616q0 -119 36.5 -179.5t137.5 -60.5q55 0 90.5 16t53 50t24 73.5t6.5 100.5v616h242zM518 1518h252l-254 -330h-172z" />
    <glyph glyph-name="Ugrave.sc" horiz-adv-x="1112" 
d="M973 1079v-624q0 -216 -101 -341.5t-315 -125.5q-110 0 -191.5 34t-130 97.5t-71.5 146.5t-23 187v626h242v-616q0 -119 36.5 -179.5t137.5 -60.5q55 0 90.5 16t53 50t24 73.5t6.5 100.5v616h242zM596 1518l174 -330h-172l-254 330h252z" />
    <glyph glyph-name="Ucircumflex.sc" horiz-adv-x="1112" 
d="M973 1079v-624q0 -216 -101 -341.5t-315 -125.5q-110 0 -191.5 34t-130 97.5t-71.5 146.5t-23 187v626h242v-616q0 -119 36.5 -179.5t137.5 -60.5q55 0 90.5 16t53 50t24 73.5t6.5 100.5v616h242zM659 1505l252 -311h-233l-123 184l-123 -184h-231l250 311h208z" />
    <glyph glyph-name="Utilde.sc" horiz-adv-x="1112" 
d="M973 1079v-624q0 -216 -101 -341.5t-315 -125.5q-110 0 -191.5 34t-130 97.5t-71.5 146.5t-23 187v626h242v-616q0 -119 36.5 -179.5t137.5 -60.5q55 0 90.5 16t53 50t24 73.5t6.5 100.5v616h242zM795 1438l127 -105q-55 -72 -106 -107.5t-126 -35.5q-40 0 -76 15
t-58.5 33t-56.5 33t-71 15q-58 0 -115 -78l-123 105q48 74 101 107.5t135 33.5q43 0 79 -15t58 -33t54.5 -33t68.5 -15q65 0 109 80z" />
    <glyph glyph-name="Udieresis.sc" horiz-adv-x="1112" 
d="M973 1079v-624q0 -216 -101 -341.5t-315 -125.5q-110 0 -191.5 34t-130 97.5t-71.5 146.5t-23 187v626h242v-616q0 -119 36.5 -179.5t137.5 -60.5q55 0 90.5 16t53 50t24 73.5t6.5 100.5v616h242zM901 1331q0 -57 -40 -97t-97 -40t-98 40t-41 97q0 58 41 98.5t98 40.5
t97 -40.5t40 -98.5zM487 1331q0 -57 -40 -97t-97 -40q-58 0 -98.5 40t-40.5 97q0 59 40.5 99t98.5 40q57 0 97 -40.5t40 -98.5z" />
    <glyph glyph-name="Umacron.sc" horiz-adv-x="1112" 
d="M973 1079v-624q0 -216 -101 -341.5t-315 -125.5q-110 0 -191.5 34t-130 97.5t-71.5 146.5t-23 187v626h242v-616q0 -119 36.5 -179.5t137.5 -60.5q55 0 90.5 16t53 50t24 73.5t6.5 100.5v616h242zM887 1417v-164h-662v164h662z" />
    <glyph glyph-name="Ubreve.sc" horiz-adv-x="1112" 
d="M973 1079v-624q0 -216 -101 -341.5t-315 -125.5q-110 0 -191.5 34t-130 97.5t-71.5 146.5t-23 187v626h242v-616q0 -119 36.5 -179.5t137.5 -60.5q55 0 90.5 16t53 50t24 73.5t6.5 100.5v616h242zM778 1511h166q-61 -146 -160.5 -221.5t-226.5 -75.5t-227 75.5
t-162 221.5h168q83 -145 221 -145t221 145z" />
    <glyph glyph-name="Uring.sc" horiz-adv-x="1112" 
d="M973 1079v-624q0 -216 -101 -341.5t-315 -125.5q-110 0 -191.5 34t-130 97.5t-71.5 146.5t-23 187v626h242v-616q0 -119 36.5 -179.5t137.5 -60.5q55 0 90.5 16t53 50t24 73.5t6.5 100.5v616h242zM803 1432q0 -103 -72.5 -175.5t-173.5 -72.5q-104 0 -177 72.5t-73 175.5
q0 101 73 173t177 72q101 0 173.5 -72t72.5 -173zM647 1432q0 36 -27 63t-63 27q-38 0 -65 -26.5t-27 -63.5q0 -38 27 -64.5t65 -26.5q36 0 63 26.5t27 64.5z" />
    <glyph glyph-name="Uhungarumlaut.sc" horiz-adv-x="1112" 
d="M973 1079v-624q0 -216 -101 -341.5t-315 -125.5q-110 0 -191.5 34t-130 97.5t-71.5 146.5t-23 187v626h242v-616q0 -119 36.5 -179.5t137.5 -60.5q55 0 90.5 16t53 50t24 73.5t6.5 100.5v616h242zM668 1554h223l-244 -311h-127zM369 1554h225l-246 -311h-127z" />
    <glyph glyph-name="Uogonek.sc" horiz-adv-x="1112" 
d="M750 23l301 -431h-228l-235 396h-31q-110 0 -191.5 34t-130 97.5t-71.5 146.5t-23 187v626h242v-616q0 -119 36.5 -179.5t137.5 -60.5q55 0 90.5 16t53 50t24 73.5t6.5 100.5v616h242v-624q0 -336 -223 -432z" />
    <glyph glyph-name="Wacute.sc" horiz-adv-x="1417" 
d="M1106 1079h248l-252 -1079h-248l-145 598l-146 -598h-248l-249 1079h245l140 -645l161 645h195l162 -645zM811 1518h250l-254 -330h-172z" />
    <glyph glyph-name="Wgrave.sc" horiz-adv-x="1417" 
d="M1106 1079h248l-252 -1079h-248l-145 598l-146 -598h-248l-249 1079h245l140 -645l161 645h195l162 -645zM608 1518l174 -330h-170l-256 330h252z" />
    <glyph glyph-name="Wcircumflex.sc" horiz-adv-x="1417" 
d="M1106 1079h248l-252 -1079h-248l-145 598l-146 -598h-248l-249 1079h245l140 -645l161 645h195l162 -645zM813 1505l250 -311h-232l-124 184l-121 -184h-234l252 311h209z" />
    <glyph glyph-name="Wdieresis.sc" horiz-adv-x="1417" 
d="M1106 1079h248l-252 -1079h-248l-145 598l-146 -598h-248l-249 1079h245l140 -645l161 645h195l162 -645zM1055 1331q0 -57 -40 -97t-97 -40q-58 0 -99 40t-41 97q0 58 40.5 98.5t99.5 40.5q57 0 97 -40.5t40 -98.5zM639 1331q0 -57 -40 -97t-97 -40t-97 40t-40 97
q0 58 40 98.5t97 40.5t97 -40.5t40 -98.5z" />
    <glyph glyph-name="Yacute.sc" horiz-adv-x="1042" 
d="M729 1079h268l-356 -721v-358h-242v360l-354 719h268l209 -454zM483 1518h250l-252 -330h-174z" />
    <glyph glyph-name="Ygrave.sc" horiz-adv-x="1042" 
d="M729 1079h268l-356 -721v-358h-242v360l-354 719h268l209 -454zM561 1518l172 -330h-170l-256 330h254z" />
    <glyph glyph-name="Ycircumflex.sc" horiz-adv-x="1042" 
d="M729 1079h268l-356 -721v-358h-242v360l-354 719h268l209 -454zM627 1505l252 -311h-234l-125 184l-121 -184h-233l252 311h209z" />
    <glyph glyph-name="Ydieresis.sc" horiz-adv-x="1042" 
d="M729 1079h268l-356 -721v-358h-242v360l-354 719h268l209 -454zM866 1331q0 -57 -40 -97t-97 -40q-58 0 -98.5 40t-40.5 97q0 59 40 99t99 40q57 0 97 -40.5t40 -98.5zM453 1331q0 -57 -41 -97t-97 -40q-58 0 -98.5 40t-40.5 97q0 59 40 99t99 40q56 0 97 -40.5t41 -98.5
z" />
    <glyph glyph-name="Zacute.sc" horiz-adv-x="1024" 
d="M901 238v-238h-799v174l455 668h-418v237h752v-176l-451 -665h461zM475 1518h250l-254 -330h-172z" />
    <glyph glyph-name="Zcaron.sc" horiz-adv-x="1024" 
d="M901 0v238h-461l451 665v176h-752v-237h418l-455 -668v-174h799zM868 1503l-252 -311h-206l-252 311h233l121 -184l123 184h233z" />
    <glyph glyph-name="Zdotaccent.sc" horiz-adv-x="1024" 
d="M901 238v-238h-799v174l455 668h-418v237h752v-176l-451 -665h461zM639 1294q0 -52 -37 -88.5t-90 -36.5q-51 0 -88 36.5t-37 88.5t37 88.5t88 36.5q53 0 90 -36.5t37 -88.5z" />
    <glyph glyph-name="Thorn.sc" horiz-adv-x="1050" 
d="M958 555q0 -86 -31.5 -152t-86 -105t-123 -58t-148.5 -19h-180v-221h-242v1079h242v-190h180q83 0 152 -19t123 -57.5t84 -104.5t30 -153zM717 555q0 32 -12.5 53.5t-36 31t-46 12.5t-53.5 3h-180v-200h180q71 0 109.5 20.5t38.5 79.5z" />
    </font>
</defs>
</svg>
