<svg width="11" height="14" viewBox="0 0 11 14" fill="none" xmlns="http://www.w3.org/2000/svg">
<path d="M10.7276 1.55147L5.60991 0.0161306C5.53825 -0.00537687 5.46188 -0.00537687 5.39019 0.0161306L0.272385 1.55147C0.110723 1.59996 0 1.74878 0 1.91758V7.54713C0 8.27936 0.296441 9.02891 0.881042 9.77497C1.32753 10.3448 1.94525 10.9169 2.717 11.4756C4.01349 12.4141 5.29015 12.9898 5.34387 13.0138C5.39353 13.036 5.44679 13.0472 5.50005 13.0472C5.55331 13.0472 5.60657 13.0361 5.65624 13.0138C5.70993 12.9898 6.98656 12.4141 8.28305 11.4756C9.0548 10.9169 9.6725 10.3448 10.119 9.77497C10.7036 9.02893 11 8.27938 11 7.54713V1.91758C11 1.74878 10.8893 1.59996 10.7276 1.55147Z" fill="white"/>
</svg>
