<svg width="19" height="18" viewBox="0 0 19 18" fill="none" xmlns="http://www.w3.org/2000/svg">
<path d="M8.74757 1.31358C8.95712 0.668664 9.8695 0.668666 10.079 1.31358L11.6829 6.24967C11.7766 6.53809 12.0454 6.73336 12.3486 6.73336H17.5387C18.2168 6.73336 18.4988 7.60109 17.9502 7.99967L13.7513 11.0503C13.506 11.2286 13.4033 11.5445 13.497 11.833L15.1008 16.769C15.3104 17.414 14.5722 17.9503 14.0236 17.5517L9.82476 14.501C9.57942 14.3228 9.2472 14.3228 9.00186 14.501L4.80298 17.5517C4.25438 17.9503 3.51624 17.414 3.72579 16.769L5.32962 11.833C5.42333 11.5445 5.32067 11.2286 5.07533 11.0503L0.876443 7.99967C0.327844 7.60109 0.609785 6.73336 1.28789 6.73336H6.478C6.78126 6.73336 7.05003 6.53808 7.14374 6.24967L8.74757 1.31358Z" fill="#F6B100"/>
</svg>
