<svg width="20" height="13" viewBox="0 0 20 13" fill="none" xmlns="http://www.w3.org/2000/svg">
<path fill-rule="evenodd" clip-rule="evenodd" d="M14.2578 0.643112C15.9918 1.05106 16.6551 2.07907 17.4867 3.49398H14.2578V0.643112ZM4.12415 3.61279C4.46365 3.61279 4.71008 3.77894 4.71008 4.16725C4.71008 4.49475 4.4487 4.76038 4.12582 4.76131H0.585938C0.262299 4.76131 0 5.02739 0 5.35536C0 5.68349 0.262299 5.94942 0.585938 5.94942H5.85938C6.18607 5.94942 6.4476 6.2152 6.4476 6.54348C6.4476 6.87161 6.1853 7.13754 5.86166 7.13754H0.585938C0.262299 7.13754 0 7.40348 0 7.7316C0 8.05973 0.262299 8.32566 0.585938 8.32566H1.875V10.1078C1.875 10.436 2.1373 10.7019 2.46094 10.7019H3.63876C3.84872 11.7505 4.76257 12.5237 5.83984 12.5237C6.91711 12.5237 7.83096 11.7505 8.04092 10.7019H13.9903C14.2003 11.7505 15.1141 12.5237 16.1914 12.5237C17.2687 12.5237 18.1825 11.7505 18.3925 10.7019H19.4141C19.7377 10.7019 20 10.436 20 10.1078V6.54348C20 4.80045 18.1866 4.68473 18.185 4.6821H13.6719C13.3482 4.6821 13.0859 4.41616 13.0859 4.08804V0.523682H2.46094C2.1373 0.523682 1.875 0.789616 1.875 1.11774V2.42467H1.17188C0.848236 2.42467 0.585938 2.69061 0.585938 3.01873C0.585938 3.34686 0.848236 3.61279 1.17188 3.61279H4.12415ZM16.951 9.47634C17.3705 9.90162 17.3705 10.5914 16.951 11.0167C16.2762 11.7008 15.1172 11.2141 15.1172 10.2465C15.1172 9.27894 16.2762 8.79225 16.951 9.47634ZM6.59943 9.47634C7.01889 9.90162 7.01889 10.5914 6.59943 11.0167C5.92468 11.7008 4.76562 11.2141 4.76562 10.2465C4.76562 9.27894 5.92468 8.79225 6.59943 9.47634Z" fill="white"/>
</svg>
